<?xml version="1.0" encoding="utf-8" standalone="no"?>
<!DOCTYPE svg PUBLIC "-//W3C//DTD SVG 1.1//EN"
  "http://www.w3.org/Graphics/SVG/1.1/DTD/svg11.dtd">
<svg xmlns:xlink="http://www.w3.org/1999/xlink" width="360pt" height="108pt" viewBox="0 0 360 108" xmlns="http://www.w3.org/2000/svg" version="1.1">
 <metadata>
  <rdf:RDF xmlns:dc="http://purl.org/dc/elements/1.1/" xmlns:cc="http://creativecommons.org/ns#" xmlns:rdf="http://www.w3.org/1999/02/22-rdf-syntax-ns#">
   <cc:Work>
    <dc:type rdf:resource="http://purl.org/dc/dcmitype/StillImage"/>
    <dc:date>2023-07-31T13:05:08.192254</dc:date>
    <dc:format>image/svg+xml</dc:format>
    <dc:creator>
     <cc:Agent>
      <dc:title>Matplotlib v3.7.1, https://matplotlib.org/</dc:title>
     </cc:Agent>
    </dc:creator>
   </cc:Work>
  </rdf:RDF>
 </metadata>
 <defs>
  <style type="text/css">*{stroke-linejoin: round; stroke-linecap: butt}</style>
 </defs>
 <g id="figure_1">
  <g id="patch_1">
   <path d="M 0 108 
L 360 108 
L 360 0 
L 0 0 
z
" style="fill: #ffffff"/>
  </g>
  <g id="axes_1">
   <g id="patch_2">
    <path d="M 46.96 78.32 
L 341.55 78.32 
L 341.55 10.8 
L 46.96 10.8 
z
" style="fill: #ffffff"/>
   </g>
   <g id="line2d_1">
    <path d="M 46.96 44.56 
L 341.55 44.56 
" clip-path="url(#pa01bb238cb)" style="fill: none; stroke-dasharray: 1.85,0.8; stroke-dashoffset: 0; stroke: #000000; stroke-width: 0.5"/>
   </g>
   <g id="matplotlib.axis_1">
    <g id="xtick_1">
     <g id="line2d_2">
      <defs>
       <path id="m9476577339" d="M 0 0 
L 0 3.5 
" style="stroke: #000000; stroke-width: 0.8"/>
      </defs>
      <g>
       <use xlink:href="#m9476577339" x="46.96" y="78.32" style="stroke: #000000; stroke-width: 0.8"/>
      </g>
     </g>
     <g id="text_1">
      <!-- 0 -->
      <g transform="translate(43.1425 94.438125) scale(0.12 -0.12)">
       <defs>
        <path id="DejaVuSans-30" d="M 2034 4250 
Q 1547 4250 1301 3770 
Q 1056 3291 1056 2328 
Q 1056 1369 1301 889 
Q 1547 409 2034 409 
Q 2525 409 2770 889 
Q 3016 1369 3016 2328 
Q 3016 3291 2770 3770 
Q 2525 4250 2034 4250 
z
M 2034 4750 
Q 2819 4750 3233 4129 
Q 3647 3509 3647 2328 
Q 3647 1150 3233 529 
Q 2819 -91 2034 -91 
Q 1250 -91 836 529 
Q 422 1150 422 2328 
Q 422 3509 836 4129 
Q 1250 4750 2034 4750 
z
" transform="scale(0.015625)"/>
       </defs>
       <use xlink:href="#DejaVuSans-30"/>
      </g>
     </g>
    </g>
    <g id="xtick_2">
     <g id="line2d_3">
      <g>
       <use xlink:href="#m9476577339" x="105.878" y="78.32" style="stroke: #000000; stroke-width: 0.8"/>
      </g>
     </g>
     <g id="text_2">
      <!-- 2 -->
      <g transform="translate(102.0605 94.438125) scale(0.12 -0.12)">
       <defs>
        <path id="DejaVuSans-32" d="M 1228 531 
L 3431 531 
L 3431 0 
L 469 0 
L 469 531 
Q 828 903 1448 1529 
Q 2069 2156 2228 2338 
Q 2531 2678 2651 2914 
Q 2772 3150 2772 3378 
Q 2772 3750 2511 3984 
Q 2250 4219 1831 4219 
Q 1534 4219 1204 4116 
Q 875 4013 500 3803 
L 500 4441 
Q 881 4594 1212 4672 
Q 1544 4750 1819 4750 
Q 2544 4750 2975 4387 
Q 3406 4025 3406 3419 
Q 3406 3131 3298 2873 
Q 3191 2616 2906 2266 
Q 2828 2175 2409 1742 
Q 1991 1309 1228 531 
z
" transform="scale(0.015625)"/>
       </defs>
       <use xlink:href="#DejaVuSans-32"/>
      </g>
     </g>
    </g>
    <g id="xtick_3">
     <g id="line2d_4">
      <g>
       <use xlink:href="#m9476577339" x="164.796" y="78.32" style="stroke: #000000; stroke-width: 0.8"/>
      </g>
     </g>
     <g id="text_3">
      <!-- 4 -->
      <g transform="translate(160.9785 94.438125) scale(0.12 -0.12)">
       <defs>
        <path id="DejaVuSans-34" d="M 2419 4116 
L 825 1625 
L 2419 1625 
L 2419 4116 
z
M 2253 4666 
L 3047 4666 
L 3047 1625 
L 3713 1625 
L 3713 1100 
L 3047 1100 
L 3047 0 
L 2419 0 
L 2419 1100 
L 313 1100 
L 313 1709 
L 2253 4666 
z
" transform="scale(0.015625)"/>
       </defs>
       <use xlink:href="#DejaVuSans-34"/>
      </g>
     </g>
    </g>
    <g id="xtick_4">
     <g id="line2d_5">
      <g>
       <use xlink:href="#m9476577339" x="223.714" y="78.32" style="stroke: #000000; stroke-width: 0.8"/>
      </g>
     </g>
     <g id="text_4">
      <!-- 6 -->
      <g transform="translate(219.8965 94.438125) scale(0.12 -0.12)">
       <defs>
        <path id="DejaVuSans-36" d="M 2113 2584 
Q 1688 2584 1439 2293 
Q 1191 2003 1191 1497 
Q 1191 994 1439 701 
Q 1688 409 2113 409 
Q 2538 409 2786 701 
Q 3034 994 3034 1497 
Q 3034 2003 2786 2293 
Q 2538 2584 2113 2584 
z
M 3366 4563 
L 3366 3988 
Q 3128 4100 2886 4159 
Q 2644 4219 2406 4219 
Q 1781 4219 1451 3797 
Q 1122 3375 1075 2522 
Q 1259 2794 1537 2939 
Q 1816 3084 2150 3084 
Q 2853 3084 3261 2657 
Q 3669 2231 3669 1497 
Q 3669 778 3244 343 
Q 2819 -91 2113 -91 
Q 1303 -91 875 529 
Q 447 1150 447 2328 
Q 447 3434 972 4092 
Q 1497 4750 2381 4750 
Q 2619 4750 2861 4703 
Q 3103 4656 3366 4563 
z
" transform="scale(0.015625)"/>
       </defs>
       <use xlink:href="#DejaVuSans-36"/>
      </g>
     </g>
    </g>
    <g id="xtick_5">
     <g id="line2d_6">
      <g>
       <use xlink:href="#m9476577339" x="282.632" y="78.32" style="stroke: #000000; stroke-width: 0.8"/>
      </g>
     </g>
     <g id="text_5">
      <!-- 8 -->
      <g transform="translate(278.8145 94.438125) scale(0.12 -0.12)">
       <defs>
        <path id="DejaVuSans-38" d="M 2034 2216 
Q 1584 2216 1326 1975 
Q 1069 1734 1069 1313 
Q 1069 891 1326 650 
Q 1584 409 2034 409 
Q 2484 409 2743 651 
Q 3003 894 3003 1313 
Q 3003 1734 2745 1975 
Q 2488 2216 2034 2216 
z
M 1403 2484 
Q 997 2584 770 2862 
Q 544 3141 544 3541 
Q 544 4100 942 4425 
Q 1341 4750 2034 4750 
Q 2731 4750 3128 4425 
Q 3525 4100 3525 3541 
Q 3525 3141 3298 2862 
Q 3072 2584 2669 2484 
Q 3125 2378 3379 2068 
Q 3634 1759 3634 1313 
Q 3634 634 3220 271 
Q 2806 -91 2034 -91 
Q 1263 -91 848 271 
Q 434 634 434 1313 
Q 434 1759 690 2068 
Q 947 2378 1403 2484 
z
M 1172 3481 
Q 1172 3119 1398 2916 
Q 1625 2713 2034 2713 
Q 2441 2713 2670 2916 
Q 2900 3119 2900 3481 
Q 2900 3844 2670 4047 
Q 2441 4250 2034 4250 
Q 1625 4250 1398 4047 
Q 1172 3844 1172 3481 
z
" transform="scale(0.015625)"/>
       </defs>
       <use xlink:href="#DejaVuSans-38"/>
      </g>
     </g>
    </g>
    <g id="xtick_6">
     <g id="line2d_7">
      <g>
       <use xlink:href="#m9476577339" x="341.55" y="78.32" style="stroke: #000000; stroke-width: 0.8"/>
      </g>
     </g>
     <g id="text_6">
      <!-- 10 -->
      <g transform="translate(333.915 94.438125) scale(0.12 -0.12)">
       <defs>
        <path id="DejaVuSans-31" d="M 794 531 
L 1825 531 
L 1825 4091 
L 703 3866 
L 703 4441 
L 1819 4666 
L 2450 4666 
L 2450 531 
L 3481 531 
L 3481 0 
L 794 0 
L 794 531 
z
" transform="scale(0.015625)"/>
       </defs>
       <use xlink:href="#DejaVuSans-31"/>
       <use xlink:href="#DejaVuSans-30" x="63.623047"/>
      </g>
     </g>
    </g>
   </g>
   <g id="matplotlib.axis_2">
    <g id="ytick_1">
     <g id="line2d_8">
      <defs>
       <path id="mfe9231bc6e" d="M 0 0 
L -3.5 0 
" style="stroke: #000000; stroke-width: 0.8"/>
      </defs>
      <g>
       <use xlink:href="#mfe9231bc6e" x="46.96" y="68.983049" style="stroke: #000000; stroke-width: 0.8"/>
      </g>
     </g>
     <g id="text_7">
      <!-- −2.5 -->
      <g transform="translate(10.820625 73.542112) scale(0.12 -0.12)">
       <defs>
        <path id="DejaVuSans-2212" d="M 678 2272 
L 4684 2272 
L 4684 1741 
L 678 1741 
L 678 2272 
z
" transform="scale(0.015625)"/>
        <path id="DejaVuSans-2e" d="M 684 794 
L 1344 794 
L 1344 0 
L 684 0 
L 684 794 
z
" transform="scale(0.015625)"/>
        <path id="DejaVuSans-35" d="M 691 4666 
L 3169 4666 
L 3169 4134 
L 1269 4134 
L 1269 2991 
Q 1406 3038 1543 3061 
Q 1681 3084 1819 3084 
Q 2600 3084 3056 2656 
Q 3513 2228 3513 1497 
Q 3513 744 3044 326 
Q 2575 -91 1722 -91 
Q 1428 -91 1123 -41 
Q 819 9 494 109 
L 494 744 
Q 775 591 1075 516 
Q 1375 441 1709 441 
Q 2250 441 2565 725 
Q 2881 1009 2881 1497 
Q 2881 1984 2565 2268 
Q 2250 2553 1709 2553 
Q 1456 2553 1204 2497 
Q 953 2441 691 2322 
L 691 4666 
z
" transform="scale(0.015625)"/>
       </defs>
       <use xlink:href="#DejaVuSans-2212"/>
       <use xlink:href="#DejaVuSans-32" x="83.789062"/>
       <use xlink:href="#DejaVuSans-2e" x="147.412109"/>
       <use xlink:href="#DejaVuSans-35" x="179.199219"/>
      </g>
     </g>
    </g>
    <g id="ytick_2">
     <g id="line2d_9">
      <g>
       <use xlink:href="#mfe9231bc6e" x="46.96" y="44.56" style="stroke: #000000; stroke-width: 0.8"/>
      </g>
     </g>
     <g id="text_8">
      <!-- 0.0 -->
      <g transform="translate(20.87625 49.119062) scale(0.12 -0.12)">
       <use xlink:href="#DejaVuSans-30"/>
       <use xlink:href="#DejaVuSans-2e" x="63.623047"/>
       <use xlink:href="#DejaVuSans-30" x="95.410156"/>
      </g>
     </g>
    </g>
    <g id="ytick_3">
     <g id="line2d_10">
      <g>
       <use xlink:href="#mfe9231bc6e" x="46.96" y="20.136951" style="stroke: #000000; stroke-width: 0.8"/>
      </g>
     </g>
     <g id="text_9">
      <!-- 2.5 -->
      <g transform="translate(20.87625 24.696013) scale(0.12 -0.12)">
       <use xlink:href="#DejaVuSans-32"/>
       <use xlink:href="#DejaVuSans-2e" x="63.623047"/>
       <use xlink:href="#DejaVuSans-35" x="95.410156"/>
      </g>
     </g>
    </g>
   </g>
   <g id="line2d_11">
    <path d="M 46.96 44.56 
L 50.78967 44.428712 
L 54.91393 44.052572 
L 60.21655 43.319204 
L 69.34884 42.027968 
L 73.4731 41.692812 
L 77.30277 41.607766 
L 81.13244 41.75345 
L 85.2567 42.139911 
L 90.85391 42.912699 
L 99.10243 44.047126 
L 103.22669 44.380191 
L 107.05636 44.466271 
L 110.88603 44.323665 
L 115.01029 43.943347 
L 120.90209 43.142221 
L 128.56143 42.113279 
L 132.98028 41.759926 
L 136.80995 41.675947 
L 140.63962 41.812824 
L 144.1747 42.145582 
L 147.41519 42.692952 
L 150.65568 43.486129 
L 153.89617 44.518108 
L 165.09059 48.324887 
L 167.44731 48.76339 
L 169.50944 48.940122 
L 171.57157 48.899331 
L 173.6337 48.639819 
L 175.99042 48.095589 
L 178.34714 47.301706 
L 180.70386 46.260419 
L 183.64976 44.696981 
L 192.48746 39.786356 
L 194.84418 38.788835 
L 197.2009 38.040457 
L 199.26303 37.619818 
L 200.73598 37.502567 
L 202.20893 37.579816 
L 203.97647 37.918121 
L 205.74401 38.504012 
L 207.51155 39.310814 
L 209.57368 40.497866 
L 211.9304 42.132271 
L 215.17089 44.685513 
L 220.17892 48.648291 
L 222.53564 50.249728 
L 224.59777 51.407815 
L 226.6599 52.298463 
L 228.42744 52.838685 
L 230.19498 53.167659 
L 231.96252 53.281437 
L 233.73006 53.176458 
L 235.20301 52.88141 
L 236.67596 52.370329 
L 238.4435 51.485013 
L 240.21104 50.325609 
L 242.27317 48.671736 
L 244.62989 46.472417 
L 248.45956 42.532427 
L 252.28923 38.696651 
L 254.64595 36.648454 
L 256.41349 35.382713 
L 258.18103 34.383826 
L 259.65398 33.806741 
L 261.12693 33.479855 
L 262.59988 33.406516 
L 264.07283 33.58722 
L 265.54578 34.019793 
L 267.01873 34.699072 
L 268.49168 35.616228 
L 270.25922 37.01156 
L 272.02676 38.695983 
L 274.08889 40.962971 
L 277.03479 44.574617 
L 282.33741 51.157122 
L 284.69413 53.70765 
L 286.75626 55.612345 
L 288.5238 56.96454 
L 290.29134 58.039842 
L 292.05888 58.829336 
L 293.53183 59.265922 
L 295.00478 59.500294 
L 296.47773 59.532163 
L 297.95068 59.361517 
L 299.42363 58.988605 
L 300.89658 58.414221 
L 302.36953 57.618128 
L 303.84248 56.553472 
L 305.31543 55.228179 
L 307.08297 53.313657 
L 309.1451 50.683608 
L 311.50182 47.272936 
L 320.04493 34.465694 
L 322.10706 31.962015 
L 323.8746 30.119136 
L 325.64214 28.572984 
L 327.40968 27.329655 
L 329.17722 26.385196 
L 330.94476 25.731829 
L 332.41771 25.407376 
L 333.89066 25.281026 
L 335.36361 25.35104 
L 336.83656 25.616858 
L 338.30951 26.07922 
L 340.07705 26.894649 
L 341.55 27.791617 
L 341.55 27.791617 
" clip-path="url(#pa01bb238cb)" style="fill: none; stroke: #000000; stroke-width: 1.5; stroke-linecap: square"/>
   </g>
   <g id="line2d_12">
    <path d="M 46.96 44.56 
L 47.25459 30.967409 
L 50.20049 30.664 
L 54.91393 30.130513 
L 58.7436 29.989545 
L 68.75966 29.915086 
L 113.83193 29.911168 
L 139.16667 29.989042 
L 140.05044 30.133834 
L 140.63962 30.403779 
L 141.2288 30.990246 
L 141.81798 32.109332 
L 142.40716 33.920353 
L 144.46929 41.574188 
L 145.05847 42.539715 
L 146.82601 44.652346 
L 147.70978 46.380504 
L 148.88814 49.467631 
L 150.36109 53.510917 
L 151.24486 55.26448 
L 151.83404 56.056727 
L 152.71781 56.813247 
L 153.60158 57.24874 
L 154.77994 57.572433 
L 155.9583 57.705757 
L 157.13666 57.629421 
L 158.02043 57.388106 
L 158.9042 56.946528 
L 159.78797 56.282014 
L 160.96633 55.080319 
L 163.02846 52.532176 
L 165.67977 49.036895 
L 166.85813 47.028936 
L 168.03649 44.405364 
L 168.92026 42.525095 
L 169.50944 41.722166 
L 170.09862 41.275019 
L 171.27698 40.784597 
L 171.86616 40.687184 
L 172.74993 40.847595 
L 173.6337 41.193187 
L 174.22288 41.654938 
L 174.81206 42.190207 
L 175.10665 42.284763 
L 175.40124 42.150414 
L 175.69583 41.748062 
L 176.28501 40.16067 
L 177.16878 36.422603 
L 178.05255 32.64597 
L 178.64173 31.087146 
L 179.23091 30.392275 
L 179.82009 30.154916 
L 180.70386 30.085238 
L 181.88222 30.205985 
L 183.35517 30.653657 
L 184.23894 30.847912 
L 185.12271 30.805274 
L 186.30107 30.46646 
L 187.77402 30.069247 
L 189.24697 29.936694 
L 193.66582 29.907023 
L 198.67385 29.97901 
L 198.96844 30.174023 
L 199.26303 31.50537 
L 199.55762 40.603285 
L 199.85221 56.295083 
L 200.1468 59.017127 
L 200.44139 59.158552 
L 201.03057 59.078717 
L 201.61975 58.62387 
L 202.20893 57.696659 
L 204.27106 53.816616 
L 206.62778 50.235886 
L 207.21696 49.986887 
L 207.51155 50.042767 
L 208.10073 50.521726 
L 208.68991 51.532761 
L 209.86827 54.049054 
L 210.45745 54.627565 
L 211.04663 54.689257 
L 211.63581 54.430077 
L 214.28712 52.753806 
L 215.46548 52.347704 
L 217.23302 51.998347 
L 221.35728 51.324392 
L 223.714 50.69072 
L 224.30318 50.940005 
L 224.89236 51.582901 
L 225.77613 53.168806 
L 227.24908 56.00352 
L 228.13285 57.186309 
L 229.01662 57.960304 
L 229.90039 58.444796 
L 231.07875 58.798065 
L 231.96252 58.868468 
L 232.5517 58.730574 
L 232.84629 58.492774 
L 233.14088 57.919516 
L 233.43547 56.421805 
L 233.73006 52.3936 
L 234.31924 34.437085 
L 234.61383 30.853321 
L 234.90842 30.119629 
L 235.4976 29.935321 
L 237.85432 29.90617 
L 252.58382 29.996827 
L 252.87841 30.116024 
L 253.173 30.410322 
L 253.46759 31.132039 
L 253.76218 32.760876 
L 254.64595 42.164794 
L 254.94054 43.451672 
L 255.23513 43.51144 
L 255.52972 42.799848 
L 256.70808 38.70675 
L 257.00267 38.574864 
L 257.29726 39.461993 
L 257.59185 42.19517 
L 258.47562 57.847924 
L 258.77021 58.839214 
L 259.0648 59.073041 
L 261.12693 59.213767 
L 301.19117 59.194554 
L 301.48576 58.05335 
L 301.78035 30.866079 
L 302.07494 29.906175 
L 313.56395 29.999339 
L 315.62608 30.405496 
L 316.80444 30.550023 
L 317.9828 30.429594 
L 319.75034 30.141188 
L 321.22329 30.197149 
L 322.40165 30.451204 
L 323.28542 30.888954 
L 324.46378 31.854164 
L 325.64214 33.030559 
L 326.23132 33.611159 
L 326.8205 33.88464 
L 327.70427 33.884245 
L 329.47181 33.614256 
L 330.06099 33.877124 
L 331.23935 34.920939 
L 332.12312 35.267544 
L 333.00689 35.30601 
L 334.18525 35.042871 
L 335.95279 34.365214 
L 337.42574 33.633351 
L 338.30951 32.999622 
L 339.19328 32.026799 
L 340.37164 30.385358 
L 340.96082 30.034266 
L 341.55 29.945844 
L 341.55 29.945844 
" clip-path="url(#pa01bb238cb)" style="fill: none; stroke: #0000ff; stroke-width: 1.5; stroke-linecap: square"/>
   </g>
   <g id="line2d_13">
    <path d="M 46.96 13.869091 
L 341.55 13.869091 
" clip-path="url(#pa01bb238cb)" style="fill: none; stroke-dasharray: 5.55,2.4; stroke-dashoffset: 0; stroke: #ff0000; stroke-width: 1.5"/>
   </g>
   <g id="line2d_14">
    <path d="M 46.96 75.250909 
L 341.55 75.250909 
" clip-path="url(#pa01bb238cb)" style="fill: none; stroke-dasharray: 5.55,2.4; stroke-dashoffset: 0; stroke: #ff0000; stroke-width: 1.5"/>
   </g>
   <g id="patch_3">
    <path d="M 46.96 78.32 
L 46.96 10.8 
" style="fill: none; stroke: #000000; stroke-width: 0.8; stroke-linejoin: miter; stroke-linecap: square"/>
   </g>
   <g id="patch_4">
    <path d="M 46.96 78.32 
L 341.55 78.32 
" style="fill: none; stroke: #000000; stroke-width: 0.8; stroke-linejoin: miter; stroke-linecap: square"/>
   </g>
  </g>
 </g>
 <defs>
  <clipPath id="pa01bb238cb">
   <rect x="46.96" y="10.8" width="294.59" height="67.52"/>
  </clipPath>
 </defs>
</svg>
