<?xml version="1.0" encoding="utf-8" standalone="no"?>
<!DOCTYPE svg PUBLIC "-//W3C//DTD SVG 1.1//EN"
  "http://www.w3.org/Graphics/SVG/1.1/DTD/svg11.dtd">
<svg xmlns:xlink="http://www.w3.org/1999/xlink" width="72pt" height="144pt" viewBox="0 0 72 144" xmlns="http://www.w3.org/2000/svg" version="1.1">
 <metadata>
  <rdf:RDF xmlns:dc="http://purl.org/dc/elements/1.1/" xmlns:cc="http://creativecommons.org/ns#" xmlns:rdf="http://www.w3.org/1999/02/22-rdf-syntax-ns#">
   <cc:Work>
    <dc:type rdf:resource="http://purl.org/dc/dcmitype/StillImage"/>
    <dc:date>2023-07-28T22:45:18.504191</dc:date>
    <dc:format>image/svg+xml</dc:format>
    <dc:creator>
     <cc:Agent>
      <dc:title>Matplotlib v3.7.1, https://matplotlib.org/</dc:title>
     </cc:Agent>
    </dc:creator>
   </cc:Work>
  </rdf:RDF>
 </metadata>
 <defs>
  <style type="text/css">*{stroke-linejoin: round; stroke-linecap: butt}</style>
 </defs>
 <g id="figure_1">
  <g id="patch_1">
   <path d="M 0 144 
L 72 144 
L 72 0 
L 0 0 
z
" style="fill: #ffffff"/>
  </g>
  <g id="axes_1">
   <g id="line2d_1">
    <path d="M 22.076471 51.849224 
L 22.628526 52.160136 
L 23.1871 52.459179 
L 23.751937 52.746218 
L 24.322778 53.021121 
L 24.899364 53.283762 
L 25.481431 53.534022 
L 26.068713 53.771786 
L 26.660942 53.996946 
L 27.257847 54.209399 
L 27.859156 54.409047 
L 28.464594 54.5958 
L 29.073884 54.769572 
L 29.686749 54.930284 
L 30.302909 55.077863 
L 30.922081 55.212241 
L 31.543984 55.333356 
L 32.168333 55.441154 
L 32.794842 55.535585 
L 33.423227 55.616606 
L 34.0532 55.684181 
L 34.684473 55.738277 
L 35.316757 55.778871 
L 35.949765 55.805944 
L 36.583207 55.819484 
L 37.216793 55.819484 
L 37.850235 55.805944 
L 38.483243 55.778871 
L 39.115527 55.738277 
L 39.7468 55.684181 
L 40.376773 55.616606 
L 41.005158 55.535585 
L 41.631667 55.441154 
L 42.256016 55.333356 
L 42.877919 55.212241 
L 43.497091 55.077863 
L 44.113251 54.930284 
L 44.726116 54.769572 
L 45.335406 54.5958 
L 45.940844 54.409047 
L 46.542153 54.209399 
L 47.139058 53.996946 
L 47.731287 53.771786 
L 48.318569 53.534022 
L 48.900636 53.283762 
L 49.477222 53.021121 
L 50.048063 52.746218 
L 50.6129 52.459179 
L 51.171474 52.160136 
L 51.723529 51.849224 
" clip-path="url(#p29cf6c6535)" style="fill: none; stroke-dasharray: 1.85,0.8; stroke-dashoffset: 0; stroke: #000000; stroke-width: 0.5"/>
   </g>
   <g id="line2d_2">
    <path d="M 36.9 26.174118 
L 25.554562 53.564428 
" clip-path="url(#p29cf6c6535)" style="fill: none; stroke: #808080; stroke-opacity: 0.3; stroke-width: 3; stroke-linecap: square"/>
   </g>
   <g id="line2d_3">
    <path d="M 36.9 26.174118 
L 48.245438 53.564428 
" clip-path="url(#p29cf6c6535)" style="fill: none; stroke: #808080; stroke-width: 3; stroke-linecap: square"/>
   </g>
   <g id="PathCollection_1">
    <defs>
     <path id="m22b732e587" d="M 0 2.738613 
C 0.726289 2.738613 1.422928 2.450055 1.936492 1.936492 
C 2.450055 1.422928 2.738613 0.726289 2.738613 0 
C 2.738613 -0.726289 2.450055 -1.422928 1.936492 -1.936492 
C 1.422928 -2.450055 0.726289 -2.738613 0 -2.738613 
C -0.726289 -2.738613 -1.422928 -2.450055 -1.936492 -1.936492 
C -2.450055 -1.422928 -2.738613 -0.726289 -2.738613 0 
C -2.738613 0.726289 -2.450055 1.422928 -1.936492 1.936492 
C -1.422928 2.450055 -0.726289 2.738613 0 2.738613 
z
" style="stroke: #000000; stroke-opacity: 0.3"/>
    </defs>
    <g clip-path="url(#p29cf6c6535)">
     <use xlink:href="#m22b732e587" x="25.554562" y="53.564428" style="fill-opacity: 0.3; stroke: #000000; stroke-opacity: 0.3"/>
    </g>
   </g>
   <g id="PathCollection_2">
    <defs>
     <path id="m893ce9c03c" d="M 0 2.738613 
C 0.726289 2.738613 1.422928 2.450055 1.936492 1.936492 
C 2.450055 1.422928 2.738613 0.726289 2.738613 0 
C 2.738613 -0.726289 2.450055 -1.422928 1.936492 -1.936492 
C 1.422928 -2.450055 0.726289 -2.738613 0 -2.738613 
C -0.726289 -2.738613 -1.422928 -2.450055 -1.936492 -1.936492 
C -2.450055 -1.422928 -2.738613 -0.726289 -2.738613 0 
C -2.738613 0.726289 -2.450055 1.422928 -1.936492 1.936492 
C -1.422928 2.450055 -0.726289 2.738613 0 2.738613 
z
" style="stroke: #000000"/>
    </defs>
    <g clip-path="url(#p29cf6c6535)">
     <use xlink:href="#m893ce9c03c" x="48.245438" y="53.564428" style="stroke: #000000"/>
    </g>
   </g>
   <g id="patch_2">
    <path d="M 33.935294 21.039096 
C 33.373903 21.363215 32.869445 21.777214 32.442032 22.264585 
C 32.014619 22.751956 31.670008 23.306136 31.421938 23.90503 
C 31.173868 24.503924 31.02568 25.139465 30.983284 25.786316 
C 30.940887 26.433166 31.004852 27.082612 31.172628 27.708762 
C 31.340404 28.334912 31.609732 28.929332 31.969874 29.468322 
C 32.330016 30.007313 32.776121 30.483614 33.290403 30.878236 
C 33.804685 31.272859 34.380217 31.580487 34.994053 31.788856 
C 35.607889 31.997226 36.251762 32.103529 36.9 32.103529 
C 37.548238 32.103529 38.192111 31.997226 38.805947 31.788856 
C 39.419783 31.580487 39.995315 31.272859 40.509597 30.878236 
C 41.023879 30.483614 41.469984 30.007313 41.830126 29.468322 
C 42.190268 28.929332 42.459596 28.334912 42.627372 27.708762 
C 42.795148 27.082612 42.859113 26.433166 42.816716 25.786316 
C 42.77432 25.139465 42.626132 24.503924 42.378062 23.90503 
C 42.129992 23.306136 41.785381 22.751956 41.357968 22.264585 
C 40.930555 21.777214 40.426097 21.363215 39.864706 21.039096 
" clip-path="url(#p29cf6c6535)" style="fill: none; stroke: #0000ff; stroke-width: 2.5; stroke-linejoin: miter; stroke-linecap: round"/>
   </g>
   <g id="patch_3">
    <path d="M 36.441358 19.062626 
L 39.864706 24.992038 
L 43.288053 19.062626 
z
" clip-path="url(#p29cf6c6535)" style="fill: #0000ff; stroke: #0000ff; stroke-linejoin: miter"/>
   </g>
  </g>
  <g id="axes_2">
   <g id="line2d_4">
    <path d="M 18.9 102.96 
L 18.935519 104.090229 
L 19.041935 105.215998 
L 19.218829 106.332864 
L 19.465503 107.436418 
L 19.780983 108.522306 
L 20.164023 109.586242 
L 20.613113 110.624027 
L 21.12648 111.631566 
L 21.702097 112.604882 
L 22.337694 113.540135 
L 23.030762 114.433632 
L 23.778565 115.281848 
L 24.578152 116.081435 
L 25.426368 116.829238 
L 26.319865 117.522306 
L 27.255118 118.157903 
L 28.228434 118.73352 
L 29.235973 119.246887 
L 30.273758 119.695977 
L 31.337694 120.079017 
L 32.423582 120.394497 
L 33.527136 120.641171 
L 34.644002 120.818065 
L 35.769771 120.924481 
L 36.9 120.96 
L 38.030229 120.924481 
L 39.155998 120.818065 
L 40.272864 120.641171 
L 41.376418 120.394497 
L 42.462306 120.079017 
L 43.526242 119.695977 
L 44.564027 119.246887 
L 45.571566 118.73352 
L 46.544882 118.157903 
L 47.480135 117.522306 
L 48.373632 116.829238 
L 49.221848 116.081435 
L 50.021435 115.281848 
L 50.769238 114.433632 
L 51.462306 113.540135 
L 52.097903 112.604882 
L 52.67352 111.631566 
L 53.186887 110.624027 
L 53.635977 109.586242 
L 54.019017 108.522306 
L 54.334497 107.436418 
L 54.581171 106.332864 
L 54.758065 105.215998 
L 54.864481 104.090229 
L 54.9 102.96 
L 54.864481 101.829771 
L 54.758065 100.704002 
L 54.581171 99.587136 
L 54.334497 98.483582 
L 54.019017 97.397694 
L 53.635977 96.333758 
L 53.186887 95.295973 
L 52.67352 94.288434 
L 52.097903 93.315118 
L 51.462306 92.379865 
L 50.769238 91.486368 
L 50.021435 90.638152 
L 49.221848 89.838565 
L 48.373632 89.090762 
L 47.480135 88.397694 
L 46.544882 87.762097 
L 45.571566 87.18648 
L 44.564027 86.673113 
L 43.526242 86.224023 
L 42.462306 85.840983 
L 41.376418 85.525503 
L 40.272864 85.278829 
L 39.155998 85.101935 
L 38.030229 84.995519 
L 36.9 84.96 
L 35.769771 84.995519 
L 34.644002 85.101935 
L 33.527136 85.278829 
L 32.423582 85.525503 
L 31.337694 85.840983 
L 30.273758 86.224023 
L 29.235973 86.673113 
L 28.228434 87.18648 
L 27.255118 87.762097 
L 26.319865 88.397694 
L 25.426368 89.090762 
L 24.578152 89.838565 
L 23.778565 90.638152 
L 23.030762 91.486368 
L 22.337694 92.379865 
L 21.702097 93.315118 
L 21.12648 94.288434 
L 20.613113 95.295973 
L 20.164023 96.333758 
L 19.780983 97.397694 
L 19.465503 98.483582 
L 19.218829 99.587136 
L 19.041935 100.704002 
L 18.935519 101.829771 
L 18.9 102.96 
" clip-path="url(#p51a3487a56)" style="fill: none; stroke-dasharray: 1.85,0.8; stroke-dashoffset: 0; stroke: #000000; stroke-width: 0.5"/>
   </g>
   <g id="line2d_5">
    <path d="M 36.9 102.96 
L 36.9 84.96 
" clip-path="url(#p51a3487a56)" style="fill: none; stroke: #808080; stroke-width: 3; stroke-linecap: square"/>
   </g>
   <g id="PathCollection_3">
    <g clip-path="url(#p51a3487a56)">
     <use xlink:href="#m893ce9c03c" x="36.9" y="84.96" style="stroke: #000000"/>
    </g>
   </g>
  </g>
 </g>
 <defs>
  <clipPath id="p29cf6c6535">
   <rect x="20.594118" y="17.28" width="32.611765" height="50.4"/>
  </clipPath>
  <clipPath id="p51a3487a56">
   <rect x="17.1" y="77.76" width="39.6" height="50.4"/>
  </clipPath>
 </defs>
</svg>
