<?xml version="1.0" encoding="utf-8" standalone="no"?>
<!DOCTYPE svg PUBLIC "-//W3C//DTD SVG 1.1//EN"
  "http://www.w3.org/Graphics/SVG/1.1/DTD/svg11.dtd">
<svg xmlns:xlink="http://www.w3.org/1999/xlink" width="216pt" height="108pt" viewBox="0 0 216 108" xmlns="http://www.w3.org/2000/svg" version="1.1">
 <metadata>
  <rdf:RDF xmlns:dc="http://purl.org/dc/elements/1.1/" xmlns:cc="http://creativecommons.org/ns#" xmlns:rdf="http://www.w3.org/1999/02/22-rdf-syntax-ns#">
   <cc:Work>
    <dc:type rdf:resource="http://purl.org/dc/dcmitype/StillImage"/>
    <dc:date>2023-07-31T13:27:16.238733</dc:date>
    <dc:format>image/svg+xml</dc:format>
    <dc:creator>
     <cc:Agent>
      <dc:title>Matplotlib v3.7.1, https://matplotlib.org/</dc:title>
     </cc:Agent>
    </dc:creator>
   </cc:Work>
  </rdf:RDF>
 </metadata>
 <defs>
  <style type="text/css">*{stroke-linejoin: round; stroke-linecap: butt}</style>
 </defs>
 <g id="figure_1">
  <g id="patch_1">
   <path d="M 0 108 
L 216 108 
L 216 0 
L 0 0 
z
" style="fill: #ffffff"/>
  </g>
  <g id="axes_1">
   <g id="patch_2">
    <path d="M 45.830436 78.32 
L 190.641696 78.32 
L 190.641696 10.8 
L 45.830436 10.8 
z
" style="fill: #ffffff"/>
   </g>
   <g id="matplotlib.axis_1">
    <g id="xtick_1">
     <g id="line2d_1">
      <defs>
       <path id="me1a6527297" d="M 0 0 
L 0 3.5 
" style="stroke: #000000; stroke-width: 0.8"/>
      </defs>
      <g>
       <use xlink:href="#me1a6527297" x="52.412766" y="78.32" style="stroke: #000000; stroke-width: 0.8"/>
      </g>
     </g>
     <g id="text_1">
      <!-- 0 -->
      <g transform="translate(48.595266 94.438125) scale(0.12 -0.12)">
       <defs>
        <path id="DejaVuSans-30" d="M 2034 4250 
Q 1547 4250 1301 3770 
Q 1056 3291 1056 2328 
Q 1056 1369 1301 889 
Q 1547 409 2034 409 
Q 2525 409 2770 889 
Q 3016 1369 3016 2328 
Q 3016 3291 2770 3770 
Q 2525 4250 2034 4250 
z
M 2034 4750 
Q 2819 4750 3233 4129 
Q 3647 3509 3647 2328 
Q 3647 1150 3233 529 
Q 2819 -91 2034 -91 
Q 1250 -91 836 529 
Q 422 1150 422 2328 
Q 422 3509 836 4129 
Q 1250 4750 2034 4750 
z
" transform="scale(0.015625)"/>
       </defs>
       <use xlink:href="#DejaVuSans-30"/>
      </g>
     </g>
    </g>
    <g id="xtick_2">
     <g id="line2d_2">
      <g>
       <use xlink:href="#me1a6527297" x="119.551995" y="78.32" style="stroke: #000000; stroke-width: 0.8"/>
      </g>
     </g>
     <g id="text_2">
      <!-- 5000 -->
      <g transform="translate(104.281995 94.438125) scale(0.12 -0.12)">
       <defs>
        <path id="DejaVuSans-35" d="M 691 4666 
L 3169 4666 
L 3169 4134 
L 1269 4134 
L 1269 2991 
Q 1406 3038 1543 3061 
Q 1681 3084 1819 3084 
Q 2600 3084 3056 2656 
Q 3513 2228 3513 1497 
Q 3513 744 3044 326 
Q 2575 -91 1722 -91 
Q 1428 -91 1123 -41 
Q 819 9 494 109 
L 494 744 
Q 775 591 1075 516 
Q 1375 441 1709 441 
Q 2250 441 2565 725 
Q 2881 1009 2881 1497 
Q 2881 1984 2565 2268 
Q 2250 2553 1709 2553 
Q 1456 2553 1204 2497 
Q 953 2441 691 2322 
L 691 4666 
z
" transform="scale(0.015625)"/>
       </defs>
       <use xlink:href="#DejaVuSans-35"/>
       <use xlink:href="#DejaVuSans-30" x="63.623047"/>
       <use xlink:href="#DejaVuSans-30" x="127.246094"/>
       <use xlink:href="#DejaVuSans-30" x="190.869141"/>
      </g>
     </g>
    </g>
    <g id="xtick_3">
     <g id="line2d_3">
      <g>
       <use xlink:href="#me1a6527297" x="186.691224" y="78.32" style="stroke: #000000; stroke-width: 0.8"/>
      </g>
     </g>
     <g id="text_3">
      <!-- 10000 -->
      <g transform="translate(167.603724 94.438125) scale(0.12 -0.12)">
       <defs>
        <path id="DejaVuSans-31" d="M 794 531 
L 1825 531 
L 1825 4091 
L 703 3866 
L 703 4441 
L 1819 4666 
L 2450 4666 
L 2450 531 
L 3481 531 
L 3481 0 
L 794 0 
L 794 531 
z
" transform="scale(0.015625)"/>
       </defs>
       <use xlink:href="#DejaVuSans-31"/>
       <use xlink:href="#DejaVuSans-30" x="63.623047"/>
       <use xlink:href="#DejaVuSans-30" x="127.246094"/>
       <use xlink:href="#DejaVuSans-30" x="190.869141"/>
       <use xlink:href="#DejaVuSans-30" x="254.492188"/>
      </g>
     </g>
    </g>
   </g>
   <g id="matplotlib.axis_2">
    <g id="ytick_1">
     <g id="line2d_4">
      <defs>
       <path id="m5f4db8d6cc" d="M 0 0 
L -3.5 0 
" style="stroke: #000000; stroke-width: 0.8"/>
      </defs>
      <g>
       <use xlink:href="#m5f4db8d6cc" x="45.830436" y="61.986825" style="stroke: #000000; stroke-width: 0.8"/>
      </g>
     </g>
     <g id="text_4">
      <!-- $\mathdefault{10^{-8}}$ -->
      <g transform="translate(10.630436 66.545887) scale(0.12 -0.12)">
       <defs>
        <path id="DejaVuSans-2212" d="M 678 2272 
L 4684 2272 
L 4684 1741 
L 678 1741 
L 678 2272 
z
" transform="scale(0.015625)"/>
        <path id="DejaVuSans-38" d="M 2034 2216 
Q 1584 2216 1326 1975 
Q 1069 1734 1069 1313 
Q 1069 891 1326 650 
Q 1584 409 2034 409 
Q 2484 409 2743 651 
Q 3003 894 3003 1313 
Q 3003 1734 2745 1975 
Q 2488 2216 2034 2216 
z
M 1403 2484 
Q 997 2584 770 2862 
Q 544 3141 544 3541 
Q 544 4100 942 4425 
Q 1341 4750 2034 4750 
Q 2731 4750 3128 4425 
Q 3525 4100 3525 3541 
Q 3525 3141 3298 2862 
Q 3072 2584 2669 2484 
Q 3125 2378 3379 2068 
Q 3634 1759 3634 1313 
Q 3634 634 3220 271 
Q 2806 -91 2034 -91 
Q 1263 -91 848 271 
Q 434 634 434 1313 
Q 434 1759 690 2068 
Q 947 2378 1403 2484 
z
M 1172 3481 
Q 1172 3119 1398 2916 
Q 1625 2713 2034 2713 
Q 2441 2713 2670 2916 
Q 2900 3119 2900 3481 
Q 2900 3844 2670 4047 
Q 2441 4250 2034 4250 
Q 1625 4250 1398 4047 
Q 1172 3844 1172 3481 
z
" transform="scale(0.015625)"/>
       </defs>
       <use xlink:href="#DejaVuSans-31" transform="translate(0 0.765625)"/>
       <use xlink:href="#DejaVuSans-30" transform="translate(63.623047 0.765625)"/>
       <use xlink:href="#DejaVuSans-2212" transform="translate(128.203125 39.046875) scale(0.7)"/>
       <use xlink:href="#DejaVuSans-38" transform="translate(186.855469 39.046875) scale(0.7)"/>
      </g>
     </g>
    </g>
    <g id="ytick_2">
     <g id="line2d_5">
      <g>
       <use xlink:href="#m5f4db8d6cc" x="45.830436" y="42.226538" style="stroke: #000000; stroke-width: 0.8"/>
      </g>
     </g>
     <g id="text_5">
      <!-- $\mathdefault{10^{-4}}$ -->
      <g transform="translate(10.630436 46.7856) scale(0.12 -0.12)">
       <defs>
        <path id="DejaVuSans-34" d="M 2419 4116 
L 825 1625 
L 2419 1625 
L 2419 4116 
z
M 2253 4666 
L 3047 4666 
L 3047 1625 
L 3713 1625 
L 3713 1100 
L 3047 1100 
L 3047 0 
L 2419 0 
L 2419 1100 
L 313 1100 
L 313 1709 
L 2253 4666 
z
" transform="scale(0.015625)"/>
       </defs>
       <use xlink:href="#DejaVuSans-31" transform="translate(0 0.684375)"/>
       <use xlink:href="#DejaVuSans-30" transform="translate(63.623047 0.684375)"/>
       <use xlink:href="#DejaVuSans-2212" transform="translate(128.203125 38.965625) scale(0.7)"/>
       <use xlink:href="#DejaVuSans-34" transform="translate(186.855469 38.965625) scale(0.7)"/>
      </g>
     </g>
    </g>
    <g id="ytick_3">
     <g id="line2d_6">
      <g>
       <use xlink:href="#m5f4db8d6cc" x="45.830436" y="22.466251" style="stroke: #000000; stroke-width: 0.8"/>
      </g>
     </g>
     <g id="text_6">
      <!-- $\mathdefault{10^{0}}$ -->
      <g transform="translate(17.710436 27.025313) scale(0.12 -0.12)">
       <use xlink:href="#DejaVuSans-31" transform="translate(0 0.765625)"/>
       <use xlink:href="#DejaVuSans-30" transform="translate(63.623047 0.765625)"/>
       <use xlink:href="#DejaVuSans-30" transform="translate(128.203125 39.046875) scale(0.7)"/>
      </g>
     </g>
    </g>
   </g>
   <g id="line2d_7">
    <path d="M 52.412766 16.483845 
L 52.547045 16.279762 
L 52.681323 16.497678 
L 52.94988 17.875551 
L 53.084159 18.304404 
L 53.352716 18.302527 
L 53.621273 19.699514 
L 53.889829 19.935996 
L 54.292665 19.981834 
L 55.904006 20.126229 
L 56.172563 20.417127 
L 56.575399 20.575468 
L 56.709677 20.743299 
L 57.381069 22.198904 
L 58.723854 23.417324 
L 59.529525 23.680388 
L 60.872309 23.807789 
L 61.006588 23.767593 
L 61.140866 23.8982 
L 61.543702 23.827508 
L 62.483651 23.864238 
L 65.16922 23.838459 
L 65.303498 23.679448 
L 65.437777 23.931268 
L 66.780561 23.915724 
L 66.91484 23.816347 
L 67.049118 22.164508 
L 67.317675 23.868492 
L 67.854789 23.997652 
L 69.331852 24.430902 
L 69.734687 24.693339 
L 70.003244 23.970852 
L 70.40608 25.514741 
L 70.808915 25.734235 
L 72.285978 25.93952 
L 72.420257 25.165856 
L 72.554535 25.262523 
L 72.688814 25.151228 
L 72.95737 25.987394 
L 75.777218 26.145437 
L 76.045775 23.985458 
L 76.180053 26.084777 
L 77.120003 26.138217 
L 78.731344 26.161134 
L 78.865623 25.540635 
L 78.999901 23.481756 
L 79.268458 25.828018 
L 79.402736 25.890829 
L 79.537015 26.119034 
L 79.805572 26.179698 
L 80.745521 26.086051 
L 80.879799 24.286952 
L 81.014078 26.106627 
L 81.148356 25.787014 
L 81.282635 26.09707 
L 81.551192 25.597084 
L 81.68547 24.402335 
L 81.819749 25.860034 
L 81.954027 25.706032 
L 82.088306 26.193498 
L 82.222584 26.093293 
L 82.356862 25.344365 
L 82.491141 23.906652 
L 82.759698 26.062663 
L 82.893976 26.006539 
L 83.028255 26.200323 
L 83.162533 26.03344 
L 83.296812 24.788345 
L 83.43109 25.778542 
L 83.565369 25.566549 
L 83.833925 26.194424 
L 84.102482 26.210636 
L 84.236761 25.324795 
L 84.371039 23.326478 
L 84.505318 26.125395 
L 84.639596 25.66147 
L 84.773875 25.758172 
L 84.908153 26.172427 
L 85.848102 26.19697 
L 85.982381 26.097423 
L 86.116659 24.330917 
L 86.385216 26.200646 
L 87.325165 26.127085 
L 87.459444 25.472404 
L 87.593722 23.347213 
L 87.862279 25.806032 
L 87.996558 26.213826 
L 88.130836 26.127955 
L 88.265115 26.211407 
L 88.399393 26.134976 
L 88.533672 25.856537 
L 88.66795 24.095013 
L 88.802228 26.059037 
L 88.936507 25.733218 
L 89.070785 25.802564 
L 89.339342 26.202505 
L 89.473621 26.068308 
L 89.742178 24.745647 
L 90.010735 26.113044 
L 90.145013 26.096656 
L 90.279291 25.891919 
L 90.547848 25.224135 
L 90.682127 26.225029 
L 90.816405 25.986828 
L 91.084962 24.543798 
L 91.219241 26.096247 
L 91.353519 25.869905 
L 91.487798 26.247623 
L 91.622076 26.240564 
L 91.756355 26.041305 
L 91.890633 23.335143 
L 92.024911 25.302867 
L 92.15919 25.57012 
L 92.427747 26.331725 
L 92.562025 26.197087 
L 92.696304 26.316427 
L 92.830582 25.852035 
L 92.964861 23.31432 
L 93.367696 26.473931 
L 93.501974 26.370396 
L 93.770531 25.044332 
L 94.039088 26.722551 
L 94.307645 26.910184 
L 94.441924 23.982308 
L 94.710481 26.718907 
L 94.844759 27.77888 
L 94.979037 27.403429 
L 95.113316 26.448975 
L 95.381873 26.851928 
L 95.516151 27.934689 
L 95.65043 27.179652 
L 95.784708 25.225634 
L 96.053265 28.085204 
L 96.187544 27.541055 
L 96.321822 25.312438 
L 96.456101 28.149596 
L 96.724657 27.713164 
L 96.858936 25.989748 
L 96.993214 27.699236 
L 97.127493 27.022825 
L 97.261771 28.516431 
L 97.39605 27.690307 
L 97.530328 23.856413 
L 97.933164 28.166097 
L 98.067442 28.329517 
L 98.20172 28.704081 
L 98.335999 28.645984 
L 98.470277 25.325513 
L 98.604556 27.957654 
L 98.873113 28.750573 
L 99.007391 28.408091 
L 99.14167 28.790272 
L 99.275948 28.260207 
L 99.410227 26.015941 
L 99.544505 28.765964 
L 99.678784 27.417264 
L 99.813062 27.252606 
L 99.94734 28.01872 
L 100.081619 27.585825 
L 100.215897 25.010507 
L 100.350176 28.421104 
L 100.484454 27.36988 
L 100.753011 28.869914 
L 100.88729 28.938117 
L 101.021568 26.163349 
L 101.155847 26.194964 
L 101.290125 27.035777 
L 101.424403 27.065323 
L 101.69296 28.53487 
L 101.827239 28.954977 
L 101.961517 28.986725 
L 102.095796 28.285226 
L 102.230074 25.686916 
L 102.364353 28.132367 
L 102.498631 28.342934 
L 102.63291 28.999843 
L 102.901466 25.619584 
L 103.170023 29.092484 
L 103.304302 28.652721 
L 103.43858 29.214632 
L 103.572859 29.231292 
L 103.707137 25.572292 
L 103.841416 28.656416 
L 103.975694 27.062845 
L 104.244251 28.929703 
L 104.37853 28.942178 
L 104.512808 26.151803 
L 104.647086 27.638132 
L 104.781365 27.24646 
L 104.915643 29.217252 
L 105.049922 28.711021 
L 105.1842 26.835199 
L 105.318479 27.244181 
L 105.452757 28.973219 
L 105.587036 28.085215 
L 105.721314 24.196193 
L 105.989871 28.121275 
L 106.124149 28.191266 
L 106.258428 28.716578 
L 106.392706 28.529814 
L 106.526985 25.070565 
L 106.661263 28.94616 
L 106.795542 27.684446 
L 107.064099 28.743961 
L 107.198377 28.878514 
L 107.332656 28.233072 
L 107.466934 24.860679 
L 107.601213 29.344529 
L 107.735491 27.82585 
L 107.869769 28.734208 
L 108.004048 27.672396 
L 108.138326 27.59048 
L 108.272605 27.782958 
L 108.406883 26.620064 
L 108.541162 26.474103 
L 108.67544 29.363193 
L 108.943997 25.733293 
L 109.078276 28.694129 
L 109.346832 25.553792 
L 109.481111 29.307223 
L 109.615389 27.487375 
L 109.883946 29.364721 
L 110.018225 28.892806 
L 110.152503 25.086836 
L 110.42106 28.435819 
L 110.689617 29.358488 
L 110.823895 28.842272 
L 110.958174 29.454828 
L 111.092452 29.336339 
L 111.361009 26.246119 
L 111.495288 29.142466 
L 111.629566 28.455086 
L 111.763845 25.647979 
L 111.898123 28.075329 
L 112.032402 27.711197 
L 112.16668 29.106864 
L 112.300959 29.341689 
L 112.435237 27.995365 
L 112.569515 24.017519 
L 112.703794 27.840152 
L 112.838072 27.211232 
L 112.972351 28.788375 
L 113.106629 28.106321 
L 113.240908 29.409505 
L 113.375186 29.076695 
L 113.643743 25.634434 
L 113.9123 28.17048 
L 114.046578 29.107495 
L 114.180857 28.477182 
L 114.315135 25.837389 
L 114.449414 28.291428 
L 114.583692 27.321003 
L 114.852249 29.255928 
L 114.986528 28.091028 
L 115.120806 24.291275 
L 115.389363 29.025879 
L 115.792198 27.185517 
L 115.926477 27.293638 
L 116.195034 28.778137 
L 116.329312 26.453212 
L 116.463591 26.133324 
L 116.597869 26.85012 
L 116.732148 29.265941 
L 116.866426 28.513565 
L 117.000705 28.565395 
L 117.134983 27.830632 
L 117.269261 25.766848 
L 117.40354 28.336515 
L 117.672097 27.202998 
L 117.806375 27.340199 
L 117.940654 28.195359 
L 118.074932 27.73408 
L 118.209211 23.272543 
L 118.477768 28.485826 
L 118.612046 29.025675 
L 118.880603 29.008846 
L 119.014881 28.310032 
L 119.14916 25.996388 
L 119.283438 29.292085 
L 119.417717 27.718683 
L 119.686274 29.519264 
L 121.163337 29.80027 
L 121.566172 30.096306 
L 122.103286 30.583433 
L 122.506121 31.988954 
L 122.774678 32.390118 
L 123.043235 32.965796 
L 123.177514 33.110355 
L 123.446071 33.764531 
L 123.580349 33.655847 
L 123.848906 34.186202 
L 124.654577 34.824148 
L 124.923134 35.027434 
L 126.13164 36.037573 
L 126.803032 36.221521 
L 127.474424 36.314094 
L 128.951487 36.490153 
L 129.62288 36.618839 
L 130.562829 36.772511 
L 130.965664 36.898135 
L 132.442727 37.104221 
L 133.785512 37.237456 
L 135.933967 37.627143 
L 136.739638 37.715292 
L 138.082422 37.853509 
L 142.513612 38.246022 
L 144.796345 38.505209 
L 145.467738 38.597372 
L 150.167484 39.980406 
L 150.301762 39.770844 
L 150.436041 40.050095 
L 150.973154 40.190933 
L 152.450217 40.40896 
L 154.061559 40.707023 
L 154.330116 40.850978 
L 154.732951 41.04821 
L 155.270065 41.298656 
L 155.941457 41.476272 
L 156.61285 41.681682 
L 157.821356 42.378328 
L 159.701254 42.685401 
L 160.238368 42.766741 
L 165.072392 43.892686 
L 166.14662 44.083968 
L 171.249201 44.872397 
L 175.546112 45.731492 
L 176.083226 45.86002 
L 179.305909 46.26278 
L 181.320086 46.377093 
L 181.722921 46.533929 
L 183.199984 46.494088 
L 183.60282 46.529669 
L 184.059366 46.529799 
L 184.059366 46.529799 
" clip-path="url(#p0d3b9eb04c)" style="fill: none; stroke: #0000ff; stroke-width: 1.5; stroke-linecap: square"/>
   </g>
   <g id="line2d_8">
    <path d="M 52.412766 29.473153 
L 52.547045 14.715578 
L 52.815602 21.38085 
L 52.94988 23.519842 
L 53.084159 21.022995 
L 53.218437 21.462527 
L 53.352716 22.318713 
L 53.486994 22.378097 
L 53.621273 24.51933 
L 53.755551 23.612112 
L 53.889829 23.816182 
L 54.024108 23.706241 
L 54.426943 23.955163 
L 55.232614 23.958479 
L 55.635449 24.056787 
L 55.769728 24.416338 
L 56.038285 25.657198 
L 56.172563 25.375848 
L 56.306842 25.357542 
L 56.575399 25.49592 
L 56.709677 25.489537 
L 57.381069 27.214501 
L 57.649626 28.474771 
L 58.052462 28.40003 
L 58.455297 29.39973 
L 58.992411 29.966862 
L 59.798082 29.999142 
L 60.872309 29.94752 
L 61.006588 30.425933 
L 61.140866 27.672825 
L 61.409423 30.528073 
L 61.67798 29.76796 
L 62.080815 29.88292 
L 62.349372 29.91077 
L 63.020765 29.822018 
L 63.155043 29.043901 
L 63.289321 29.728133 
L 63.4236 28.95604 
L 63.692157 29.470475 
L 63.960714 30.047891 
L 64.094992 29.804251 
L 64.497828 29.869178 
L 64.900663 29.794228 
L 65.034941 29.479785 
L 65.16922 27.096741 
L 65.303498 31.114386 
L 65.437777 29.178029 
L 65.572055 29.337725 
L 65.706334 30.275926 
L 65.840612 29.875336 
L 66.377726 29.949654 
L 66.780561 30.226721 
L 66.91484 30.916538 
L 67.049118 28.291189 
L 67.317675 30.537454 
L 67.451954 30.464514 
L 67.586232 30.437918 
L 67.989067 30.838186 
L 68.794738 30.486366 
L 69.331852 30.852499 
L 69.600409 31.179966 
L 69.734687 31.769458 
L 69.868966 34.785526 
L 70.003244 32.346918 
L 70.271801 35.479422 
L 70.540358 32.814781 
L 70.674637 32.3536 
L 70.808915 32.413208 
L 70.943194 32.669666 
L 71.077472 32.614653 
L 71.21175 32.439105 
L 71.346029 32.478476 
L 71.748864 32.371947 
L 72.1517 32.457733 
L 72.285978 32.695634 
L 72.420257 35.781051 
L 72.554535 33.86614 
L 72.688814 35.94699 
L 72.95737 32.20053 
L 73.091649 32.037715 
L 73.360206 32.180654 
L 73.628763 32.37827 
L 73.89732 32.281128 
L 74.165877 32.182186 
L 75.105826 32.239408 
L 75.64294 32.266332 
L 75.777218 31.96805 
L 75.911496 28.332894 
L 76.180053 32.648975 
L 76.582889 31.774264 
L 76.717167 31.712245 
L 77.254281 32.523233 
L 77.38856 32.393003 
L 77.925673 32.478592 
L 78.597066 32.517416 
L 78.731344 32.670874 
L 78.999901 30.356369 
L 79.134179 33.742433 
L 79.268458 30.736567 
L 79.402736 30.749522 
L 79.537015 32.939895 
L 79.671293 33.20342 
L 79.805572 32.058037 
L 79.93985 32.623184 
L 80.074129 32.489218 
L 80.208407 32.536393 
L 80.342686 32.424989 
L 80.611243 32.585067 
L 80.745521 30.968171 
L 81.014078 33.008576 
L 81.148356 30.576093 
L 81.416913 34.358751 
L 81.551192 35.292754 
L 81.68547 33.08501 
L 81.819749 34.42923 
L 81.954027 30.291685 
L 82.222584 33.438596 
L 82.356862 32.604651 
L 82.491141 32.496749 
L 82.625419 29.820978 
L 82.759698 33.619765 
L 82.893976 33.877496 
L 83.296812 29.150756 
L 83.43109 30.513919 
L 83.565369 35.464593 
L 83.833925 32.785216 
L 84.102482 32.548357 
L 84.236761 32.896428 
L 84.371039 31.271709 
L 84.505318 31.610361 
L 84.639596 30.563983 
L 84.773875 33.955965 
L 84.908153 31.846377 
L 85.042432 32.71167 
L 85.17671 32.352239 
L 85.310989 32.645187 
L 85.445267 32.291954 
L 85.848102 32.702371 
L 85.982381 33.327151 
L 86.116659 33.272967 
L 86.250938 34.238501 
L 86.385216 32.290776 
L 86.519495 32.5722 
L 86.653773 32.431587 
L 86.788052 33.255943 
L 86.92233 31.957149 
L 87.325165 33.25769 
L 87.459444 34.848187 
L 87.728001 29.662069 
L 87.862279 34.298225 
L 88.130836 31.561504 
L 88.533672 34.152686 
L 88.66795 32.621634 
L 88.802228 33.530981 
L 88.936507 30.698909 
L 89.070785 34.269827 
L 89.742178 29.41545 
L 89.876456 34.186169 
L 90.010735 33.351763 
L 90.279291 30.970522 
L 90.41357 30.142087 
L 90.547848 30.008852 
L 90.816405 33.488564 
L 90.950684 33.148175 
L 91.219241 31.614905 
L 91.353519 31.064706 
L 91.622076 32.63577 
L 91.756355 32.979362 
L 91.890633 29.5788 
L 92.024911 30.442211 
L 92.15919 32.522201 
L 92.293468 31.571987 
L 92.427747 32.452535 
L 92.696304 32.379979 
L 92.830582 31.451259 
L 92.964861 28.059217 
L 93.367696 32.363238 
L 93.501974 32.418353 
L 93.90481 29.858298 
L 94.039088 33.94353 
L 94.173367 34.018675 
L 94.307645 34.24948 
L 94.441924 28.934613 
L 94.576202 29.596755 
L 94.710481 35.030108 
L 94.844759 33.941257 
L 95.113316 30.097199 
L 95.247594 30.866603 
L 95.381873 33.93505 
L 95.516151 33.167089 
L 95.784708 28.699332 
L 95.918987 35.926234 
L 96.053265 36.052676 
L 96.321822 28.667433 
L 96.456101 36.223811 
L 96.590379 36.55472 
L 96.858936 29.522162 
L 97.261771 38.118781 
L 97.530328 27.713158 
L 97.664607 34.140139 
L 97.798885 33.269603 
L 97.933164 41.839384 
L 98.067442 33.837378 
L 98.20172 36.403095 
L 98.335999 35.240261 
L 98.470277 28.526655 
L 98.604556 37.37035 
L 98.738834 34.122447 
L 98.873113 38.893837 
L 99.007391 38.884178 
L 99.410227 29.825604 
L 99.544505 36.276176 
L 99.678784 33.878322 
L 99.813062 34.523989 
L 99.94734 36.212175 
L 100.081619 34.321965 
L 100.215897 30.479786 
L 100.350176 39.547925 
L 100.484454 31.482534 
L 100.618733 37.15563 
L 100.753011 36.294042 
L 100.88729 36.899661 
L 101.021568 28.519246 
L 101.155847 33.73758 
L 101.290125 33.818185 
L 101.424403 37.212537 
L 101.558682 33.74843 
L 101.69296 37.578282 
L 101.961517 35.250827 
L 102.230074 29.938701 
L 102.364353 36.405728 
L 102.498631 36.601677 
L 102.63291 35.521774 
L 102.901466 29.803892 
L 103.170023 37.154459 
L 103.304302 33.01953 
L 103.43858 36.129707 
L 103.572859 34.38945 
L 103.707137 29.702071 
L 103.975694 34.576364 
L 104.109973 33.480301 
L 104.244251 35.359432 
L 104.512808 30.075092 
L 104.915643 38.741013 
L 105.1842 30.987795 
L 105.318479 32.341656 
L 105.452757 38.076863 
L 105.721314 30.145981 
L 105.855593 35.549987 
L 105.989871 35.065112 
L 106.124149 37.014469 
L 106.258428 37.174921 
L 106.392706 37.930474 
L 106.526985 31.385089 
L 106.661263 38.725677 
L 106.795542 32.053113 
L 106.92982 37.408317 
L 107.064099 34.002701 
L 107.198377 39.455856 
L 107.466934 31.21892 
L 107.601213 37.220916 
L 107.735491 32.226029 
L 107.869769 40.580606 
L 108.004048 33.149493 
L 108.138326 37.503046 
L 108.406883 33.013299 
L 108.541162 33.690626 
L 108.67544 37.577685 
L 108.809719 31.433326 
L 108.943997 30.436691 
L 109.078276 35.798036 
L 109.346832 32.829256 
L 109.481111 36.85395 
L 109.615389 30.979826 
L 110.018225 42.025317 
L 110.152503 30.685762 
L 110.42106 39.95258 
L 110.555339 35.729593 
L 110.689617 36.395107 
L 110.823895 40.552686 
L 111.226731 30.062317 
L 111.361009 30.82496 
L 111.495288 39.679468 
L 111.629566 40.097031 
L 111.763845 33.310657 
L 111.898123 37.693084 
L 112.032402 33.085791 
L 112.16668 34.6494 
L 112.300959 38.774828 
L 112.435237 39.419677 
L 112.569515 30.396274 
L 112.703794 34.041431 
L 112.838072 31.280348 
L 112.972351 36.897691 
L 113.106629 35.652393 
L 113.240908 36.65962 
L 113.643743 29.974862 
L 113.9123 39.778879 
L 114.315135 30.491473 
L 114.717971 40.357128 
L 115.120806 28.566763 
L 115.389363 38.855321 
L 115.523642 33.2381 
L 115.65792 33.012222 
L 115.792198 32.29172 
L 115.926477 32.386461 
L 116.195034 34.040104 
L 116.329312 31.004784 
L 116.463591 30.518935 
L 116.597869 34.812994 
L 116.732148 35.456554 
L 117.269261 30.453005 
L 117.537818 36.299074 
L 117.672097 34.580849 
L 117.940654 39.502391 
L 118.209211 28.916386 
L 118.612046 40.579754 
L 118.746325 35.209359 
L 118.880603 35.795061 
L 119.14916 30.531304 
L 119.417717 36.324232 
L 119.551995 39.223216 
L 119.551995 39.223216 
L 119.686274 37.223382 
L 119.820552 36.988497 
L 119.954831 36.506202 
L 120.223388 36.504616 
L 120.491944 36.88861 
L 120.626223 36.827564 
L 120.760501 36.529856 
L 120.89478 36.576988 
L 121.029058 37.272654 
L 121.163337 36.885938 
L 121.431894 36.729023 
L 121.566172 37.072206 
L 121.700451 36.448396 
L 121.969007 37.335644 
L 122.103286 37.763983 
L 122.237564 39.878538 
L 122.371843 37.456325 
L 122.506121 37.13197 
L 122.774678 37.840718 
L 123.043235 38.646114 
L 123.311792 44.087385 
L 123.446071 44.338649 
L 123.580349 41.178818 
L 123.714627 45.484935 
L 123.848906 45.699339 
L 124.117463 47.264565 
L 124.251741 46.309093 
L 124.38602 51.037758 
L 124.520298 48.141541 
L 124.654577 50.455699 
L 124.788855 47.315496 
L 124.923134 47.452031 
L 125.057412 45.938725 
L 125.19169 46.295501 
L 125.325969 46.322304 
L 125.460247 45.488723 
L 125.594526 43.325528 
L 125.728804 43.23802 
L 125.863083 42.854154 
L 125.997361 42.850603 
L 126.13164 43.304645 
L 126.265918 42.932172 
L 126.400197 43.233433 
L 126.534475 43.864681 
L 126.668754 43.898245 
L 126.803032 43.468647 
L 126.93731 44.109275 
L 127.608703 44.499433 
L 127.87726 44.039925 
L 128.011538 43.854878 
L 128.145817 43.893246 
L 128.280095 43.762605 
L 128.548652 43.869684 
L 128.68293 43.561794 
L 128.951487 43.461797 
L 129.891436 42.717368 
L 130.025715 42.941851 
L 130.294272 43.762618 
L 130.42855 43.96761 
L 130.562829 43.632676 
L 130.697107 42.804604 
L 131.099943 42.740228 
L 131.502778 43.38534 
L 131.771335 42.880676 
L 132.17417 43.917541 
L 132.308449 44.141968 
L 132.442727 43.950534 
L 132.577006 44.232056 
L 132.845563 45.303982 
L 132.979841 44.832226 
L 133.114119 45.266096 
L 133.248398 44.813542 
L 133.382676 44.808145 
L 133.516955 44.916784 
L 133.651233 45.661608 
L 133.91979 45.290836 
L 134.054069 45.417808 
L 134.456904 46.542788 
L 134.725461 48.13386 
L 134.859739 48.516556 
L 134.994018 48.527288 
L 135.128296 48.304595 
L 135.66541 45.724079 
L 135.799689 46.407565 
L 135.933967 46.22987 
L 136.068246 46.324456 
L 136.471081 46.039691 
L 136.605359 46.171424 
L 136.873916 46.868391 
L 137.008195 46.81921 
L 137.41103 46.156429 
L 137.679587 45.182602 
L 137.813866 44.961532 
L 138.082422 45.230982 
L 138.619536 46.163759 
L 139.290929 45.800495 
L 139.425207 45.81762 
L 139.559485 45.985838 
L 139.962321 44.724872 
L 140.230878 44.933314 
L 140.365156 44.736336 
L 140.499435 44.762597 
L 141.170827 46.084173 
L 141.305105 46.548814 
L 141.439384 46.455296 
L 141.573662 46.214778 
L 141.707941 46.231724 
L 141.976498 46.101865 
L 142.110776 46.316006 
L 142.245055 45.902991 
L 142.513612 46.557465 
L 142.64789 46.235883 
L 142.782168 46.352695 
L 142.916447 47.165963 
L 143.319282 46.703193 
L 143.722118 46.775897 
L 144.124953 46.304936 
L 144.259231 46.583492 
L 144.39351 46.545636 
L 145.199181 47.536705 
L 145.333459 47.358833 
L 145.736295 48.538432 
L 145.870573 48.63252 
L 146.004851 48.136778 
L 146.13913 49.683802 
L 146.273408 49.023274 
L 146.407687 49.439562 
L 146.676244 48.529713 
L 146.810522 49.746065 
L 147.079079 49.594475 
L 147.347636 50.528523 
L 147.481914 51.187359 
L 147.616193 49.887029 
L 147.750471 51.467323 
L 147.88475 50.50496 
L 148.019028 50.70908 
L 148.153307 49.317363 
L 148.287585 49.35539 
L 148.690421 51.268844 
L 148.824699 51.072453 
L 148.958977 50.420875 
L 149.093256 50.639607 
L 149.227534 50.568214 
L 149.361813 50.726752 
L 149.496091 50.223945 
L 149.63037 50.224099 
L 149.764648 49.885148 
L 150.033205 50.249546 
L 150.167484 51.042868 
L 150.301762 47.506667 
L 150.436041 51.14973 
L 150.570319 51.2687 
L 150.704597 52.041114 
L 150.838876 51.66687 
L 150.973154 52.764908 
L 151.37599 52.166049 
L 151.510268 52.228469 
L 151.644547 51.343263 
L 151.913104 51.89668 
L 152.047382 51.479701 
L 152.18166 51.759634 
L 152.315939 52.808127 
L 152.584496 51.618429 
L 152.718774 52.293841 
L 152.853053 52.393659 
L 152.987331 52.110962 
L 153.255888 52.531502 
L 153.658724 50.485757 
L 153.793002 50.390792 
L 153.92728 50.133257 
L 154.061559 49.480914 
L 154.195837 52.115754 
L 154.330116 51.594978 
L 154.464394 52.66675 
L 154.732951 52.021139 
L 154.86723 51.377504 
L 155.001508 51.653695 
L 155.135787 52.693041 
L 155.270065 51.828825 
L 155.404343 52.723356 
L 155.538622 52.525939 
L 155.6729 52.770951 
L 155.807179 52.782372 
L 156.075736 52.483645 
L 156.344293 53.547817 
L 156.478571 52.668427 
L 156.61285 53.012387 
L 156.747128 54.253013 
L 156.881406 52.578542 
L 157.015685 57.132977 
L 157.149963 56.921441 
L 157.284242 58.519258 
L 157.41852 57.827575 
L 157.552799 58.620663 
L 157.687077 60.977351 
L 157.821356 60.102845 
L 158.089913 56.658753 
L 158.224191 58.624804 
L 158.35847 58.194766 
L 158.492748 59.423347 
L 158.627026 59.586902 
L 158.895583 61.524036 
L 159.029862 57.795242 
L 159.298419 58.853764 
L 159.432697 58.875074 
L 159.566976 60.832869 
L 159.835533 58.569142 
L 159.969811 57.276447 
L 160.104089 57.223681 
L 160.238368 57.82738 
L 160.372646 59.819691 
L 160.506925 59.852512 
L 160.641203 58.726559 
L 161.044039 60.339312 
L 161.178317 59.994437 
L 161.312596 60.800966 
L 161.446874 58.709287 
L 161.581153 61.172113 
L 161.715431 59.574492 
L 161.983988 59.18953 
L 162.118266 61.01591 
L 162.386823 57.740844 
L 162.521102 62.800552 
L 162.65538 59.623309 
L 162.789659 67.308272 
L 162.923937 66.786845 
L 163.192494 63.665992 
L 163.326772 61.922209 
L 163.461051 62.889081 
L 163.863886 59.564665 
L 163.998165 63.7458 
L 164.132443 59.722412 
L 164.266722 60.756449 
L 164.401 60.310299 
L 164.535279 63.724678 
L 164.669557 62.157284 
L 164.803836 62.931326 
L 164.938114 65.302827 
L 165.206671 62.576036 
L 165.609506 66.711888 
L 165.743785 65.738452 
L 165.878063 65.957202 
L 166.012342 66.860032 
L 166.14662 66.607029 
L 166.415177 61.248811 
L 166.683734 64.76292 
L 166.818012 62.309949 
L 166.952291 64.956838 
L 167.086569 64.890641 
L 167.220848 65.717186 
L 167.355126 63.357638 
L 167.489405 64.60979 
L 167.623683 62.194136 
L 167.757962 64.007414 
L 167.89224 62.722713 
L 168.026518 62.897552 
L 168.160797 62.706466 
L 168.295075 64.516385 
L 168.429354 63.633118 
L 168.563632 65.127873 
L 168.966468 63.273885 
L 169.235025 65.815924 
L 169.503582 62.946356 
L 169.63786 67.226483 
L 169.772138 66.270274 
L 169.906417 68.216227 
L 170.309252 60.169843 
L 170.443531 63.664019 
L 170.577809 62.968834 
L 170.712088 69.114988 
L 170.846366 58.542222 
L 170.980645 63.830717 
L 171.114923 64.073465 
L 171.249201 67.070183 
L 171.517758 63.764624 
L 171.652037 68.215632 
L 171.786315 67.868951 
L 172.054872 62.681315 
L 172.189151 64.761484 
L 172.323429 63.454144 
L 172.591986 64.42828 
L 172.726265 63.977467 
L 172.860543 66.501191 
L 172.994821 64.0517 
L 173.1291 69.060627 
L 173.263378 64.615136 
L 173.397657 64.093033 
L 173.531935 64.538067 
L 173.800492 65.92504 
L 173.934771 63.223708 
L 174.069049 66.591572 
L 174.203328 65.22341 
L 174.337606 66.942256 
L 174.471884 65.136938 
L 174.606163 66.405469 
L 174.740441 62.057533 
L 174.87472 63.13508 
L 175.008998 61.396721 
L 175.143277 65.394038 
L 175.277555 64.264923 
L 175.411834 65.951061 
L 175.546112 64.725409 
L 175.680391 64.930417 
L 175.814669 62.291381 
L 175.948947 62.527229 
L 176.083226 62.243959 
L 176.351783 65.07022 
L 176.62034 64.542563 
L 176.754618 62.801195 
L 176.888897 64.870705 
L 177.023175 63.627278 
L 177.157454 66.423858 
L 177.426011 63.203667 
L 177.560289 63.428235 
L 177.694567 64.163731 
L 177.828846 64.193359 
L 177.963124 63.782481 
L 178.097403 62.071492 
L 178.231681 63.239825 
L 178.36596 62.429765 
L 178.500238 62.610474 
L 178.634517 60.674624 
L 178.903074 62.9379 
L 179.17163 61.616454 
L 179.440187 61.79128 
L 179.574466 62.514969 
L 179.708744 61.70528 
L 179.843023 63.776458 
L 179.977301 63.988654 
L 180.11158 62.381363 
L 180.380137 65.546527 
L 180.514415 65.42566 
L 180.648694 62.66382 
L 180.782972 69.049592 
L 180.91725 63.720241 
L 181.051529 64.592521 
L 181.185807 62.252095 
L 181.320086 63.572183 
L 181.454364 67.645227 
L 181.588643 64.886509 
L 181.722921 65.009722 
L 181.8572 66.316301 
L 181.991478 62.346343 
L 182.125757 64.946668 
L 182.260035 64.440304 
L 182.394313 72.739552 
L 182.528592 66.100957 
L 182.66287 65.416109 
L 182.797149 66.625001 
L 182.931427 75.250909 
L 183.199984 66.262825 
L 183.334263 66.364644 
L 183.468541 68.896688 
L 183.60282 67.392123 
L 183.737098 68.100571 
L 183.871377 67.350949 
L 184.059366 67.350949 
L 184.059366 67.350949 
" clip-path="url(#p0d3b9eb04c)" style="fill: none; stroke: #ff0000; stroke-width: 1.5; stroke-linecap: square"/>
   </g>
   <g id="line2d_9">
    <path d="M 52.412766 19.653977 
L 52.681323 31.60793 
L 52.815602 64.198517 
L 53.084159 38.180426 
L 53.218437 42.921884 
L 53.352716 40.458592 
L 53.486994 43.319376 
L 53.621273 42.530378 
L 53.755551 40.620356 
L 53.889829 40.448745 
L 54.024108 41.158612 
L 54.292665 40.940194 
L 54.561222 41.233116 
L 55.366892 41.26693 
L 55.904006 41.180643 
L 56.038285 41.051367 
L 56.306842 41.344687 
L 56.575399 41.110172 
L 56.709677 41.256656 
L 56.978234 42.054707 
L 57.112512 41.660459 
L 57.246791 41.808685 
L 57.381069 41.389316 
L 57.649626 41.455881 
L 57.918183 41.455368 
L 58.589575 41.503849 
L 59.260968 41.522128 
L 60.872309 41.504324 
L 61.006588 41.402403 
L 61.140866 42.081278 
L 61.409423 41.281823 
L 61.67798 41.549016 
L 63.020765 41.492324 
L 63.155043 41.664024 
L 63.289321 41.610741 
L 63.4236 41.928108 
L 63.960714 41.400336 
L 64.229271 41.464974 
L 64.900663 41.485755 
L 65.034941 41.620345 
L 65.16922 43.082475 
L 65.303498 40.508101 
L 65.437777 41.906595 
L 65.572055 41.791619 
L 65.706334 41.217622 
L 65.840612 41.475223 
L 66.646283 41.446446 
L 66.780561 41.398606 
L 66.91484 40.724258 
L 67.049118 37.586779 
L 67.451954 41.827427 
L 67.586232 42.038496 
L 67.989067 41.580383 
L 69.600409 41.449539 
L 69.734687 41.587209 
L 70.003244 44.346966 
L 70.540358 41.354235 
L 70.674637 41.266275 
L 71.077472 41.523691 
L 71.346029 41.501602 
L 72.1517 41.501904 
L 72.285978 41.597313 
L 72.420257 43.267266 
L 72.554535 42.555156 
L 72.688814 43.037656 
L 72.95737 41.28172 
L 73.091649 41.112144 
L 73.628763 41.485109 
L 74.031598 41.449411 
L 75.64294 41.439925 
L 75.777218 41.276634 
L 75.911496 38.779871 
L 76.045775 45.453973 
L 76.180053 41.440394 
L 76.314332 41.021656 
L 76.717167 41.02755 
L 76.985724 41.300971 
L 77.254281 41.445273 
L 77.522838 41.407388 
L 78.462787 41.436882 
L 78.731344 41.520977 
L 78.865623 42.91005 
L 78.999901 46.630341 
L 79.268458 40.174692 
L 79.402736 40.275935 
L 79.537015 41.688501 
L 79.671293 41.779618 
L 79.805572 41.14583 
L 79.93985 41.472111 
L 80.342686 41.3765 
L 80.611243 41.456736 
L 80.745521 41.828383 
L 80.879799 45.09831 
L 81.148356 40.101984 
L 81.416913 42.395292 
L 81.551192 42.922967 
L 81.68547 44.960648 
L 81.954027 39.975544 
L 82.356862 43.342932 
L 82.491141 45.982838 
L 82.625419 39.562312 
L 82.759698 41.99289 
L 82.893976 42.152906 
L 83.296812 38.979168 
L 83.43109 40.063607 
L 83.565369 42.982307 
L 83.833925 41.548251 
L 84.102482 41.463047 
L 84.236761 43.388626 
L 84.371039 47.487442 
L 84.505318 41.032175 
L 84.639596 39.976225 
L 84.773875 42.663111 
L 84.908153 40.958578 
L 85.042432 41.587429 
L 85.17671 41.335971 
L 85.310989 41.562797 
L 85.445267 41.314412 
L 85.982381 41.967582 
L 86.116659 45.23481 
L 86.385216 41.126707 
L 86.653773 41.296562 
L 86.788052 41.869558 
L 86.92233 41.020111 
L 87.325165 41.884457 
L 87.459444 43.234017 
L 87.593722 47.53794 
L 87.728001 39.208544 
L 87.862279 42.598029 
L 88.130836 40.7521 
L 88.533672 42.548866 
L 88.66795 45.758514 
L 88.936507 39.99183 
L 89.070785 42.6518 
L 89.742178 38.910379 
L 89.876456 43.103727 
L 90.279291 40.264717 
L 90.547848 39.410127 
L 90.950684 43.758655 
L 91.084962 44.827452 
L 91.219241 40.597795 
L 91.353519 40.207557 
L 91.622076 41.621922 
L 91.756355 42.295508 
L 91.890633 47.582262 
L 92.024911 39.416314 
L 92.15919 43.021374 
L 92.293468 40.534503 
L 92.562025 42.153232 
L 92.696304 41.911654 
L 92.830582 42.91038 
L 92.964861 47.32983 
L 93.099139 38.822961 
L 93.233418 43.285035 
L 93.367696 40.572289 
L 93.501974 40.425368 
L 93.770531 39.163165 
L 93.90481 43.389028 
L 94.039088 40.41082 
L 94.307645 40.559714 
L 94.441924 38.527479 
L 94.576202 43.384235 
L 94.710481 40.346774 
L 95.113316 43.054188 
L 95.247594 42.840318 
L 95.381873 40.258633 
L 95.784708 44.211578 
L 95.918987 40.564035 
L 96.053265 41.099813 
L 96.321822 44.187275 
L 96.456101 41.137388 
L 96.590379 40.756147 
L 96.858936 43.678521 
L 97.127493 40.148312 
L 97.39605 42.411283 
L 97.530328 46.762988 
L 97.664607 39.201752 
L 97.798885 41.732518 
L 97.933164 40.668682 
L 98.067442 41.965704 
L 98.20172 41.632865 
L 98.335999 41.797192 
L 98.470277 44.596697 
L 98.604556 40.509661 
L 98.738834 42.097156 
L 99.007391 40.779522 
L 99.410227 44.119512 
L 99.678784 40.297156 
L 99.813062 40.053839 
L 100.081619 40.526734 
L 100.215897 38.709467 
L 100.484454 42.46878 
L 100.753011 41.306396 
L 100.88729 41.637634 
L 101.021568 43.673859 
L 101.155847 41.396856 
L 101.290125 43.494642 
L 101.424403 39.720679 
L 101.558682 42.626374 
L 101.69296 40.850736 
L 101.827239 41.850022 
L 101.961517 41.753014 
L 102.095796 42.358184 
L 102.230074 44.906146 
L 102.364353 40.466747 
L 102.767188 42.861855 
L 102.901466 45.002349 
L 103.035745 39.719609 
L 103.304302 42.168143 
L 103.572859 41.579745 
L 103.707137 44.799969 
L 103.975694 40.443695 
L 104.244251 42.065779 
L 104.37853 42.012894 
L 104.512808 44.245753 
L 104.647086 42.945739 
L 104.781365 39.861793 
L 105.1842 43.61715 
L 105.318479 43.314562 
L 105.721314 38.152675 
L 105.855593 43.204074 
L 106.258428 40.897164 
L 106.392706 40.774487 
L 106.526985 38.679039 
L 106.795542 42.977734 
L 106.92982 40.464711 
L 107.064099 40.804457 
L 107.198377 40.82915 
L 107.332656 40.461117 
L 107.466934 38.439025 
L 107.735491 42.923568 
L 108.004048 40.237425 
L 108.138326 40.037561 
L 108.272605 40.149463 
L 108.541162 39.432873 
L 108.943997 44.967667 
L 109.078276 41.15616 
L 109.212554 40.663669 
L 109.346832 38.820382 
L 109.615389 43.120988 
L 110.018225 40.804787 
L 110.152503 38.840967 
L 110.42106 41.383849 
L 110.555339 41.390242 
L 110.689617 41.763149 
L 110.823895 40.879078 
L 111.092452 41.761061 
L 111.226731 43.37821 
L 111.361009 43.571874 
L 111.629566 40.524102 
L 111.763845 38.789262 
L 112.032402 43.137654 
L 112.569515 37.896077 
L 112.703794 42.362195 
L 112.838072 42.625616 
L 113.106629 40.466815 
L 113.643743 44.452127 
L 113.778022 40.115208 
L 113.9123 40.436779 
L 114.315135 44.588085 
L 114.583692 39.769982 
L 114.986528 42.858712 
L 115.120806 46.425671 
L 115.255085 40.57704 
L 115.389363 40.742642 
L 115.65792 42.784382 
L 115.792198 42.98603 
L 115.926477 43.410813 
L 116.060755 42.299175 
L 116.195034 42.406426 
L 116.329312 44.084076 
L 116.463591 44.012091 
L 116.597869 39.718911 
L 116.866426 42.61642 
L 117.000705 42.399204 
L 117.269261 44.216008 
L 117.672097 39.902876 
L 117.806375 39.890216 
L 118.074932 40.885791 
L 118.209211 37.626279 
L 118.343489 43.408657 
L 118.477768 40.635669 
L 118.612046 40.929235 
L 118.746325 42.061691 
L 118.880603 41.845175 
L 119.014881 42.636521 
L 119.14916 44.427921 
L 119.417717 40.102779 
L 119.820552 41.466023 
L 120.491944 41.42282 
L 120.760501 41.44619 
L 121.834729 41.566107 
L 122.103286 41.420381 
L 122.237564 41.344063 
L 122.371843 41.633979 
L 122.6404 41.437669 
L 122.908957 41.413858 
L 123.177514 41.271042 
L 123.446071 41.384921 
L 123.580349 41.218876 
L 123.714627 41.381517 
L 123.983184 41.35954 
L 124.38602 41.591839 
L 125.19169 41.623055 
L 125.460247 41.697061 
L 125.594526 41.721273 
L 125.863083 41.576139 
L 126.534475 41.679441 
L 127.474424 41.657859 
L 131.771335 41.690216 
L 132.308449 41.711259 
L 133.91979 41.677303 
L 138.082422 41.593692 
L 139.425207 41.647165 
L 141.036548 41.57748 
L 150.838876 41.565493 
L 152.450217 41.568541 
L 154.86723 41.612802 
L 155.807179 41.606444 
L 184.059366 41.65721 
L 184.059366 41.65721 
" clip-path="url(#p0d3b9eb04c)" style="fill: none; stroke: #008000; stroke-width: 1.5; stroke-linecap: square"/>
   </g>
   <g id="line2d_10">
    <path d="M 52.412766 16.038783 
L 52.547045 13.869091 
L 52.815602 17.176738 
L 52.94988 17.72633 
L 53.218437 17.880811 
L 53.352716 17.995496 
L 53.621273 19.48377 
L 54.024108 19.639305 
L 55.098336 19.684414 
L 55.769728 19.776395 
L 56.172563 20.214211 
L 56.575399 20.369058 
L 56.709677 20.520317 
L 57.381069 22.000923 
L 57.783905 22.42853 
L 58.992411 23.42914 
L 59.798082 23.609555 
L 61.006588 23.672824 
L 61.140866 23.557029 
L 61.409423 23.689469 
L 62.349372 23.734288 
L 65.034941 23.770919 
L 65.16922 23.413375 
L 65.437777 23.75247 
L 66.780561 23.804781 
L 66.91484 23.738574 
L 67.049118 22.042994 
L 67.317675 23.773984 
L 68.123346 23.969509 
L 69.331852 24.325225 
L 69.734687 24.614709 
L 69.868966 24.421127 
L 70.003244 23.927875 
L 70.40608 25.469878 
L 70.943194 25.673122 
L 72.285978 25.848023 
L 72.420257 25.150217 
L 72.554535 25.223309 
L 72.688814 25.136761 
L 72.823092 25.810907 
L 73.225927 25.889843 
L 74.434433 25.974658 
L 75.777218 26.006021 
L 75.911496 24.100576 
L 76.045775 23.930515 
L 76.180053 25.984834 
L 78.731344 26.058727 
L 78.865623 25.3594 
L 78.999901 23.396355 
L 79.268458 25.618223 
L 79.402736 25.67644 
L 79.537015 26.030101 
L 80.208407 26.071988 
L 80.611243 26.077302 
L 80.745521 25.87497 
L 80.879799 24.222356 
L 81.014078 26.020886 
L 81.148356 25.565906 
L 81.282635 26.021453 
L 81.551192 25.573169 
L 81.68547 24.365024 
L 81.819749 25.819931 
L 81.954027 25.464319 
L 82.088306 26.045925 
L 82.222584 26.023178 
L 82.356862 25.272347 
L 82.491141 23.86779 
L 82.759698 25.998986 
L 82.893976 25.951368 
L 83.028255 26.051535 
L 83.162533 25.800063 
L 83.296812 24.521887 
L 83.43109 25.552143 
L 83.565369 25.544744 
L 83.833925 26.095664 
L 84.102482 26.099948 
L 84.236761 25.262316 
L 84.371039 23.274224 
L 84.505318 25.963199 
L 84.639596 25.451083 
L 85.042432 26.083209 
L 85.982381 26.023597 
L 86.116659 24.297826 
L 86.385216 26.076732 
L 87.190887 26.091979 
L 87.325165 26.049821 
L 87.459444 25.444896 
L 87.593722 23.290568 
L 87.862279 25.764608 
L 87.996558 26.106023 
L 88.130836 25.96175 
L 88.265115 26.106396 
L 88.399393 26.05658 
L 88.533672 25.811231 
L 88.66795 24.054981 
L 88.802228 25.992892 
L 88.936507 25.528516 
L 89.339342 26.062728 
L 89.473621 25.895647 
L 89.742178 24.512524 
L 90.010735 26.039494 
L 90.279291 25.697252 
L 90.547848 25.002453 
L 90.682127 26.100108 
L 90.816405 25.921758 
L 91.084962 24.479945 
L 91.219241 25.936059 
L 91.353519 25.684903 
L 91.487798 26.116195 
L 91.622076 26.132782 
L 91.756355 25.957329 
L 91.890633 23.221336 
L 92.15919 25.487125 
L 92.427747 26.209681 
L 92.562025 26.077791 
L 92.696304 26.191552 
L 92.830582 25.699071 
L 92.964861 23.091316 
L 93.367696 26.33752 
L 93.501974 26.243167 
L 93.770531 24.912469 
L 94.173367 26.714777 
L 94.307645 26.837601 
L 94.441924 23.776718 
L 94.710481 26.671126 
L 94.844759 27.657296 
L 94.979037 27.154867 
L 95.113316 26.088359 
L 95.381873 26.770338 
L 95.516151 27.752143 
L 95.65043 26.867809 
L 95.784708 24.837658 
L 96.053265 28.028655 
L 96.187544 27.270737 
L 96.321822 24.904367 
L 96.456101 28.095462 
L 96.724657 27.46697 
L 96.858936 25.611154 
L 96.993214 27.492741 
L 97.127493 26.957395 
L 97.261771 28.486738 
L 97.39605 27.42874 
L 97.530328 23.527447 
L 97.933164 28.156139 
L 98.067442 28.167415 
L 98.20172 28.640552 
L 98.335999 28.544516 
L 98.470277 24.890055 
L 98.604556 27.925051 
L 98.873113 28.725774 
L 99.007391 28.385245 
L 99.14167 28.711332 
L 99.275948 28.033652 
L 99.410227 25.679865 
L 99.544505 28.696916 
L 99.678784 27.309142 
L 99.813062 27.176111 
L 99.94734 27.96578 
L 100.081619 27.489962 
L 100.215897 24.845736 
L 100.350176 28.404505 
L 100.484454 27.073881 
L 100.753011 28.797239 
L 100.88729 28.88066 
L 101.021568 25.545404 
L 101.827239 28.886342 
L 101.961517 28.8687 
L 102.095796 27.933777 
L 102.230074 25.409657 
L 102.364353 28.080787 
L 102.498631 28.292331 
L 102.63291 28.89345 
L 102.901466 25.334056 
L 103.170023 29.03703 
L 103.304302 28.385831 
L 103.43858 29.124758 
L 103.572859 29.039526 
L 103.707137 25.279883 
L 103.841416 28.467975 
L 103.975694 26.995078 
L 104.244251 28.820673 
L 104.37853 28.640464 
L 104.512808 25.831812 
L 104.647086 27.423921 
L 104.781365 27.167617 
L 104.915643 29.184007 
L 105.049922 28.486433 
L 105.1842 26.54517 
L 105.318479 27.052444 
L 105.452757 28.934803 
L 105.587036 27.928391 
L 105.721314 24.063187 
L 105.989871 28.035843 
L 106.124149 28.150885 
L 106.258428 28.668163 
L 106.392706 28.496126 
L 106.526985 24.956805 
L 106.661263 28.915884 
L 106.795542 27.419731 
L 107.064099 28.559432 
L 107.198377 28.854968 
L 107.332656 28.111601 
L 107.466934 24.749032 
L 107.601213 29.28314 
L 107.735491 27.564602 
L 107.869769 28.717848 
L 108.004048 27.505857 
L 108.272605 27.724151 
L 108.406883 26.509102 
L 108.541162 26.396175 
L 108.67544 29.309632 
L 108.943997 25.505936 
L 109.078276 28.611065 
L 109.346832 25.478465 
L 109.481111 29.238205 
L 109.615389 27.101518 
L 109.883946 29.30496 
L 110.018225 28.879812 
L 110.152503 24.931273 
L 110.42106 28.420733 
L 110.689617 29.272859 
L 110.823895 28.825346 
L 110.958174 29.386533 
L 111.092452 29.132624 
L 111.361009 26.005568 
L 111.495288 29.119418 
L 111.629566 28.437982 
L 111.763845 25.583942 
L 111.898123 28.044303 
L 112.032402 27.541279 
L 112.300959 29.307146 
L 112.435237 27.977911 
L 112.569515 23.907348 
L 112.703794 27.721827 
L 112.838072 26.90983 
L 112.972351 28.732177 
L 113.106629 28.037022 
L 113.240908 29.329769 
L 113.375186 28.932956 
L 113.643743 25.367668 
L 113.9123 28.153903 
L 114.046578 29.037139 
L 114.180857 28.257495 
L 114.315135 25.604965 
L 114.449414 28.071969 
L 114.583692 27.291167 
L 114.852249 29.162468 
L 114.986528 27.871835 
L 115.120806 24.017053 
L 115.389363 28.99502 
L 115.792198 26.994374 
L 115.926477 27.101529 
L 116.195034 28.597561 
L 116.329312 26.20984 
L 116.463591 25.871624 
L 116.597869 26.793121 
L 116.732148 29.143193 
L 116.866426 28.376599 
L 117.000705 28.333503 
L 117.134983 27.606522 
L 117.269261 25.537644 
L 117.40354 28.19288 
L 117.537818 27.836908 
L 117.672097 27.12963 
L 117.806375 27.314748 
L 117.940654 28.177001 
L 118.074932 27.625045 
L 118.209211 23.120825 
L 118.477768 28.461488 
L 118.612046 29.007564 
L 118.746325 28.87413 
L 118.880603 28.914787 
L 119.014881 28.102496 
L 119.14916 25.751388 
L 119.283438 29.143585 
L 119.417717 27.673619 
L 119.686274 29.452865 
L 121.029058 29.639672 
L 121.700451 30.092147 
L 121.969007 30.409467 
L 122.103286 30.495998 
L 122.506121 31.778894 
L 122.774678 32.198805 
L 123.043235 32.778293 
L 123.848906 34.100992 
L 124.654577 34.7298 
L 124.923134 34.923219 
L 126.13164 35.823161 
L 127.340146 36.082136 
L 135.66541 37.216078 
L 136.605359 37.35209 
L 139.290929 37.529797 
L 141.036548 37.673087 
L 146.004851 38.269153 
L 148.958977 38.873673 
L 150.167484 39.145503 
L 150.301762 38.971496 
L 150.570319 39.195031 
L 153.92728 39.582595 
L 155.270065 39.955115 
L 156.210014 40.088697 
L 157.015685 40.284457 
L 157.687077 40.439063 
L 168.966468 41.111635 
L 173.263378 41.26406 
L 178.768795 41.370828 
L 184.059366 41.446492 
L 184.059366 41.446492 
" clip-path="url(#p0d3b9eb04c)" style="fill: none; stroke: #000000; stroke-width: 2; stroke-linecap: square"/>
   </g>
   <g id="patch_3">
    <path d="M 45.830436 78.32 
L 45.830436 10.8 
" style="fill: none; stroke: #000000; stroke-width: 0.8; stroke-linejoin: miter; stroke-linecap: square"/>
   </g>
   <g id="patch_4">
    <path d="M 45.830436 78.32 
L 190.641696 78.32 
" style="fill: none; stroke: #000000; stroke-width: 0.8; stroke-linejoin: miter; stroke-linecap: square"/>
   </g>
  </g>
 </g>
 <defs>
  <clipPath id="p0d3b9eb04c">
   <rect x="45.830436" y="10.8" width="144.81126" height="67.52"/>
  </clipPath>
 </defs>
</svg>
