<?xml version="1.0" encoding="utf-8" standalone="no"?>
<!DOCTYPE svg PUBLIC "-//W3C//DTD SVG 1.1//EN"
  "http://www.w3.org/Graphics/SVG/1.1/DTD/svg11.dtd">
<svg xmlns:xlink="http://www.w3.org/1999/xlink" width="360pt" height="108pt" viewBox="0 0 360 108" xmlns="http://www.w3.org/2000/svg" version="1.1">
 <metadata>
  <rdf:RDF xmlns:dc="http://purl.org/dc/elements/1.1/" xmlns:cc="http://creativecommons.org/ns#" xmlns:rdf="http://www.w3.org/1999/02/22-rdf-syntax-ns#">
   <cc:Work>
    <dc:type rdf:resource="http://purl.org/dc/dcmitype/StillImage"/>
    <dc:date>2023-07-28T22:45:18.393981</dc:date>
    <dc:format>image/svg+xml</dc:format>
    <dc:creator>
     <cc:Agent>
      <dc:title>Matplotlib v3.7.1, https://matplotlib.org/</dc:title>
     </cc:Agent>
    </dc:creator>
   </cc:Work>
  </rdf:RDF>
 </metadata>
 <defs>
  <style type="text/css">*{stroke-linejoin: round; stroke-linecap: butt}</style>
 </defs>
 <g id="figure_1">
  <g id="patch_1">
   <path d="M 0 108 
L 360 108 
L 360 0 
L 0 0 
z
" style="fill: #ffffff"/>
  </g>
  <g id="axes_1">
   <g id="patch_2">
    <path d="M 46.96 78.32 
L 341.55 78.32 
L 341.55 10.8 
L 46.96 10.8 
z
" style="fill: #ffffff"/>
   </g>
   <g id="line2d_1">
    <path d="M 46.96 44.56 
L 341.55 44.56 
" clip-path="url(#p55aa9bede0)" style="fill: none; stroke-dasharray: 1.85,0.8; stroke-dashoffset: 0; stroke: #000000; stroke-width: 0.5"/>
   </g>
   <g id="matplotlib.axis_1">
    <g id="xtick_1">
     <g id="line2d_2">
      <defs>
       <path id="md85cb01e76" d="M 0 0 
L 0 3.5 
" style="stroke: #000000; stroke-width: 0.8"/>
      </defs>
      <g>
       <use xlink:href="#md85cb01e76" x="46.96" y="78.32" style="stroke: #000000; stroke-width: 0.8"/>
      </g>
     </g>
     <g id="text_1">
      <!-- 0 -->
      <g transform="translate(43.1425 94.438125) scale(0.12 -0.12)">
       <defs>
        <path id="DejaVuSans-30" d="M 2034 4250 
Q 1547 4250 1301 3770 
Q 1056 3291 1056 2328 
Q 1056 1369 1301 889 
Q 1547 409 2034 409 
Q 2525 409 2770 889 
Q 3016 1369 3016 2328 
Q 3016 3291 2770 3770 
Q 2525 4250 2034 4250 
z
M 2034 4750 
Q 2819 4750 3233 4129 
Q 3647 3509 3647 2328 
Q 3647 1150 3233 529 
Q 2819 -91 2034 -91 
Q 1250 -91 836 529 
Q 422 1150 422 2328 
Q 422 3509 836 4129 
Q 1250 4750 2034 4750 
z
" transform="scale(0.015625)"/>
       </defs>
       <use xlink:href="#DejaVuSans-30"/>
      </g>
     </g>
    </g>
    <g id="xtick_2">
     <g id="line2d_3">
      <g>
       <use xlink:href="#md85cb01e76" x="105.878" y="78.32" style="stroke: #000000; stroke-width: 0.8"/>
      </g>
     </g>
     <g id="text_2">
      <!-- 2 -->
      <g transform="translate(102.0605 94.438125) scale(0.12 -0.12)">
       <defs>
        <path id="DejaVuSans-32" d="M 1228 531 
L 3431 531 
L 3431 0 
L 469 0 
L 469 531 
Q 828 903 1448 1529 
Q 2069 2156 2228 2338 
Q 2531 2678 2651 2914 
Q 2772 3150 2772 3378 
Q 2772 3750 2511 3984 
Q 2250 4219 1831 4219 
Q 1534 4219 1204 4116 
Q 875 4013 500 3803 
L 500 4441 
Q 881 4594 1212 4672 
Q 1544 4750 1819 4750 
Q 2544 4750 2975 4387 
Q 3406 4025 3406 3419 
Q 3406 3131 3298 2873 
Q 3191 2616 2906 2266 
Q 2828 2175 2409 1742 
Q 1991 1309 1228 531 
z
" transform="scale(0.015625)"/>
       </defs>
       <use xlink:href="#DejaVuSans-32"/>
      </g>
     </g>
    </g>
    <g id="xtick_3">
     <g id="line2d_4">
      <g>
       <use xlink:href="#md85cb01e76" x="164.796" y="78.32" style="stroke: #000000; stroke-width: 0.8"/>
      </g>
     </g>
     <g id="text_3">
      <!-- 4 -->
      <g transform="translate(160.9785 94.438125) scale(0.12 -0.12)">
       <defs>
        <path id="DejaVuSans-34" d="M 2419 4116 
L 825 1625 
L 2419 1625 
L 2419 4116 
z
M 2253 4666 
L 3047 4666 
L 3047 1625 
L 3713 1625 
L 3713 1100 
L 3047 1100 
L 3047 0 
L 2419 0 
L 2419 1100 
L 313 1100 
L 313 1709 
L 2253 4666 
z
" transform="scale(0.015625)"/>
       </defs>
       <use xlink:href="#DejaVuSans-34"/>
      </g>
     </g>
    </g>
    <g id="xtick_4">
     <g id="line2d_5">
      <g>
       <use xlink:href="#md85cb01e76" x="223.714" y="78.32" style="stroke: #000000; stroke-width: 0.8"/>
      </g>
     </g>
     <g id="text_4">
      <!-- 6 -->
      <g transform="translate(219.8965 94.438125) scale(0.12 -0.12)">
       <defs>
        <path id="DejaVuSans-36" d="M 2113 2584 
Q 1688 2584 1439 2293 
Q 1191 2003 1191 1497 
Q 1191 994 1439 701 
Q 1688 409 2113 409 
Q 2538 409 2786 701 
Q 3034 994 3034 1497 
Q 3034 2003 2786 2293 
Q 2538 2584 2113 2584 
z
M 3366 4563 
L 3366 3988 
Q 3128 4100 2886 4159 
Q 2644 4219 2406 4219 
Q 1781 4219 1451 3797 
Q 1122 3375 1075 2522 
Q 1259 2794 1537 2939 
Q 1816 3084 2150 3084 
Q 2853 3084 3261 2657 
Q 3669 2231 3669 1497 
Q 3669 778 3244 343 
Q 2819 -91 2113 -91 
Q 1303 -91 875 529 
Q 447 1150 447 2328 
Q 447 3434 972 4092 
Q 1497 4750 2381 4750 
Q 2619 4750 2861 4703 
Q 3103 4656 3366 4563 
z
" transform="scale(0.015625)"/>
       </defs>
       <use xlink:href="#DejaVuSans-36"/>
      </g>
     </g>
    </g>
    <g id="xtick_5">
     <g id="line2d_6">
      <g>
       <use xlink:href="#md85cb01e76" x="282.632" y="78.32" style="stroke: #000000; stroke-width: 0.8"/>
      </g>
     </g>
     <g id="text_5">
      <!-- 8 -->
      <g transform="translate(278.8145 94.438125) scale(0.12 -0.12)">
       <defs>
        <path id="DejaVuSans-38" d="M 2034 2216 
Q 1584 2216 1326 1975 
Q 1069 1734 1069 1313 
Q 1069 891 1326 650 
Q 1584 409 2034 409 
Q 2484 409 2743 651 
Q 3003 894 3003 1313 
Q 3003 1734 2745 1975 
Q 2488 2216 2034 2216 
z
M 1403 2484 
Q 997 2584 770 2862 
Q 544 3141 544 3541 
Q 544 4100 942 4425 
Q 1341 4750 2034 4750 
Q 2731 4750 3128 4425 
Q 3525 4100 3525 3541 
Q 3525 3141 3298 2862 
Q 3072 2584 2669 2484 
Q 3125 2378 3379 2068 
Q 3634 1759 3634 1313 
Q 3634 634 3220 271 
Q 2806 -91 2034 -91 
Q 1263 -91 848 271 
Q 434 634 434 1313 
Q 434 1759 690 2068 
Q 947 2378 1403 2484 
z
M 1172 3481 
Q 1172 3119 1398 2916 
Q 1625 2713 2034 2713 
Q 2441 2713 2670 2916 
Q 2900 3119 2900 3481 
Q 2900 3844 2670 4047 
Q 2441 4250 2034 4250 
Q 1625 4250 1398 4047 
Q 1172 3844 1172 3481 
z
" transform="scale(0.015625)"/>
       </defs>
       <use xlink:href="#DejaVuSans-38"/>
      </g>
     </g>
    </g>
    <g id="xtick_6">
     <g id="line2d_7">
      <g>
       <use xlink:href="#md85cb01e76" x="341.55" y="78.32" style="stroke: #000000; stroke-width: 0.8"/>
      </g>
     </g>
     <g id="text_6">
      <!-- 10 -->
      <g transform="translate(333.915 94.438125) scale(0.12 -0.12)">
       <defs>
        <path id="DejaVuSans-31" d="M 794 531 
L 1825 531 
L 1825 4091 
L 703 3866 
L 703 4441 
L 1819 4666 
L 2450 4666 
L 2450 531 
L 3481 531 
L 3481 0 
L 794 0 
L 794 531 
z
" transform="scale(0.015625)"/>
       </defs>
       <use xlink:href="#DejaVuSans-31"/>
       <use xlink:href="#DejaVuSans-30" x="63.623047"/>
      </g>
     </g>
    </g>
   </g>
   <g id="matplotlib.axis_2">
    <g id="ytick_1">
     <g id="line2d_8">
      <defs>
       <path id="m094fee68f1" d="M 0 0 
L -3.5 0 
" style="stroke: #000000; stroke-width: 0.8"/>
      </defs>
      <g>
       <use xlink:href="#m094fee68f1" x="46.96" y="68.983049" style="stroke: #000000; stroke-width: 0.8"/>
      </g>
     </g>
     <g id="text_7">
      <!-- −2.5 -->
      <g transform="translate(10.820625 73.542112) scale(0.12 -0.12)">
       <defs>
        <path id="DejaVuSans-2212" d="M 678 2272 
L 4684 2272 
L 4684 1741 
L 678 1741 
L 678 2272 
z
" transform="scale(0.015625)"/>
        <path id="DejaVuSans-2e" d="M 684 794 
L 1344 794 
L 1344 0 
L 684 0 
L 684 794 
z
" transform="scale(0.015625)"/>
        <path id="DejaVuSans-35" d="M 691 4666 
L 3169 4666 
L 3169 4134 
L 1269 4134 
L 1269 2991 
Q 1406 3038 1543 3061 
Q 1681 3084 1819 3084 
Q 2600 3084 3056 2656 
Q 3513 2228 3513 1497 
Q 3513 744 3044 326 
Q 2575 -91 1722 -91 
Q 1428 -91 1123 -41 
Q 819 9 494 109 
L 494 744 
Q 775 591 1075 516 
Q 1375 441 1709 441 
Q 2250 441 2565 725 
Q 2881 1009 2881 1497 
Q 2881 1984 2565 2268 
Q 2250 2553 1709 2553 
Q 1456 2553 1204 2497 
Q 953 2441 691 2322 
L 691 4666 
z
" transform="scale(0.015625)"/>
       </defs>
       <use xlink:href="#DejaVuSans-2212"/>
       <use xlink:href="#DejaVuSans-32" x="83.789062"/>
       <use xlink:href="#DejaVuSans-2e" x="147.412109"/>
       <use xlink:href="#DejaVuSans-35" x="179.199219"/>
      </g>
     </g>
    </g>
    <g id="ytick_2">
     <g id="line2d_9">
      <g>
       <use xlink:href="#m094fee68f1" x="46.96" y="44.56" style="stroke: #000000; stroke-width: 0.8"/>
      </g>
     </g>
     <g id="text_8">
      <!-- 0.0 -->
      <g transform="translate(20.87625 49.119062) scale(0.12 -0.12)">
       <use xlink:href="#DejaVuSans-30"/>
       <use xlink:href="#DejaVuSans-2e" x="63.623047"/>
       <use xlink:href="#DejaVuSans-30" x="95.410156"/>
      </g>
     </g>
    </g>
    <g id="ytick_3">
     <g id="line2d_10">
      <g>
       <use xlink:href="#m094fee68f1" x="46.96" y="20.136951" style="stroke: #000000; stroke-width: 0.8"/>
      </g>
     </g>
     <g id="text_9">
      <!-- 2.5 -->
      <g transform="translate(20.87625 24.696013) scale(0.12 -0.12)">
       <use xlink:href="#DejaVuSans-32"/>
       <use xlink:href="#DejaVuSans-2e" x="63.623047"/>
       <use xlink:href="#DejaVuSans-35" x="95.410156"/>
      </g>
     </g>
    </g>
   </g>
   <g id="line2d_11">
    <path d="M 46.96 44.560018 
L 59.33278 44.450341 
L 68.17048 44.11632 
L 81.72162 43.543813 
L 85.84588 43.619707 
L 88.79178 43.870391 
L 91.73768 44.313463 
L 95.27276 45.057934 
L 108.23472 48.040576 
L 111.18062 48.364562 
L 113.53734 48.422508 
L 115.89406 48.253118 
L 118.25078 47.826167 
L 120.6075 47.139401 
L 122.96422 46.219478 
L 125.91012 44.81822 
L 135.92618 39.759591 
L 138.2829 38.912706 
L 140.63962 38.315335 
L 142.99634 38.003995 
L 144.76388 37.979817 
L 146.53142 38.162382 
L 148.29896 38.576627 
L 150.0665 39.228063 
L 151.83404 40.103631 
L 154.19076 41.575917 
L 156.54748 43.319348 
L 161.26092 47.188187 
L 164.796 49.958565 
L 167.15272 51.539762 
L 169.50944 52.810291 
L 171.27698 53.52132 
L 173.04452 54.000976 
L 174.81206 54.226621 
L 176.5796 54.172345 
L 178.34714 53.815762 
L 180.11468 53.147445 
L 181.88222 52.173373 
L 183.64976 50.912764 
L 185.4173 49.396926 
L 187.77402 47.055665 
L 191.3091 43.139658 
L 195.43336 38.599742 
L 197.79008 36.311062 
L 199.55762 34.828618 
L 201.32516 33.583401 
L 203.0927 32.59737 
L 204.86024 31.884893 
L 206.62778 31.456152 
L 208.39532 31.321702 
L 210.16286 31.503996 
L 211.34122 31.819063 
L 212.51958 32.298228 
L 214.28712 33.327854 
L 216.05466 34.721811 
L 217.8222 36.457919 
L 219.58974 38.499199 
L 221.94646 41.600416 
L 226.07072 47.561746 
L 229.6058 52.502528 
L 231.96252 55.395062 
L 233.73006 57.272139 
L 235.4976 58.870124 
L 237.26514 60.177662 
L 239.03268 61.19156 
L 240.80022 61.911558 
L 242.56776 62.332945 
L 243.74612 62.436728 
L 244.92448 62.385123 
L 246.10284 62.169172 
L 247.2812 61.784318 
L 248.45956 61.227775 
L 249.63792 60.497343 
L 251.40546 59.072585 
L 253.173 57.253808 
L 254.94054 55.052635 
L 256.70808 52.498252 
L 259.0648 48.637819 
L 262.59988 42.293467 
L 266.13496 36.043584 
L 268.49168 32.296891 
L 270.8484 29.031896 
L 272.61594 26.921223 
L 274.38348 25.092134 
L 276.15102 23.524276 
L 277.91856 22.191378 
L 280.27528 20.730841 
L 282.632 19.572948 
L 284.98872 18.65973 
L 287.93462 17.788129 
L 290.88052 17.14528 
L 294.4156 16.593799 
L 299.12904 16.114215 
L 305.02084 15.769215 
L 313.26936 15.536946 
L 327.40968 15.401719 
L 341.55 15.346842 
L 341.55 15.346842 
" clip-path="url(#p55aa9bede0)" style="fill: none; stroke: #000000; stroke-width: 1.5; stroke-linecap: square"/>
   </g>
   <g id="line2d_12">
    <path d="M 46.96 44.559823 
L 56.38688 41.516139 
L 61.10032 40.238604 
L 65.22458 39.325747 
L 68.75966 38.744327 
L 71.70556 38.491332 
L 73.4731 38.511802 
L 75.24064 38.741998 
L 76.419 39.064873 
L 77.59736 39.576696 
L 78.77572 40.339576 
L 79.95408 41.430408 
L 81.13244 42.933061 
L 82.3108 44.911703 
L 83.48916 47.354953 
L 86.43506 54.063013 
L 87.61342 56.086168 
L 88.79178 57.454758 
L 89.97014 58.270245 
L 91.1485 58.714225 
L 92.91604 59.011684 
L 95.86194 59.149855 
L 101.75374 59.148367 
L 104.69964 58.969492 
L 105.878 58.741323 
L 107.05636 58.289974 
L 108.23472 57.454254 
L 108.8239 56.830713 
L 109.41308 56.037682 
L 110.59144 53.87853 
L 111.7698 50.962802 
L 115.89406 39.215915 
L 117.07242 36.819536 
L 118.25078 35.0309 
L 119.42914 33.746035 
L 120.6075 32.841407 
L 121.78586 32.209538 
L 123.5534 31.601186 
L 125.32094 31.247235 
L 127.67766 31.002007 
L 131.21274 30.901938 
L 135.337 31.042053 
L 137.69372 31.279683 
L 139.46126 31.655422 
L 140.63962 32.151296 
L 141.2288 32.551157 
L 141.81798 33.1222 
L 142.40716 33.949924 
L 142.99634 35.152898 
L 143.58552 36.870705 
L 144.1747 39.210127 
L 146.53142 51.232599 
L 147.1206 53.289208 
L 147.70978 54.767317 
L 148.29896 55.798252 
L 148.88814 56.514609 
L 150.0665 57.382767 
L 151.24486 57.858611 
L 153.0124 58.259341 
L 155.9583 58.59997 
L 160.08256 58.791428 
L 164.20682 58.757068 
L 166.56354 58.565762 
L 168.33108 58.207985 
L 169.50944 57.741815 
L 170.6878 56.914144 
L 171.27698 56.280609 
L 171.86616 55.43778 
L 172.45534 54.331303 
L 173.04452 52.91239 
L 174.22288 49.083125 
L 176.5796 39.92142 
L 177.75796 36.572993 
L 178.34714 35.357225 
L 179.5255 33.650616 
L 180.70386 32.606868 
L 181.88222 31.951239 
L 183.64976 31.353536 
L 186.00648 30.89655 
L 188.95238 30.565539 
L 193.07664 30.329294 
L 197.79008 30.27206 
L 201.32516 30.407039 
L 203.0927 30.622979 
L 204.27106 30.921732 
L 205.44942 31.52196 
L 206.0386 32.049408 
L 206.62778 32.847197 
L 207.21696 34.062226 
L 207.80614 35.886975 
L 208.39532 38.502484 
L 209.57368 45.848744 
L 210.75204 52.79251 
L 211.34122 55.058136 
L 211.9304 56.556105 
L 212.51958 57.501949 
L 213.10876 58.090429 
L 213.69794 58.458454 
L 214.8763 58.844268 
L 216.64384 59.061313 
L 220.17892 59.166742 
L 229.6058 59.155917 
L 234.31924 58.995349 
L 236.67596 58.721815 
L 237.85432 58.440853 
L 239.03268 57.926136 
L 239.62186 57.492273 
L 240.21104 56.837088 
L 240.80022 55.810875 
L 241.3894 54.177153 
L 241.97858 51.643037 
L 242.56776 48.061006 
L 243.74612 39.687127 
L 244.3353 36.48752 
L 244.92448 34.322079 
L 245.51366 32.950869 
L 246.10284 32.089971 
L 246.69202 31.535818 
L 247.87038 30.905054 
L 249.04874 30.573886 
L 250.81628 30.306073 
L 253.76218 30.099647 
L 259.65398 29.963723 
L 275.56184 29.911331 
L 341.55 29.906549 
L 341.55 29.906549 
" clip-path="url(#p55aa9bede0)" style="fill: none; stroke: #0000ff; stroke-width: 1.5; stroke-linecap: square"/>
   </g>
   <g id="line2d_13">
    <path d="M 46.96 13.869091 
L 341.55 13.869091 
" clip-path="url(#p55aa9bede0)" style="fill: none; stroke-dasharray: 5.55,2.4; stroke-dashoffset: 0; stroke: #ff0000; stroke-width: 1.5"/>
   </g>
   <g id="line2d_14">
    <path d="M 46.96 75.250909 
L 341.55 75.250909 
" clip-path="url(#p55aa9bede0)" style="fill: none; stroke-dasharray: 5.55,2.4; stroke-dashoffset: 0; stroke: #ff0000; stroke-width: 1.5"/>
   </g>
   <g id="line2d_15">
    <path d="M 105.878 78.32 
L 105.878 10.8 
" clip-path="url(#p55aa9bede0)" style="fill: none; stroke: #a9a9a9; stroke-width: 0.5; stroke-linecap: square"/>
   </g>
   <g id="line2d_16">
    <path d="M 200.1468 78.32 
L 200.1468 10.8 
" clip-path="url(#p55aa9bede0)" style="fill: none; stroke: #a9a9a9; stroke-width: 0.5; stroke-linecap: square"/>
   </g>
   <g id="line2d_17">
    <path d="M 235.4976 78.32 
L 235.4976 10.8 
" clip-path="url(#p55aa9bede0)" style="fill: none; stroke: #a9a9a9; stroke-width: 0.5; stroke-linecap: square"/>
   </g>
   <g id="line2d_18">
    <path d="M 282.632 78.32 
L 282.632 10.8 
" clip-path="url(#p55aa9bede0)" style="fill: none; stroke: #a9a9a9; stroke-width: 0.5; stroke-linecap: square"/>
   </g>
   <g id="line2d_19">
    <path d="M 326.8205 78.32 
L 326.8205 10.8 
" clip-path="url(#p55aa9bede0)" style="fill: none; stroke: #a9a9a9; stroke-width: 0.5; stroke-linecap: square"/>
   </g>
   <g id="patch_3">
    <path d="M 46.96 78.32 
L 46.96 10.8 
" style="fill: none; stroke: #000000; stroke-width: 0.8; stroke-linejoin: miter; stroke-linecap: square"/>
   </g>
   <g id="patch_4">
    <path d="M 46.96 78.32 
L 341.55 78.32 
" style="fill: none; stroke: #000000; stroke-width: 0.8; stroke-linejoin: miter; stroke-linecap: square"/>
   </g>
  </g>
 </g>
 <defs>
  <clipPath id="p55aa9bede0">
   <rect x="46.96" y="10.8" width="294.59" height="67.52"/>
  </clipPath>
 </defs>
</svg>
