<?xml version="1.0" encoding="utf-8" standalone="no"?>
<!DOCTYPE svg PUBLIC "-//W3C//DTD SVG 1.1//EN"
  "http://www.w3.org/Graphics/SVG/1.1/DTD/svg11.dtd">
<svg xmlns:xlink="http://www.w3.org/1999/xlink" width="360pt" height="72pt" viewBox="0 0 360 72" xmlns="http://www.w3.org/2000/svg" version="1.1">
 <metadata>
  <rdf:RDF xmlns:dc="http://purl.org/dc/elements/1.1/" xmlns:cc="http://creativecommons.org/ns#" xmlns:rdf="http://www.w3.org/1999/02/22-rdf-syntax-ns#">
   <cc:Work>
    <dc:type rdf:resource="http://purl.org/dc/dcmitype/StillImage"/>
    <dc:date>2023-07-28T22:45:18.458515</dc:date>
    <dc:format>image/svg+xml</dc:format>
    <dc:creator>
     <cc:Agent>
      <dc:title>Matplotlib v3.7.1, https://matplotlib.org/</dc:title>
     </cc:Agent>
    </dc:creator>
   </cc:Work>
  </rdf:RDF>
 </metadata>
 <defs>
  <style type="text/css">*{stroke-linejoin: round; stroke-linecap: butt}</style>
 </defs>
 <g id="figure_1">
  <g id="patch_1">
   <path d="M 0 72 
L 360 72 
L 360 0 
L 0 0 
z
" style="fill: #ffffff"/>
  </g>
  <g id="axes_1">
   <g id="line2d_1">
    <path d="M 49.008621 36.36 
L 49.048171 37.618517 
L 49.166667 38.872067 
L 49.363639 40.115703 
L 49.638312 41.344517 
L 49.9896 42.55366 
L 50.416118 43.738358 
L 50.916182 44.893938 
L 51.487819 46.015839 
L 52.128772 47.099632 
L 52.836513 48.141041 
L 53.608248 49.135955 
L 54.440931 50.080448 
L 55.331276 50.970794 
L 56.275769 51.803477 
L 57.270684 52.575211 
L 58.312092 53.282952 
L 59.395885 53.923905 
L 60.517786 54.495542 
L 61.673366 54.995606 
L 62.858065 55.422124 
L 64.067207 55.773412 
L 65.296021 56.048085 
L 66.539657 56.245058 
L 67.793207 56.363553 
L 69.051724 56.403103 
L 70.310241 56.363553 
L 71.563791 56.245058 
L 72.807427 56.048085 
L 74.036241 55.773412 
L 75.245384 55.422124 
L 76.430083 54.995606 
L 77.585663 54.495542 
L 78.707563 53.923905 
L 79.791356 53.282952 
L 80.832765 52.575211 
L 81.827679 51.803477 
L 82.772173 50.970794 
L 83.662518 50.080448 
L 84.495201 49.135955 
L 85.266935 48.141041 
L 85.974676 47.099632 
L 86.61563 46.015839 
L 87.187266 44.893938 
L 87.68733 43.738358 
L 88.113848 42.55366 
L 88.465137 41.344517 
L 88.739809 40.115703 
L 88.936782 38.872067 
L 89.055277 37.618517 
L 89.094828 36.36 
L 89.055277 35.101483 
L 88.936782 33.847933 
L 88.739809 32.604297 
L 88.465137 31.375483 
L 88.113848 30.16634 
L 87.68733 28.981642 
L 87.187266 27.826062 
L 86.61563 26.704161 
L 85.974676 25.620368 
L 85.266935 24.578959 
L 84.495201 23.584045 
L 83.662518 22.639552 
L 82.772173 21.749206 
L 81.827679 20.916523 
L 80.832765 20.144789 
L 79.791356 19.437048 
L 78.707563 18.796095 
L 77.585663 18.224458 
L 76.430083 17.724394 
L 75.245384 17.297876 
L 74.036241 16.946588 
L 72.807427 16.671915 
L 71.563791 16.474942 
L 70.310241 16.356447 
L 69.051724 16.316897 
L 67.793207 16.356447 
L 66.539657 16.474942 
L 65.296021 16.671915 
L 64.067207 16.946588 
L 62.858065 17.297876 
L 61.673366 17.724394 
L 60.517786 18.224458 
L 59.395885 18.796095 
L 58.312092 19.437048 
L 57.270684 20.144789 
L 56.275769 20.916523 
L 55.331276 21.749206 
L 54.440931 22.639552 
L 53.608248 23.584045 
L 52.836513 24.578959 
L 52.128772 25.620368 
L 51.487819 26.704161 
L 50.916182 27.826062 
L 50.416118 28.981642 
L 49.9896 30.16634 
L 49.638312 31.375483 
L 49.363639 32.604297 
L 49.166667 33.847933 
L 49.048171 35.101483 
L 49.008621 36.36 
" clip-path="url(#paffccf2c45)" style="fill: none; stroke-dasharray: 1.85,0.8; stroke-dashoffset: 0; stroke: #000000; stroke-width: 0.5"/>
   </g>
   <g id="line2d_2">
    <path d="M 69.051724 36.36 
L 62.856637 55.42166 
" clip-path="url(#paffccf2c45)" style="fill: none; stroke: #808080; stroke-width: 3; stroke-linecap: square"/>
   </g>
   <g id="line2d_3">
    <path d="M 69.051724 36.36 
L 65.61313 56.105938 
" clip-path="url(#paffccf2c45)" style="fill: none; stroke: #808080; stroke-opacity: 0.5; stroke-width: 3; stroke-linecap: square"/>
   </g>
   <g id="line2d_4">
    <path d="M 69.051724 36.36 
L 68.582023 56.3976 
" clip-path="url(#paffccf2c45)" style="fill: none; stroke: #808080; stroke-opacity: 0.2; stroke-width: 3; stroke-linecap: square"/>
   </g>
   <g id="PathCollection_1">
    <defs>
     <path id="m59eeb8c72b" d="M 0 2.738613 
C 0.726289 2.738613 1.422928 2.450055 1.936492 1.936492 
C 2.450055 1.422928 2.738613 0.726289 2.738613 0 
C 2.738613 -0.726289 2.450055 -1.422928 1.936492 -1.936492 
C 1.422928 -2.450055 0.726289 -2.738613 0 -2.738613 
C -0.726289 -2.738613 -1.422928 -2.450055 -1.936492 -1.936492 
C -2.450055 -1.422928 -2.738613 -0.726289 -2.738613 0 
C -2.738613 0.726289 -2.450055 1.422928 -1.936492 1.936492 
C -1.422928 2.450055 -0.726289 2.738613 0 2.738613 
z
" style="stroke: #000000"/>
    </defs>
    <g clip-path="url(#paffccf2c45)">
     <use xlink:href="#m59eeb8c72b" x="62.856637" y="55.42166" style="stroke: #000000"/>
    </g>
   </g>
   <g id="PathCollection_2">
    <defs>
     <path id="m28b6b73b36" d="M 0 2.738613 
C 0.726289 2.738613 1.422928 2.450055 1.936492 1.936492 
C 2.450055 1.422928 2.738613 0.726289 2.738613 0 
C 2.738613 -0.726289 2.450055 -1.422928 1.936492 -1.936492 
C 1.422928 -2.450055 0.726289 -2.738613 0 -2.738613 
C -0.726289 -2.738613 -1.422928 -2.450055 -1.936492 -1.936492 
C -2.450055 -1.422928 -2.738613 -0.726289 -2.738613 0 
C -2.738613 0.726289 -2.450055 1.422928 -1.936492 1.936492 
C -1.422928 2.450055 -0.726289 2.738613 0 2.738613 
z
" style="stroke: #000000; stroke-opacity: 0.5"/>
    </defs>
    <g clip-path="url(#paffccf2c45)">
     <use xlink:href="#m28b6b73b36" x="65.61313" y="56.105938" style="fill-opacity: 0.5; stroke: #000000; stroke-opacity: 0.5"/>
    </g>
   </g>
   <g id="PathCollection_3">
    <defs>
     <path id="mb3b50c3f06" d="M 0 2.738613 
C 0.726289 2.738613 1.422928 2.450055 1.936492 1.936492 
C 2.450055 1.422928 2.738613 0.726289 2.738613 0 
C 2.738613 -0.726289 2.450055 -1.422928 1.936492 -1.936492 
C 1.422928 -2.450055 0.726289 -2.738613 0 -2.738613 
C -0.726289 -2.738613 -1.422928 -2.450055 -1.936492 -1.936492 
C -2.450055 -1.422928 -2.738613 -0.726289 -2.738613 0 
C -2.738613 0.726289 -2.450055 1.422928 -1.936492 1.936492 
C -1.422928 2.450055 -0.726289 2.738613 0 2.738613 
z
" style="stroke: #000000; stroke-opacity: 0.2"/>
    </defs>
    <g clip-path="url(#paffccf2c45)">
     <use xlink:href="#mb3b50c3f06" x="68.582023" y="56.3976" style="fill-opacity: 0.2; stroke: #000000; stroke-opacity: 0.2"/>
    </g>
   </g>
   <g id="patch_2">
    <path d="M 66.142201 31.320558 
C 65.591259 31.638644 65.096191 32.044936 64.676733 32.523236 
C 64.257276 33.001536 63.919079 33.545401 63.675626 34.133147 
C 63.432174 34.720894 63.286744 35.344606 63.245137 35.979416 
C 63.203529 36.614226 63.266303 37.251585 63.430957 37.86608 
C 63.59561 38.480575 63.859925 39.063931 64.213364 39.592889 
C 64.566802 40.121847 65.004604 40.589283 65.509313 40.97656 
C 66.014023 41.363837 66.578842 41.66574 67.181253 41.87023 
C 67.783664 42.074721 68.415552 42.179046 69.051724 42.179046 
C 69.687896 42.179046 70.319785 42.074721 70.922195 41.87023 
C 71.524606 41.66574 72.089426 41.363837 72.594135 40.97656 
C 73.098845 40.589283 73.536646 40.121847 73.890084 39.592889 
C 74.243523 39.063931 74.507838 38.480575 74.672491 37.86608 
C 74.837145 37.251585 74.899919 36.614226 74.858312 35.979416 
C 74.816704 35.344606 74.671275 34.720894 74.427822 34.133147 
C 74.184369 33.545401 73.846172 33.001536 73.426715 32.523236 
C 73.007257 32.044936 72.512189 31.638644 71.961247 31.320558 
" clip-path="url(#paffccf2c45)" style="fill: none; stroke: #0000ff; stroke-width: 2.5; stroke-linejoin: miter; stroke-linecap: round"/>
   </g>
   <g id="patch_3">
    <path d="M 62.782573 29.380876 
L 66.142201 35.199922 
L 69.501829 29.380876 
z
" clip-path="url(#paffccf2c45)" style="fill: #0000ff; stroke: #0000ff; stroke-linejoin: miter"/>
   </g>
  </g>
  <g id="axes_2">
   <g id="line2d_5">
    <path d="M 106.732759 36.36 
L 106.772309 37.618517 
L 106.890804 38.872067 
L 107.087777 40.115703 
L 107.36245 41.344517 
L 107.713738 42.55366 
L 108.140256 43.738358 
L 108.64032 44.893938 
L 109.211957 46.015839 
L 109.85291 47.099632 
L 110.560651 48.141041 
L 111.332385 49.135955 
L 112.165068 50.080448 
L 113.055414 50.970794 
L 113.999907 51.803477 
L 114.994821 52.575211 
L 116.03623 53.282952 
L 117.120023 53.923905 
L 118.241924 54.495542 
L 119.397504 54.995606 
L 120.582202 55.422124 
L 121.791345 55.773412 
L 123.020159 56.048085 
L 124.263795 56.245058 
L 125.517345 56.363553 
L 126.775862 56.403103 
L 128.034379 56.363553 
L 129.287929 56.245058 
L 130.531565 56.048085 
L 131.760379 55.773412 
L 132.969522 55.422124 
L 134.154221 54.995606 
L 135.3098 54.495542 
L 136.431701 53.923905 
L 137.515494 53.282952 
L 138.556903 52.575211 
L 139.551817 51.803477 
L 140.496311 50.970794 
L 141.386656 50.080448 
L 142.219339 49.135955 
L 142.991073 48.141041 
L 143.698814 47.099632 
L 144.339768 46.015839 
L 144.911404 44.893938 
L 145.411468 43.738358 
L 145.837986 42.55366 
L 146.189275 41.344517 
L 146.463947 40.115703 
L 146.66092 38.872067 
L 146.779415 37.618517 
L 146.818966 36.36 
L 146.779415 35.101483 
L 146.66092 33.847933 
L 146.463947 32.604297 
L 146.189275 31.375483 
L 145.837986 30.16634 
L 145.411468 28.981642 
L 144.911404 27.826062 
L 144.339768 26.704161 
L 143.698814 25.620368 
L 142.991073 24.578959 
L 142.219339 23.584045 
L 141.386656 22.639552 
L 140.496311 21.749206 
L 139.551817 20.916523 
L 138.556903 20.144789 
L 137.515494 19.437048 
L 136.431701 18.796095 
L 135.3098 18.224458 
L 134.154221 17.724394 
L 132.969522 17.297876 
L 131.760379 16.946588 
L 130.531565 16.671915 
L 129.287929 16.474942 
L 128.034379 16.356447 
L 126.775862 16.316897 
L 125.517345 16.356447 
L 124.263795 16.474942 
L 123.020159 16.671915 
L 121.791345 16.946588 
L 120.582202 17.297876 
L 119.397504 17.724394 
L 118.241924 18.224458 
L 117.120023 18.796095 
L 116.03623 19.437048 
L 114.994821 20.144789 
L 113.999907 20.916523 
L 113.055414 21.749206 
L 112.165068 22.639552 
L 111.332385 23.584045 
L 110.560651 24.578959 
L 109.85291 25.620368 
L 109.211957 26.704161 
L 108.64032 27.826062 
L 108.140256 28.981642 
L 107.713738 30.16634 
L 107.36245 31.375483 
L 107.087777 32.604297 
L 106.890804 33.847933 
L 106.772309 35.101483 
L 106.732759 36.36 
" clip-path="url(#p3edd486298)" style="fill: none; stroke-dasharray: 1.85,0.8; stroke-dashoffset: 0; stroke: #000000; stroke-width: 0.5"/>
   </g>
   <g id="line2d_6">
    <path d="M 126.775862 36.36 
L 144.075749 46.481259 
" clip-path="url(#p3edd486298)" style="fill: none; stroke: #808080; stroke-width: 3; stroke-linecap: square"/>
   </g>
   <g id="line2d_7">
    <path d="M 126.775862 36.36 
L 136.072022 54.116898 
" clip-path="url(#p3edd486298)" style="fill: none; stroke: #808080; stroke-opacity: 0.5; stroke-width: 3; stroke-linecap: square"/>
   </g>
   <g id="line2d_8">
    <path d="M 126.775862 36.36 
L 122.969166 56.038289 
" clip-path="url(#p3edd486298)" style="fill: none; stroke: #808080; stroke-opacity: 0.2; stroke-width: 3; stroke-linecap: square"/>
   </g>
   <g id="PathCollection_4">
    <g clip-path="url(#p3edd486298)">
     <use xlink:href="#m59eeb8c72b" x="144.075749" y="46.481259" style="stroke: #000000"/>
    </g>
   </g>
   <g id="PathCollection_5">
    <g clip-path="url(#p3edd486298)">
     <use xlink:href="#m28b6b73b36" x="136.072022" y="54.116898" style="fill-opacity: 0.5; stroke: #000000; stroke-opacity: 0.5"/>
    </g>
   </g>
   <g id="PathCollection_6">
    <g clip-path="url(#p3edd486298)">
     <use xlink:href="#mb3b50c3f06" x="122.969166" y="56.038289" style="fill-opacity: 0.2; stroke: #000000; stroke-opacity: 0.2"/>
    </g>
   </g>
   <g id="patch_4">
    <path d="M 123.857332 31.304957 
C 123.304685 31.624028 122.808084 32.031578 122.387328 32.511359 
C 121.966572 32.991139 121.627328 33.536688 121.383121 34.126254 
C 121.138915 34.71582 120.993036 35.341463 120.951299 35.978238 
C 120.909563 36.615013 120.972531 37.254345 121.137695 37.870742 
C 121.302858 38.48714 121.567991 39.072302 121.922524 39.602897 
C 122.277056 40.133493 122.716213 40.602375 123.222485 40.990851 
C 123.728757 41.379328 124.295325 41.682165 124.8996 41.887288 
C 125.503876 42.092412 126.13772 42.197061 126.775862 42.197061 
C 127.414004 42.197061 128.047848 42.092412 128.652124 41.887288 
C 129.256399 41.682165 129.822967 41.379328 130.329239 40.990851 
C 130.835511 40.602375 131.274668 40.133493 131.629201 39.602897 
C 131.983733 39.072302 132.248866 38.48714 132.41403 37.870742 
C 132.579193 37.254345 132.642161 36.615013 132.600425 35.978238 
C 132.558689 35.341463 132.412809 34.71582 132.168603 34.126254 
C 131.924397 33.536688 131.585153 32.991139 131.164397 32.511359 
C 130.74364 32.031578 130.247039 31.624028 129.694392 31.304957 
" clip-path="url(#p3edd486298)" style="fill: none; stroke: #0000ff; stroke-width: 2.5; stroke-linejoin: miter; stroke-linecap: round"/>
   </g>
   <g id="patch_5">
    <path d="M 126.324364 29.35927 
L 129.694392 35.196331 
L 133.064421 29.35927 
z
" clip-path="url(#p3edd486298)" style="fill: #0000ff; stroke: #0000ff; stroke-linejoin: miter"/>
   </g>
  </g>
  <g id="axes_3">
   <g id="line2d_9">
    <path d="M 164.456897 36.36 
L 164.496447 37.618517 
L 164.614942 38.872067 
L 164.811915 40.115703 
L 165.086588 41.344517 
L 165.437876 42.55366 
L 165.864394 43.738358 
L 166.364458 44.893938 
L 166.936095 46.015839 
L 167.577048 47.099632 
L 168.284789 48.141041 
L 169.056523 49.135955 
L 169.889206 50.080448 
L 170.779552 50.970794 
L 171.724045 51.803477 
L 172.718959 52.575211 
L 173.760368 53.282952 
L 174.844161 53.923905 
L 175.966062 54.495542 
L 177.121642 54.995606 
L 178.30634 55.422124 
L 179.515483 55.773412 
L 180.744297 56.048085 
L 181.987933 56.245058 
L 183.241483 56.363553 
L 184.5 56.403103 
L 185.758517 56.363553 
L 187.012067 56.245058 
L 188.255703 56.048085 
L 189.484517 55.773412 
L 190.69366 55.422124 
L 191.878358 54.995606 
L 193.033938 54.495542 
L 194.155839 53.923905 
L 195.239632 53.282952 
L 196.281041 52.575211 
L 197.275955 51.803477 
L 198.220448 50.970794 
L 199.110794 50.080448 
L 199.943477 49.135955 
L 200.715211 48.141041 
L 201.422952 47.099632 
L 202.063905 46.015839 
L 202.635542 44.893938 
L 203.135606 43.738358 
L 203.562124 42.55366 
L 203.913412 41.344517 
L 204.188085 40.115703 
L 204.385058 38.872067 
L 204.503553 37.618517 
L 204.543103 36.36 
L 204.503553 35.101483 
L 204.385058 33.847933 
L 204.188085 32.604297 
L 203.913412 31.375483 
L 203.562124 30.16634 
L 203.135606 28.981642 
L 202.635542 27.826062 
L 202.063905 26.704161 
L 201.422952 25.620368 
L 200.715211 24.578959 
L 199.943477 23.584045 
L 199.110794 22.639552 
L 198.220448 21.749206 
L 197.275955 20.916523 
L 196.281041 20.144789 
L 195.239632 19.437048 
L 194.155839 18.796095 
L 193.033938 18.224458 
L 191.878358 17.724394 
L 190.69366 17.297876 
L 189.484517 16.946588 
L 188.255703 16.671915 
L 187.012067 16.474942 
L 185.758517 16.356447 
L 184.5 16.316897 
L 183.241483 16.356447 
L 181.987933 16.474942 
L 180.744297 16.671915 
L 179.515483 16.946588 
L 178.30634 17.297876 
L 177.121642 17.724394 
L 175.966062 18.224458 
L 174.844161 18.796095 
L 173.760368 19.437048 
L 172.718959 20.144789 
L 171.724045 20.916523 
L 170.779552 21.749206 
L 169.889206 22.639552 
L 169.056523 23.584045 
L 168.284789 24.578959 
L 167.577048 25.620368 
L 166.936095 26.704161 
L 166.364458 27.826062 
L 165.864394 28.981642 
L 165.437876 30.16634 
L 165.086588 31.375483 
L 164.811915 32.604297 
L 164.614942 33.847933 
L 164.496447 35.101483 
L 164.456897 36.36 
" clip-path="url(#pc72beb4836)" style="fill: none; stroke-dasharray: 1.85,0.8; stroke-dashoffset: 0; stroke: #000000; stroke-width: 0.5"/>
   </g>
   <g id="line2d_10">
    <path d="M 184.5 36.36 
L 164.569349 38.48017 
" clip-path="url(#pc72beb4836)" style="fill: none; stroke: #808080; stroke-width: 3; stroke-linecap: square"/>
   </g>
   <g id="line2d_11">
    <path d="M 184.5 36.36 
L 169.941429 50.135848 
" clip-path="url(#pc72beb4836)" style="fill: none; stroke: #808080; stroke-opacity: 0.5; stroke-width: 3; stroke-linecap: square"/>
   </g>
   <g id="line2d_12">
    <path d="M 184.5 36.36 
L 185.409381 56.382463 
" clip-path="url(#pc72beb4836)" style="fill: none; stroke: #808080; stroke-opacity: 0.2; stroke-width: 3; stroke-linecap: square"/>
   </g>
   <g id="PathCollection_7">
    <g clip-path="url(#pc72beb4836)">
     <use xlink:href="#m59eeb8c72b" x="164.569349" y="38.48017" style="stroke: #000000"/>
    </g>
   </g>
   <g id="PathCollection_8">
    <g clip-path="url(#pc72beb4836)">
     <use xlink:href="#m28b6b73b36" x="169.941429" y="50.135848" style="fill-opacity: 0.5; stroke: #000000; stroke-opacity: 0.5"/>
    </g>
   </g>
   <g id="PathCollection_9">
    <g clip-path="url(#pc72beb4836)">
     <use xlink:href="#mb3b50c3f06" x="185.409381" y="56.382463" style="fill-opacity: 0.2; stroke: #000000; stroke-opacity: 0.2"/>
    </g>
   </g>
   <g id="patch_6">
    <path d="M 181.560006 31.267782 
C 181.003295 31.589199 180.503042 31.999746 180.079192 32.483055 
C 179.655341 32.966364 179.313602 33.515924 179.0676 34.109826 
C 178.821598 34.703728 178.674646 35.333972 178.632602 35.97543 
C 178.590559 36.616889 178.653991 37.260922 178.820369 37.881853 
C 178.986746 38.502783 179.25383 39.092248 179.610969 39.626746 
C 179.968109 40.161243 180.410496 40.633574 180.920491 41.024907 
C 181.430486 41.41624 182.001221 41.721305 182.60994 41.927937 
C 183.21866 42.134569 183.857165 42.239987 184.5 42.239987 
C 185.142835 42.239987 185.78134 42.134569 186.39006 41.927937 
C 186.998779 41.721305 187.569514 41.41624 188.079509 41.024907 
C 188.589504 40.633574 189.031891 40.161243 189.389031 39.626746 
C 189.74617 39.092248 190.013254 38.502783 190.179631 37.881853 
C 190.346009 37.260922 190.409441 36.616889 190.367398 35.97543 
C 190.325354 35.333972 190.178402 34.703728 189.9324 34.109826 
C 189.686398 33.515924 189.344659 32.966364 188.920808 32.483055 
C 188.496958 31.999746 187.996705 31.589199 187.439994 31.267782 
" clip-path="url(#pc72beb4836)" style="fill: none; stroke: #0000ff; stroke-width: 2.5; stroke-linejoin: miter; stroke-linecap: round"/>
   </g>
   <g id="patch_7">
    <path d="M 178.165194 29.307786 
L 181.560006 35.187773 
L 184.954819 29.307786 
z
" clip-path="url(#pc72beb4836)" style="fill: #0000ff; stroke: #0000ff; stroke-linejoin: miter"/>
   </g>
  </g>
  <g id="axes_4">
   <g id="line2d_13">
    <path d="M 222.181034 36.36 
L 222.220585 37.618517 
L 222.33908 38.872067 
L 222.536053 40.115703 
L 222.810725 41.344517 
L 223.162014 42.55366 
L 223.588532 43.738358 
L 224.088596 44.893938 
L 224.660232 46.015839 
L 225.301186 47.099632 
L 226.008927 48.141041 
L 226.780661 49.135955 
L 227.613344 50.080448 
L 228.503689 50.970794 
L 229.448183 51.803477 
L 230.443097 52.575211 
L 231.484506 53.282952 
L 232.568299 53.923905 
L 233.6902 54.495542 
L 234.845779 54.995606 
L 236.030478 55.422124 
L 237.239621 55.773412 
L 238.468435 56.048085 
L 239.712071 56.245058 
L 240.965621 56.363553 
L 242.224138 56.403103 
L 243.482655 56.363553 
L 244.736205 56.245058 
L 245.979841 56.048085 
L 247.208655 55.773412 
L 248.417798 55.422124 
L 249.602496 54.995606 
L 250.758076 54.495542 
L 251.879977 53.923905 
L 252.96377 53.282952 
L 254.005179 52.575211 
L 255.000093 51.803477 
L 255.944586 50.970794 
L 256.834932 50.080448 
L 257.667615 49.135955 
L 258.439349 48.141041 
L 259.14709 47.099632 
L 259.788043 46.015839 
L 260.35968 44.893938 
L 260.859744 43.738358 
L 261.286262 42.55366 
L 261.63755 41.344517 
L 261.912223 40.115703 
L 262.109196 38.872067 
L 262.227691 37.618517 
L 262.267241 36.36 
L 262.227691 35.101483 
L 262.109196 33.847933 
L 261.912223 32.604297 
L 261.63755 31.375483 
L 261.286262 30.16634 
L 260.859744 28.981642 
L 260.35968 27.826062 
L 259.788043 26.704161 
L 259.14709 25.620368 
L 258.439349 24.578959 
L 257.667615 23.584045 
L 256.834932 22.639552 
L 255.944586 21.749206 
L 255.000093 20.916523 
L 254.005179 20.144789 
L 252.96377 19.437048 
L 251.879977 18.796095 
L 250.758076 18.224458 
L 249.602496 17.724394 
L 248.417798 17.297876 
L 247.208655 16.946588 
L 245.979841 16.671915 
L 244.736205 16.474942 
L 243.482655 16.356447 
L 242.224138 16.316897 
L 240.965621 16.356447 
L 239.712071 16.474942 
L 238.468435 16.671915 
L 237.239621 16.946588 
L 236.030478 17.297876 
L 234.845779 17.724394 
L 233.6902 18.224458 
L 232.568299 18.796095 
L 231.484506 19.437048 
L 230.443097 20.144789 
L 229.448183 20.916523 
L 228.503689 21.749206 
L 227.613344 22.639552 
L 226.780661 23.584045 
L 226.008927 24.578959 
L 225.301186 25.620368 
L 224.660232 26.704161 
L 224.088596 27.826062 
L 223.588532 28.981642 
L 223.162014 30.16634 
L 222.810725 31.375483 
L 222.536053 32.604297 
L 222.33908 33.847933 
L 222.220585 35.101483 
L 222.181034 36.36 
" clip-path="url(#p882911babc)" style="fill: none; stroke-dasharray: 1.85,0.8; stroke-dashoffset: 0; stroke: #000000; stroke-width: 0.5"/>
   </g>
   <g id="line2d_14">
    <path d="M 242.224138 36.36 
L 253.272872 19.637217 
" clip-path="url(#p882911babc)" style="fill: none; stroke: #808080; stroke-width: 3; stroke-linecap: square"/>
   </g>
   <g id="line2d_15">
    <path d="M 242.224138 36.36 
L 258.413867 24.543966 
" clip-path="url(#p882911babc)" style="fill: none; stroke: #808080; stroke-opacity: 0.5; stroke-width: 3; stroke-linecap: square"/>
   </g>
   <g id="line2d_16">
    <path d="M 242.224138 36.36 
L 262.263739 35.985287 
" clip-path="url(#p882911babc)" style="fill: none; stroke: #808080; stroke-opacity: 0.2; stroke-width: 3; stroke-linecap: square"/>
   </g>
   <g id="PathCollection_10">
    <g clip-path="url(#p882911babc)">
     <use xlink:href="#m59eeb8c72b" x="253.272872" y="19.637217" style="stroke: #000000"/>
    </g>
   </g>
   <g id="PathCollection_11">
    <g clip-path="url(#p882911babc)">
     <use xlink:href="#m28b6b73b36" x="258.413867" y="24.543966" style="fill-opacity: 0.5; stroke: #000000; stroke-opacity: 0.5"/>
    </g>
   </g>
   <g id="PathCollection_12">
    <g clip-path="url(#p882911babc)">
     <use xlink:href="#mb3b50c3f06" x="262.263739" y="35.985287" style="fill-opacity: 0.2; stroke: #000000; stroke-opacity: 0.2"/>
    </g>
   </g>
   <g id="patch_8">
    <path d="M 239.218178 31.153525 
C 238.648976 31.482155 238.137498 31.901913 237.704138 32.396066 
C 237.270777 32.890219 236.921371 33.452111 236.669849 34.059338 
C 236.418327 34.666566 236.268078 35.310951 236.225091 35.966802 
C 236.182104 36.622653 236.246959 37.281136 236.41707 37.915999 
C 236.587181 38.550862 236.860257 39.153553 237.22541 39.700043 
C 237.590563 40.246533 238.042876 40.729462 238.564314 41.129576 
C 239.085752 41.529689 239.669292 41.841598 240.29167 42.052867 
C 240.914048 42.264136 241.56688 42.371919 242.224138 42.371919 
C 242.881396 42.371919 243.534228 42.264136 244.156606 42.052867 
C 244.778984 41.841598 245.362524 41.529689 245.883962 41.129576 
C 246.4054 40.729462 246.857713 40.246533 247.222866 39.700043 
C 247.588019 39.153553 247.861095 38.550862 248.031206 37.915999 
C 248.201317 37.281136 248.266172 36.622653 248.223185 35.966802 
C 248.180198 35.310951 248.029949 34.666566 247.778427 34.059338 
C 247.526905 33.452111 247.177498 32.890219 246.744138 32.396066 
C 246.310777 31.901913 245.7993 31.482155 245.230097 31.153525 
" clip-path="url(#p882911babc)" style="fill: none; stroke: #0000ff; stroke-width: 2.5; stroke-linejoin: miter; stroke-linecap: round"/>
   </g>
   <g id="patch_9">
    <path d="M 241.759114 29.149553 
L 245.230097 35.161471 
L 248.70108 29.149553 
z
" clip-path="url(#p882911babc)" style="fill: #0000ff; stroke: #0000ff; stroke-linejoin: miter"/>
   </g>
  </g>
  <g id="axes_5">
   <g id="line2d_17">
    <path d="M 279.905172 36.36 
L 279.944723 37.618517 
L 280.063218 38.872067 
L 280.260191 40.115703 
L 280.534863 41.344517 
L 280.886152 42.55366 
L 281.31267 43.738358 
L 281.812734 44.893938 
L 282.38437 46.015839 
L 283.025324 47.099632 
L 283.733065 48.141041 
L 284.504799 49.135955 
L 285.337482 50.080448 
L 286.227827 50.970794 
L 287.172321 51.803477 
L 288.167235 52.575211 
L 289.208644 53.282952 
L 290.292437 53.923905 
L 291.414337 54.495542 
L 292.569917 54.995606 
L 293.754616 55.422124 
L 294.963759 55.773412 
L 296.192573 56.048085 
L 297.436209 56.245058 
L 298.689759 56.363553 
L 299.948276 56.403103 
L 301.206793 56.363553 
L 302.460343 56.245058 
L 303.703979 56.048085 
L 304.932793 55.773412 
L 306.141935 55.422124 
L 307.326634 54.995606 
L 308.482214 54.495542 
L 309.604115 53.923905 
L 310.687908 53.282952 
L 311.729316 52.575211 
L 312.724231 51.803477 
L 313.668724 50.970794 
L 314.559069 50.080448 
L 315.391752 49.135955 
L 316.163487 48.141041 
L 316.871228 47.099632 
L 317.512181 46.015839 
L 318.083818 44.893938 
L 318.583882 43.738358 
L 319.0104 42.55366 
L 319.361688 41.344517 
L 319.636361 40.115703 
L 319.833333 38.872067 
L 319.951829 37.618517 
L 319.991379 36.36 
L 319.951829 35.101483 
L 319.833333 33.847933 
L 319.636361 32.604297 
L 319.361688 31.375483 
L 319.0104 30.16634 
L 318.583882 28.981642 
L 318.083818 27.826062 
L 317.512181 26.704161 
L 316.871228 25.620368 
L 316.163487 24.578959 
L 315.391752 23.584045 
L 314.559069 22.639552 
L 313.668724 21.749206 
L 312.724231 20.916523 
L 311.729316 20.144789 
L 310.687908 19.437048 
L 309.604115 18.796095 
L 308.482214 18.224458 
L 307.326634 17.724394 
L 306.141935 17.297876 
L 304.932793 16.946588 
L 303.703979 16.671915 
L 302.460343 16.474942 
L 301.206793 16.356447 
L 299.948276 16.316897 
L 298.689759 16.356447 
L 297.436209 16.474942 
L 296.192573 16.671915 
L 294.963759 16.946588 
L 293.754616 17.297876 
L 292.569917 17.724394 
L 291.414337 18.224458 
L 290.292437 18.796095 
L 289.208644 19.437048 
L 288.167235 20.144789 
L 287.172321 20.916523 
L 286.227827 21.749206 
L 285.337482 22.639552 
L 284.504799 23.584045 
L 283.733065 24.578959 
L 283.025324 25.620368 
L 282.38437 26.704161 
L 281.812734 27.826062 
L 281.31267 28.981642 
L 280.886152 30.16634 
L 280.534863 31.375483 
L 280.260191 32.604297 
L 280.063218 33.847933 
L 279.944723 35.101483 
L 279.905172 36.36 
" clip-path="url(#pdde7de1984)" style="fill: none; stroke-dasharray: 1.85,0.8; stroke-dashoffset: 0; stroke: #000000; stroke-width: 0.5"/>
   </g>
   <g id="line2d_18">
    <path d="M 299.948276 36.36 
L 303.085846 16.563999 
" clip-path="url(#pdde7de1984)" style="fill: none; stroke: #808080; stroke-width: 3; stroke-linecap: square"/>
   </g>
   <g id="line2d_19">
    <path d="M 299.948276 36.36 
L 303.163253 16.576423 
" clip-path="url(#pdde7de1984)" style="fill: none; stroke: #808080; stroke-opacity: 0.5; stroke-width: 3; stroke-linecap: square"/>
   </g>
   <g id="line2d_20">
    <path d="M 299.948276 36.36 
L 303.295806 16.59842 
" clip-path="url(#pdde7de1984)" style="fill: none; stroke: #808080; stroke-opacity: 0.2; stroke-width: 3; stroke-linecap: square"/>
   </g>
   <g id="PathCollection_13">
    <g clip-path="url(#pdde7de1984)">
     <use xlink:href="#m59eeb8c72b" x="303.085846" y="16.563999" style="stroke: #000000"/>
    </g>
   </g>
   <g id="PathCollection_14">
    <g clip-path="url(#pdde7de1984)">
     <use xlink:href="#m28b6b73b36" x="303.163253" y="16.576423" style="fill-opacity: 0.5; stroke: #000000; stroke-opacity: 0.5"/>
    </g>
   </g>
   <g id="PathCollection_15">
    <g clip-path="url(#pdde7de1984)">
     <use xlink:href="#mb3b50c3f06" x="303.295806" y="16.59842" style="fill-opacity: 0.2; stroke: #000000; stroke-opacity: 0.2"/>
    </g>
   </g>
   <g id="patch_10">
    <path d="M 296.941903 31.15281 
C 296.372623 31.481484 295.861075 31.901301 295.427655 32.395522 
C 294.994235 32.889743 294.64478 33.451711 294.393224 34.059022 
C 294.141667 34.666333 293.991397 35.310806 293.948404 35.966748 
C 293.905412 36.622689 293.970276 37.281263 294.14041 37.916213 
C 294.310544 38.551163 294.583658 39.153937 294.948861 39.700502 
C 295.314064 40.247068 295.766439 40.730063 296.287949 41.130231 
C 296.809458 41.5304 297.393079 41.842352 298.015542 42.05365 
C 298.638005 42.264947 299.290927 42.372745 299.948276 42.372745 
C 300.605624 42.372745 301.258546 42.264947 301.881009 42.05365 
C 302.503473 41.842352 303.087093 41.5304 303.608603 41.130231 
C 304.130113 40.730063 304.582487 40.247068 304.947691 39.700502 
C 305.312894 39.153937 305.586007 38.551163 305.756142 37.916213 
C 305.926276 37.281263 305.99114 36.622689 305.948147 35.966748 
C 305.905155 35.310806 305.754884 34.666333 305.503328 34.059022 
C 305.251772 33.451711 304.902317 32.889743 304.468897 32.395522 
C 304.035477 31.901301 303.523929 31.481484 302.954648 31.15281 
" clip-path="url(#pdde7de1984)" style="fill: none; stroke: #0000ff; stroke-width: 2.5; stroke-linejoin: miter; stroke-linecap: round"/>
   </g>
   <g id="patch_11">
    <path d="M 299.483188 29.148562 
L 302.954648 35.161307 
L 306.426108 29.148562 
z
" clip-path="url(#pdde7de1984)" style="fill: #0000ff; stroke: #0000ff; stroke-linejoin: miter"/>
   </g>
   <g id="line2d_21">
    <path d="M 299.948276 36.36 
L 299.948276 16.316897 
" clip-path="url(#pdde7de1984)" style="fill: none; stroke-dasharray: 5.55,2.4; stroke-dashoffset: 0; stroke: #ff0000; stroke-width: 1.5"/>
   </g>
  </g>
 </g>
 <defs>
  <clipPath id="paffccf2c45">
   <rect x="45" y="12.308276" width="48.103448" height="48.103448"/>
  </clipPath>
  <clipPath id="p3edd486298">
   <rect x="102.724138" y="12.308276" width="48.103448" height="48.103448"/>
  </clipPath>
  <clipPath id="pc72beb4836">
   <rect x="160.448276" y="12.308276" width="48.103448" height="48.103448"/>
  </clipPath>
  <clipPath id="p882911babc">
   <rect x="218.172414" y="12.308276" width="48.103448" height="48.103448"/>
  </clipPath>
  <clipPath id="pdde7de1984">
   <rect x="275.896552" y="12.308276" width="48.103448" height="48.103448"/>
  </clipPath>
 </defs>
</svg>
