<?xml version="1.0" encoding="utf-8" standalone="no"?>
<!DOCTYPE svg PUBLIC "-//W3C//DTD SVG 1.1//EN"
  "http://www.w3.org/Graphics/SVG/1.1/DTD/svg11.dtd">
<svg xmlns:xlink="http://www.w3.org/1999/xlink" width="288pt" height="216pt" viewBox="0 0 288 216" xmlns="http://www.w3.org/2000/svg" version="1.1">
 <metadata>
  <rdf:RDF xmlns:dc="http://purl.org/dc/elements/1.1/" xmlns:cc="http://creativecommons.org/ns#" xmlns:rdf="http://www.w3.org/1999/02/22-rdf-syntax-ns#">
   <cc:Work>
    <dc:type rdf:resource="http://purl.org/dc/dcmitype/StillImage"/>
    <dc:date>2023-07-27T20:21:29.836788</dc:date>
    <dc:format>image/svg+xml</dc:format>
    <dc:creator>
     <cc:Agent>
      <dc:title>Matplotlib v3.7.1, https://matplotlib.org/</dc:title>
     </cc:Agent>
    </dc:creator>
   </cc:Work>
  </rdf:RDF>
 </metadata>
 <defs>
  <style type="text/css">*{stroke-linejoin: round; stroke-linecap: butt}</style>
 </defs>
 <g id="figure_1">
  <g id="patch_1">
   <path d="M 0 216 
L 288 216 
L 288 0 
L 0 0 
z
" style="fill: #ffffff"/>
  </g>
  <g id="axes_1">
   <g id="patch_2">
    <path d="M 64.435997 192.24 
L 230.764003 192.24 
L 230.764003 25.92 
L 64.435997 25.92 
z
" style="fill: #ffffff"/>
   </g>
   <g id="line2d_1">
    <path d="M 97.674609 43.008361 
L 100.059684 41.782816 
L 102.605907 40.72589 
L 105.541794 39.744945 
L 108.900609 38.851176 
L 112.97029 38.002216 
L 117.806757 37.226552 
L 123.724782 36.511441 
L 131.023285 35.862832 
L 140.194136 35.279443 
L 151.99373 34.759186 
L 167.925375 34.292803 
L 189.872786 33.887226 
L 201.783393 33.731522 
L 201.783393 33.731522 
" clip-path="url(#pff0a4066dc)" style="fill: none; stroke: #a9a9a9; stroke-linecap: square"/>
   </g>
   <g id="line2d_2">
    <path d="M 72.011937 33.551034 
L 72.201091 35.612409 
L 73.437762 49.037259 
L 74.565493 58.694747 
L 75.7199 66.812173 
L 76.97654 74.208828 
L 78.296101 80.790337 
L 79.743033 86.960708 
L 81.247975 92.490563 
L 83.043192 98.17705 
L 84.795934 102.985476 
L 86.814364 107.812305 
L 88.641663 111.658595 
L 90.675769 115.468589 
L 92.932853 119.222319 
L 95.428195 122.901189 
L 98.175589 126.488405 
L 101.186516 129.969299 
L 104.46913 133.331214 
L 108.027518 136.563916 
L 111.860529 139.659398 
L 115.961144 142.611902 
L 120.315517 145.417771 
L 124.902472 148.075131 
L 129.693752 150.584023 
L 134.654012 152.945947 
L 141.028023 155.695954 
L 147.508757 158.228364 
L 155.287463 160.993857 
L 164.148821 163.867836 
L 170.206269 165.70585 
L 170.206269 165.70585 
" clip-path="url(#pff0a4066dc)" style="fill: none; stroke: #000000; stroke-linecap: square"/>
   </g>
   <g id="line2d_3">
    <path d="M 72.055999 33.515103 
L 72.391378 33.842985 
L 72.976254 34.736142 
L 73.764724 36.373203 
L 74.938766 39.381996 
L 77.008551 45.411912 
L 81.930708 59.855909 
L 84.749435 67.407511 
L 87.415383 73.972555 
L 90.250615 80.368538 
L 93.165508 86.370317 
L 96.055175 91.807076 
L 98.806481 96.56196 
L 101.829491 101.366718 
L 105.140545 106.185184 
L 108.130494 110.185313 
L 111.337937 114.150272 
L 114.768769 118.061337 
L 118.42701 121.901062 
L 122.314811 125.653716 
L 126.432157 129.305328 
L 130.777039 132.843982 
L 135.345452 136.259772 
L 140.131974 139.544975 
L 145.130252 142.693895 
L 150.33376 145.702999 
L 155.736281 148.570711 
L 161.331735 151.29739 
L 167.112112 153.885158 
L 174.270754 156.812242 
L 181.613498 159.552651 
L 190.22985 162.525477 
L 197.366016 164.888606 
L 197.366016 164.888606 
" clip-path="url(#pff0a4066dc)" style="fill: none; stroke: #ff0000; stroke-linecap: square"/>
   </g>
   <g id="line2d_4">
    <path d="M 72.156295 33.506956 
L 72.930104 33.776187 
L 73.875414 34.339748 
L 74.740567 35.113312 
L 75.515779 36.096284 
L 76.328548 37.492701 
L 77.288263 39.634429 
L 78.506814 42.947412 
L 80.997555 50.546274 
L 84.726261 61.740635 
L 87.840742 70.422866 
L 90.918033 78.387129 
L 94.004494 85.780503 
L 96.951558 92.308227 
L 99.941507 98.430203 
L 102.903849 104.031939 
L 106.187265 109.744422 
L 109.351191 114.798305 
L 112.811945 119.868486 
L 116.032629 124.199476 
L 119.503105 128.490979 
L 123.236017 132.718059 
L 126.554723 136.17334 
L 130.067012 139.552311 
L 133.774919 142.841362 
L 137.677775 146.02757 
L 141.771892 149.099059 
L 146.050161 152.045317 
L 150.501847 154.857225 
L 155.112743 157.527335 
L 159.865861 160.05009 
L 164.742753 162.421848 
L 170.734178 165.066779 
L 176.85819 167.494243 
L 183.113348 169.711281 
L 189.52221 171.730594 
L 196.106432 173.570073 
L 204.982263 175.777626 
L 207.126667 176.28931 
L 207.126667 176.28931 
" clip-path="url(#pff0a4066dc)" style="fill: none; stroke: #008000; stroke-linecap: square"/>
   </g>
   <g id="line2d_5">
    <path d="M 72.165983 35.166782 
L 72.718442 38.90461 
L 73.59239 43.248393 
L 74.766309 47.938047 
L 76.18961 52.739245 
L 77.945765 57.871535 
L 79.906728 62.92156 
L 82.130081 68.036123 
L 84.586319 73.128263 
L 87.236494 78.120358 
L 90.245588 83.295005 
L 93.394006 88.262253 
L 96.882171 93.336008 
L 100.431884 98.120723 
L 104.283767 102.956546 
L 108.438192 107.826364 
L 112.893222 112.714931 
L 117.644934 117.609122 
L 122.688038 122.497388 
L 128.015983 127.369598 
L 134.063621 132.587855 
L 140.422276 137.76584 
L 147.081118 142.894191 
L 154.029618 147.964975 
L 161.259295 152.970246 
L 168.766621 157.895756 
L 175.991656 162.367786 
L 182.307926 166.035082 
L 188.820681 169.556474 
L 196.130864 173.238039 
L 206.656355 178.525629 
L 216.019964 183.443272 
L 218.047354 184.11057 
L 220.151248 184.493411 
L 222.289956 184.642695 
L 222.289956 184.642695 
" clip-path="url(#pff0a4066dc)" style="fill: none; stroke: #0000ff; stroke-width: 4; stroke-linecap: square"/>
   </g>
   <g id="matplotlib.axis_1">
    <g id="xtick_1">
     <g id="line2d_6">
      <defs>
       <path id="md074494498" d="M 0 0 
L 0 3.5 
" style="stroke: #000000; stroke-width: 0.8"/>
      </defs>
      <g>
       <use xlink:href="#md074494498" x="71.996361" y="192.24" style="stroke: #000000; stroke-width: 0.8"/>
      </g>
     </g>
     <g id="text_1">
      <!-- 0.0 -->
      <g transform="translate(62.454486 208.358125) scale(0.12 -0.12)">
       <defs>
        <path id="DejaVuSans-30" d="M 2034 4250 
Q 1547 4250 1301 3770 
Q 1056 3291 1056 2328 
Q 1056 1369 1301 889 
Q 1547 409 2034 409 
Q 2525 409 2770 889 
Q 3016 1369 3016 2328 
Q 3016 3291 2770 3770 
Q 2525 4250 2034 4250 
z
M 2034 4750 
Q 2819 4750 3233 4129 
Q 3647 3509 3647 2328 
Q 3647 1150 3233 529 
Q 2819 -91 2034 -91 
Q 1250 -91 836 529 
Q 422 1150 422 2328 
Q 422 3509 836 4129 
Q 1250 4750 2034 4750 
z
" transform="scale(0.015625)"/>
        <path id="DejaVuSans-2e" d="M 684 794 
L 1344 794 
L 1344 0 
L 684 0 
L 684 794 
z
" transform="scale(0.015625)"/>
       </defs>
       <use xlink:href="#DejaVuSans-30"/>
       <use xlink:href="#DejaVuSans-2e" x="63.623047"/>
       <use xlink:href="#DejaVuSans-30" x="95.410156"/>
      </g>
     </g>
    </g>
    <g id="xtick_2">
     <g id="line2d_7">
      <g>
       <use xlink:href="#md074494498" x="147.596361" y="192.24" style="stroke: #000000; stroke-width: 0.8"/>
      </g>
     </g>
     <g id="text_2">
      <!-- 0.5 -->
      <g transform="translate(138.054486 208.358125) scale(0.12 -0.12)">
       <defs>
        <path id="DejaVuSans-35" d="M 691 4666 
L 3169 4666 
L 3169 4134 
L 1269 4134 
L 1269 2991 
Q 1406 3038 1543 3061 
Q 1681 3084 1819 3084 
Q 2600 3084 3056 2656 
Q 3513 2228 3513 1497 
Q 3513 744 3044 326 
Q 2575 -91 1722 -91 
Q 1428 -91 1123 -41 
Q 819 9 494 109 
L 494 744 
Q 775 591 1075 516 
Q 1375 441 1709 441 
Q 2250 441 2565 725 
Q 2881 1009 2881 1497 
Q 2881 1984 2565 2268 
Q 2250 2553 1709 2553 
Q 1456 2553 1204 2497 
Q 953 2441 691 2322 
L 691 4666 
z
" transform="scale(0.015625)"/>
       </defs>
       <use xlink:href="#DejaVuSans-30"/>
       <use xlink:href="#DejaVuSans-2e" x="63.623047"/>
       <use xlink:href="#DejaVuSans-35" x="95.410156"/>
      </g>
     </g>
    </g>
    <g id="xtick_3">
     <g id="line2d_8">
      <g>
       <use xlink:href="#md074494498" x="223.196361" y="192.24" style="stroke: #000000; stroke-width: 0.8"/>
      </g>
     </g>
     <g id="text_3">
      <!-- 1.0 -->
      <g transform="translate(213.654486 208.358125) scale(0.12 -0.12)">
       <defs>
        <path id="DejaVuSans-31" d="M 794 531 
L 1825 531 
L 1825 4091 
L 703 3866 
L 703 4441 
L 1819 4666 
L 2450 4666 
L 2450 531 
L 3481 531 
L 3481 0 
L 794 0 
L 794 531 
z
" transform="scale(0.015625)"/>
       </defs>
       <use xlink:href="#DejaVuSans-31"/>
       <use xlink:href="#DejaVuSans-2e" x="63.623047"/>
       <use xlink:href="#DejaVuSans-30" x="95.410156"/>
      </g>
     </g>
    </g>
   </g>
   <g id="matplotlib.axis_2">
    <g id="ytick_1">
     <g id="line2d_9">
      <defs>
       <path id="m0dd5c3302a" d="M 0 0 
L -3.5 0 
" style="stroke: #000000; stroke-width: 0.8"/>
      </defs>
      <g>
       <use xlink:href="#m0dd5c3302a" x="64.435997" y="184.68" style="stroke: #000000; stroke-width: 0.8"/>
      </g>
     </g>
     <g id="text_4">
      <!-- 0.0 -->
      <g transform="translate(38.352247 189.239062) scale(0.12 -0.12)">
       <use xlink:href="#DejaVuSans-30"/>
       <use xlink:href="#DejaVuSans-2e" x="63.623047"/>
       <use xlink:href="#DejaVuSans-30" x="95.410156"/>
      </g>
     </g>
    </g>
    <g id="ytick_2">
     <g id="line2d_10">
      <g>
       <use xlink:href="#m0dd5c3302a" x="64.435997" y="154.44" style="stroke: #000000; stroke-width: 0.8"/>
      </g>
     </g>
     <g id="text_5">
      <!-- 0.2 -->
      <g transform="translate(38.352247 158.999062) scale(0.12 -0.12)">
       <defs>
        <path id="DejaVuSans-32" d="M 1228 531 
L 3431 531 
L 3431 0 
L 469 0 
L 469 531 
Q 828 903 1448 1529 
Q 2069 2156 2228 2338 
Q 2531 2678 2651 2914 
Q 2772 3150 2772 3378 
Q 2772 3750 2511 3984 
Q 2250 4219 1831 4219 
Q 1534 4219 1204 4116 
Q 875 4013 500 3803 
L 500 4441 
Q 881 4594 1212 4672 
Q 1544 4750 1819 4750 
Q 2544 4750 2975 4387 
Q 3406 4025 3406 3419 
Q 3406 3131 3298 2873 
Q 3191 2616 2906 2266 
Q 2828 2175 2409 1742 
Q 1991 1309 1228 531 
z
" transform="scale(0.015625)"/>
       </defs>
       <use xlink:href="#DejaVuSans-30"/>
       <use xlink:href="#DejaVuSans-2e" x="63.623047"/>
       <use xlink:href="#DejaVuSans-32" x="95.410156"/>
      </g>
     </g>
    </g>
    <g id="ytick_3">
     <g id="line2d_11">
      <g>
       <use xlink:href="#m0dd5c3302a" x="64.435997" y="124.2" style="stroke: #000000; stroke-width: 0.8"/>
      </g>
     </g>
     <g id="text_6">
      <!-- 0.4 -->
      <g transform="translate(38.352247 128.759062) scale(0.12 -0.12)">
       <defs>
        <path id="DejaVuSans-34" d="M 2419 4116 
L 825 1625 
L 2419 1625 
L 2419 4116 
z
M 2253 4666 
L 3047 4666 
L 3047 1625 
L 3713 1625 
L 3713 1100 
L 3047 1100 
L 3047 0 
L 2419 0 
L 2419 1100 
L 313 1100 
L 313 1709 
L 2253 4666 
z
" transform="scale(0.015625)"/>
       </defs>
       <use xlink:href="#DejaVuSans-30"/>
       <use xlink:href="#DejaVuSans-2e" x="63.623047"/>
       <use xlink:href="#DejaVuSans-34" x="95.410156"/>
      </g>
     </g>
    </g>
    <g id="ytick_4">
     <g id="line2d_12">
      <g>
       <use xlink:href="#m0dd5c3302a" x="64.435997" y="93.96" style="stroke: #000000; stroke-width: 0.8"/>
      </g>
     </g>
     <g id="text_7">
      <!-- 0.6 -->
      <g transform="translate(38.352247 98.519062) scale(0.12 -0.12)">
       <defs>
        <path id="DejaVuSans-36" d="M 2113 2584 
Q 1688 2584 1439 2293 
Q 1191 2003 1191 1497 
Q 1191 994 1439 701 
Q 1688 409 2113 409 
Q 2538 409 2786 701 
Q 3034 994 3034 1497 
Q 3034 2003 2786 2293 
Q 2538 2584 2113 2584 
z
M 3366 4563 
L 3366 3988 
Q 3128 4100 2886 4159 
Q 2644 4219 2406 4219 
Q 1781 4219 1451 3797 
Q 1122 3375 1075 2522 
Q 1259 2794 1537 2939 
Q 1816 3084 2150 3084 
Q 2853 3084 3261 2657 
Q 3669 2231 3669 1497 
Q 3669 778 3244 343 
Q 2819 -91 2113 -91 
Q 1303 -91 875 529 
Q 447 1150 447 2328 
Q 447 3434 972 4092 
Q 1497 4750 2381 4750 
Q 2619 4750 2861 4703 
Q 3103 4656 3366 4563 
z
" transform="scale(0.015625)"/>
       </defs>
       <use xlink:href="#DejaVuSans-30"/>
       <use xlink:href="#DejaVuSans-2e" x="63.623047"/>
       <use xlink:href="#DejaVuSans-36" x="95.410156"/>
      </g>
     </g>
    </g>
    <g id="ytick_5">
     <g id="line2d_13">
      <g>
       <use xlink:href="#m0dd5c3302a" x="64.435997" y="63.72" style="stroke: #000000; stroke-width: 0.8"/>
      </g>
     </g>
     <g id="text_8">
      <!-- 0.8 -->
      <g transform="translate(38.352247 68.279062) scale(0.12 -0.12)">
       <defs>
        <path id="DejaVuSans-38" d="M 2034 2216 
Q 1584 2216 1326 1975 
Q 1069 1734 1069 1313 
Q 1069 891 1326 650 
Q 1584 409 2034 409 
Q 2484 409 2743 651 
Q 3003 894 3003 1313 
Q 3003 1734 2745 1975 
Q 2488 2216 2034 2216 
z
M 1403 2484 
Q 997 2584 770 2862 
Q 544 3141 544 3541 
Q 544 4100 942 4425 
Q 1341 4750 2034 4750 
Q 2731 4750 3128 4425 
Q 3525 4100 3525 3541 
Q 3525 3141 3298 2862 
Q 3072 2584 2669 2484 
Q 3125 2378 3379 2068 
Q 3634 1759 3634 1313 
Q 3634 634 3220 271 
Q 2806 -91 2034 -91 
Q 1263 -91 848 271 
Q 434 634 434 1313 
Q 434 1759 690 2068 
Q 947 2378 1403 2484 
z
M 1172 3481 
Q 1172 3119 1398 2916 
Q 1625 2713 2034 2713 
Q 2441 2713 2670 2916 
Q 2900 3119 2900 3481 
Q 2900 3844 2670 4047 
Q 2441 4250 2034 4250 
Q 1625 4250 1398 4047 
Q 1172 3844 1172 3481 
z
" transform="scale(0.015625)"/>
       </defs>
       <use xlink:href="#DejaVuSans-30"/>
       <use xlink:href="#DejaVuSans-2e" x="63.623047"/>
       <use xlink:href="#DejaVuSans-38" x="95.410156"/>
      </g>
     </g>
    </g>
    <g id="ytick_6">
     <g id="line2d_14">
      <g>
       <use xlink:href="#m0dd5c3302a" x="64.435997" y="33.48" style="stroke: #000000; stroke-width: 0.8"/>
      </g>
     </g>
     <g id="text_9">
      <!-- 1.0 -->
      <g transform="translate(38.352247 38.039062) scale(0.12 -0.12)">
       <use xlink:href="#DejaVuSans-31"/>
       <use xlink:href="#DejaVuSans-2e" x="63.623047"/>
       <use xlink:href="#DejaVuSans-30" x="95.410156"/>
      </g>
     </g>
    </g>
   </g>
   <g id="line2d_15">
    <path d="M 71.996361 33.48 
L 71.996563 33.505198 
L 71.997981 33.580777 
L 72.00183 33.706694 
L 72.009322 33.882875 
L 72.021668 34.109218 
L 72.040078 34.38559 
L 72.065757 34.711832 
L 72.099904 35.087753 
L 72.143715 35.513134 
L 72.198381 35.987729 
L 72.265086 36.511261 
L 72.345006 37.083425 
L 72.43931 37.703889 
L 72.549159 38.372291 
L 72.675705 39.088244 
L 72.82009 39.851329 
L 72.983445 40.661104 
L 73.166891 41.517096 
L 73.371536 42.418809 
L 73.598478 43.365718 
L 73.8488 44.357271 
L 74.123571 45.392892 
L 74.423848 46.471978 
L 74.750672 47.593901 
L 75.105067 48.758009 
L 75.488044 49.963625 
L 75.900595 51.210046 
L 76.343695 52.496549 
L 76.818303 53.822384 
L 77.325358 55.18678 
L 77.865781 56.588943 
L 78.440472 58.028057 
L 79.050313 59.503286 
L 79.696165 61.013771 
L 80.378868 62.558633 
L 81.099239 64.136973 
L 81.858076 65.747874 
L 82.656153 67.390397 
L 83.494221 69.063588 
L 84.373008 70.766473 
L 85.293217 72.498061 
L 86.255531 74.257344 
L 87.260604 76.0433 
L 88.309066 77.854889 
L 89.401525 79.691057 
L 90.538559 81.550736 
L 91.720723 83.432843 
L 92.948545 85.336285 
L 94.222525 87.259954 
L 95.543139 89.20273 
L 96.910834 91.163483 
L 98.326028 93.141073 
L 99.789116 95.134348 
L 101.300461 97.142149 
L 102.860399 99.163309 
L 104.469238 101.196651 
L 106.127259 103.240992 
L 107.834712 105.295143 
L 109.591819 107.357908 
L 111.398773 109.428088 
L 113.25574 111.504479 
L 115.162853 113.585872 
L 117.12022 115.671056 
L 119.127917 117.758818 
L 121.185991 119.847943 
L 123.294461 121.937217 
L 125.453316 124.025424 
L 127.662515 126.111348 
L 129.921989 128.193776 
L 132.231639 130.271496 
L 134.591336 132.343301 
L 137.000923 134.407984 
L 139.460215 136.464344 
L 141.968995 138.511185 
L 144.52702 140.547316 
L 147.134017 142.571552 
L 149.789685 144.582716 
L 152.493695 146.579638 
L 155.245689 148.561155 
L 158.045282 150.526116 
L 160.89206 152.473377 
L 163.785583 154.401804 
L 166.725383 156.310277 
L 169.710965 158.197684 
L 172.741808 160.062928 
L 175.817364 161.904923 
L 178.937059 163.722598 
L 182.100295 165.514896 
L 185.306445 167.280773 
L 188.554861 169.019202 
L 191.844869 170.729172 
L 195.175769 172.409688 
L 198.54684 174.059772 
L 201.957335 175.678464 
L 205.406487 177.264823 
L 208.893503 178.817925 
L 212.417572 180.336868 
L 215.977858 181.820766 
L 219.573506 183.268758 
L 223.203639 184.68 
" clip-path="url(#pff0a4066dc)" style="fill: none; stroke-dasharray: 5.55,2.4; stroke-dashoffset: 0; stroke: #ffa500; stroke-width: 1.5"/>
   </g>
   <g id="patch_3">
    <path d="M 64.435997 192.24 
L 64.435997 25.92 
" style="fill: none; stroke: #000000; stroke-width: 0.8; stroke-linejoin: miter; stroke-linecap: square"/>
   </g>
   <g id="patch_4">
    <path d="M 64.435997 192.24 
L 230.764003 192.24 
" style="fill: none; stroke: #000000; stroke-width: 0.8; stroke-linejoin: miter; stroke-linecap: square"/>
   </g>
   <g id="legend_1">
    <g id="patch_5">
     <path d="M 151.564003 125.258125 
L 223.764003 125.258125 
Q 225.764003 125.258125 225.764003 123.258125 
L 225.764003 94.901875 
Q 225.764003 92.901875 223.764003 92.901875 
L 151.564003 92.901875 
Q 149.564003 92.901875 149.564003 94.901875 
L 149.564003 123.258125 
Q 149.564003 125.258125 151.564003 125.258125 
z
" style="fill: #ffffff; opacity: 0.8; stroke: #cccccc; stroke-linejoin: miter"/>
    </g>
    <g id="line2d_16">
     <path d="M 153.564003 101.000312 
L 163.564003 101.000312 
L 173.564003 101.000312 
" style="fill: none; stroke: #0000ff; stroke-width: 4; stroke-linecap: square"/>
    </g>
    <g id="text_10">
     <!-- PINN -->
     <g transform="translate(181.564003 104.500312) scale(0.1 -0.1)">
      <defs>
       <path id="DejaVuSans-50" d="M 1259 4147 
L 1259 2394 
L 2053 2394 
Q 2494 2394 2734 2622 
Q 2975 2850 2975 3272 
Q 2975 3691 2734 3919 
Q 2494 4147 2053 4147 
L 1259 4147 
z
M 628 4666 
L 2053 4666 
Q 2838 4666 3239 4311 
Q 3641 3956 3641 3272 
Q 3641 2581 3239 2228 
Q 2838 1875 2053 1875 
L 1259 1875 
L 1259 0 
L 628 0 
L 628 4666 
z
" transform="scale(0.015625)"/>
       <path id="DejaVuSans-49" d="M 628 4666 
L 1259 4666 
L 1259 0 
L 628 0 
L 628 4666 
z
" transform="scale(0.015625)"/>
       <path id="DejaVuSans-4e" d="M 628 4666 
L 1478 4666 
L 3547 763 
L 3547 4666 
L 4159 4666 
L 4159 0 
L 3309 0 
L 1241 3903 
L 1241 0 
L 628 0 
L 628 4666 
z
" transform="scale(0.015625)"/>
      </defs>
      <use xlink:href="#DejaVuSans-50"/>
      <use xlink:href="#DejaVuSans-49" x="60.302734"/>
      <use xlink:href="#DejaVuSans-4e" x="89.794922"/>
      <use xlink:href="#DejaVuSans-4e" x="164.599609"/>
     </g>
    </g>
    <g id="line2d_17">
     <path d="M 153.564003 115.678438 
L 163.564003 115.678438 
L 173.564003 115.678438 
" style="fill: none; stroke-dasharray: 5.55,2.4; stroke-dashoffset: 0; stroke: #ffa500; stroke-width: 1.5"/>
    </g>
    <g id="text_11">
     <!-- Analytic -->
     <g transform="translate(181.564003 119.178438) scale(0.1 -0.1)">
      <defs>
       <path id="DejaVuSans-41" d="M 2188 4044 
L 1331 1722 
L 3047 1722 
L 2188 4044 
z
M 1831 4666 
L 2547 4666 
L 4325 0 
L 3669 0 
L 3244 1197 
L 1141 1197 
L 716 0 
L 50 0 
L 1831 4666 
z
" transform="scale(0.015625)"/>
       <path id="DejaVuSans-6e" d="M 3513 2113 
L 3513 0 
L 2938 0 
L 2938 2094 
Q 2938 2591 2744 2837 
Q 2550 3084 2163 3084 
Q 1697 3084 1428 2787 
Q 1159 2491 1159 1978 
L 1159 0 
L 581 0 
L 581 3500 
L 1159 3500 
L 1159 2956 
Q 1366 3272 1645 3428 
Q 1925 3584 2291 3584 
Q 2894 3584 3203 3211 
Q 3513 2838 3513 2113 
z
" transform="scale(0.015625)"/>
       <path id="DejaVuSans-61" d="M 2194 1759 
Q 1497 1759 1228 1600 
Q 959 1441 959 1056 
Q 959 750 1161 570 
Q 1363 391 1709 391 
Q 2188 391 2477 730 
Q 2766 1069 2766 1631 
L 2766 1759 
L 2194 1759 
z
M 3341 1997 
L 3341 0 
L 2766 0 
L 2766 531 
Q 2569 213 2275 61 
Q 1981 -91 1556 -91 
Q 1019 -91 701 211 
Q 384 513 384 1019 
Q 384 1609 779 1909 
Q 1175 2209 1959 2209 
L 2766 2209 
L 2766 2266 
Q 2766 2663 2505 2880 
Q 2244 3097 1772 3097 
Q 1472 3097 1187 3025 
Q 903 2953 641 2809 
L 641 3341 
Q 956 3463 1253 3523 
Q 1550 3584 1831 3584 
Q 2591 3584 2966 3190 
Q 3341 2797 3341 1997 
z
" transform="scale(0.015625)"/>
       <path id="DejaVuSans-6c" d="M 603 4863 
L 1178 4863 
L 1178 0 
L 603 0 
L 603 4863 
z
" transform="scale(0.015625)"/>
       <path id="DejaVuSans-79" d="M 2059 -325 
Q 1816 -950 1584 -1140 
Q 1353 -1331 966 -1331 
L 506 -1331 
L 506 -850 
L 844 -850 
Q 1081 -850 1212 -737 
Q 1344 -625 1503 -206 
L 1606 56 
L 191 3500 
L 800 3500 
L 1894 763 
L 2988 3500 
L 3597 3500 
L 2059 -325 
z
" transform="scale(0.015625)"/>
       <path id="DejaVuSans-74" d="M 1172 4494 
L 1172 3500 
L 2356 3500 
L 2356 3053 
L 1172 3053 
L 1172 1153 
Q 1172 725 1289 603 
Q 1406 481 1766 481 
L 2356 481 
L 2356 0 
L 1766 0 
Q 1100 0 847 248 
Q 594 497 594 1153 
L 594 3053 
L 172 3053 
L 172 3500 
L 594 3500 
L 594 4494 
L 1172 4494 
z
" transform="scale(0.015625)"/>
       <path id="DejaVuSans-69" d="M 603 3500 
L 1178 3500 
L 1178 0 
L 603 0 
L 603 3500 
z
M 603 4863 
L 1178 4863 
L 1178 4134 
L 603 4134 
L 603 4863 
z
" transform="scale(0.015625)"/>
       <path id="DejaVuSans-63" d="M 3122 3366 
L 3122 2828 
Q 2878 2963 2633 3030 
Q 2388 3097 2138 3097 
Q 1578 3097 1268 2742 
Q 959 2388 959 1747 
Q 959 1106 1268 751 
Q 1578 397 2138 397 
Q 2388 397 2633 464 
Q 2878 531 3122 666 
L 3122 134 
Q 2881 22 2623 -34 
Q 2366 -91 2075 -91 
Q 1284 -91 818 406 
Q 353 903 353 1747 
Q 353 2603 823 3093 
Q 1294 3584 2113 3584 
Q 2378 3584 2631 3529 
Q 2884 3475 3122 3366 
z
" transform="scale(0.015625)"/>
      </defs>
      <use xlink:href="#DejaVuSans-41"/>
      <use xlink:href="#DejaVuSans-6e" x="68.408203"/>
      <use xlink:href="#DejaVuSans-61" x="131.787109"/>
      <use xlink:href="#DejaVuSans-6c" x="193.066406"/>
      <use xlink:href="#DejaVuSans-79" x="220.849609"/>
      <use xlink:href="#DejaVuSans-74" x="280.029297"/>
      <use xlink:href="#DejaVuSans-69" x="319.238281"/>
      <use xlink:href="#DejaVuSans-63" x="347.021484"/>
     </g>
    </g>
   </g>
  </g>
 </g>
 <defs>
  <clipPath id="pff0a4066dc">
   <rect x="64.435997" y="25.92" width="166.328006" height="166.32"/>
  </clipPath>
 </defs>
</svg>
