<?xml version="1.0" encoding="utf-8" standalone="no"?>
<!DOCTYPE svg PUBLIC "-//W3C//DTD SVG 1.1//EN"
  "http://www.w3.org/Graphics/SVG/1.1/DTD/svg11.dtd">
<svg xmlns:xlink="http://www.w3.org/1999/xlink" width="432pt" height="216pt" viewBox="0 0 432 216" xmlns="http://www.w3.org/2000/svg" version="1.1">
 <metadata>
  <rdf:RDF xmlns:dc="http://purl.org/dc/elements/1.1/" xmlns:cc="http://creativecommons.org/ns#" xmlns:rdf="http://www.w3.org/1999/02/22-rdf-syntax-ns#">
   <cc:Work>
    <dc:type rdf:resource="http://purl.org/dc/dcmitype/StillImage"/>
    <dc:date>2023-07-28T11:52:40.143136</dc:date>
    <dc:format>image/svg+xml</dc:format>
    <dc:creator>
     <cc:Agent>
      <dc:title>Matplotlib v3.7.1, https://matplotlib.org/</dc:title>
     </cc:Agent>
    </dc:creator>
   </cc:Work>
  </rdf:RDF>
 </metadata>
 <defs>
  <style type="text/css">*{stroke-linejoin: round; stroke-linecap: butt}</style>
 </defs>
 <g id="figure_1">
  <g id="patch_1">
   <path d="M 0 216 
L 432 216 
L 432 0 
L 0 0 
z
" style="fill: #ffffff"/>
  </g>
  <g id="axes_1">
   <g id="patch_2">
    <path d="M 54 192.24 
L 388.8 192.24 
L 388.8 25.92 
L 54 25.92 
z
" style="fill: #ffffff"/>
   </g>
   <g id="matplotlib.axis_1">
    <g id="xtick_1">
     <g id="line2d_1">
      <defs>
       <path id="m0e75932854" d="M 0 0 
L 0 3.5 
" style="stroke: #000000; stroke-width: 0.8"/>
      </defs>
      <g>
       <use xlink:href="#m0e75932854" x="69.218182" y="192.24" style="stroke: #000000; stroke-width: 0.8"/>
      </g>
     </g>
     <g id="text_1">
      <!-- 0.0 -->
      <g transform="translate(59.676307 208.358125) scale(0.12 -0.12)">
       <defs>
        <path id="DejaVuSans-30" d="M 2034 4250 
Q 1547 4250 1301 3770 
Q 1056 3291 1056 2328 
Q 1056 1369 1301 889 
Q 1547 409 2034 409 
Q 2525 409 2770 889 
Q 3016 1369 3016 2328 
Q 3016 3291 2770 3770 
Q 2525 4250 2034 4250 
z
M 2034 4750 
Q 2819 4750 3233 4129 
Q 3647 3509 3647 2328 
Q 3647 1150 3233 529 
Q 2819 -91 2034 -91 
Q 1250 -91 836 529 
Q 422 1150 422 2328 
Q 422 3509 836 4129 
Q 1250 4750 2034 4750 
z
" transform="scale(0.015625)"/>
        <path id="DejaVuSans-2e" d="M 684 794 
L 1344 794 
L 1344 0 
L 684 0 
L 684 794 
z
" transform="scale(0.015625)"/>
       </defs>
       <use xlink:href="#DejaVuSans-30"/>
       <use xlink:href="#DejaVuSans-2e" x="63.623047"/>
       <use xlink:href="#DejaVuSans-30" x="95.410156"/>
      </g>
     </g>
    </g>
    <g id="xtick_2">
     <g id="line2d_2">
      <g>
       <use xlink:href="#m0e75932854" x="130.090909" y="192.24" style="stroke: #000000; stroke-width: 0.8"/>
      </g>
     </g>
     <g id="text_2">
      <!-- 0.2 -->
      <g transform="translate(120.549034 208.358125) scale(0.12 -0.12)">
       <defs>
        <path id="DejaVuSans-32" d="M 1228 531 
L 3431 531 
L 3431 0 
L 469 0 
L 469 531 
Q 828 903 1448 1529 
Q 2069 2156 2228 2338 
Q 2531 2678 2651 2914 
Q 2772 3150 2772 3378 
Q 2772 3750 2511 3984 
Q 2250 4219 1831 4219 
Q 1534 4219 1204 4116 
Q 875 4013 500 3803 
L 500 4441 
Q 881 4594 1212 4672 
Q 1544 4750 1819 4750 
Q 2544 4750 2975 4387 
Q 3406 4025 3406 3419 
Q 3406 3131 3298 2873 
Q 3191 2616 2906 2266 
Q 2828 2175 2409 1742 
Q 1991 1309 1228 531 
z
" transform="scale(0.015625)"/>
       </defs>
       <use xlink:href="#DejaVuSans-30"/>
       <use xlink:href="#DejaVuSans-2e" x="63.623047"/>
       <use xlink:href="#DejaVuSans-32" x="95.410156"/>
      </g>
     </g>
    </g>
    <g id="xtick_3">
     <g id="line2d_3">
      <g>
       <use xlink:href="#m0e75932854" x="190.963636" y="192.24" style="stroke: #000000; stroke-width: 0.8"/>
      </g>
     </g>
     <g id="text_3">
      <!-- 0.4 -->
      <g transform="translate(181.421761 208.358125) scale(0.12 -0.12)">
       <defs>
        <path id="DejaVuSans-34" d="M 2419 4116 
L 825 1625 
L 2419 1625 
L 2419 4116 
z
M 2253 4666 
L 3047 4666 
L 3047 1625 
L 3713 1625 
L 3713 1100 
L 3047 1100 
L 3047 0 
L 2419 0 
L 2419 1100 
L 313 1100 
L 313 1709 
L 2253 4666 
z
" transform="scale(0.015625)"/>
       </defs>
       <use xlink:href="#DejaVuSans-30"/>
       <use xlink:href="#DejaVuSans-2e" x="63.623047"/>
       <use xlink:href="#DejaVuSans-34" x="95.410156"/>
      </g>
     </g>
    </g>
    <g id="xtick_4">
     <g id="line2d_4">
      <g>
       <use xlink:href="#m0e75932854" x="251.836364" y="192.24" style="stroke: #000000; stroke-width: 0.8"/>
      </g>
     </g>
     <g id="text_4">
      <!-- 0.6 -->
      <g transform="translate(242.294489 208.358125) scale(0.12 -0.12)">
       <defs>
        <path id="DejaVuSans-36" d="M 2113 2584 
Q 1688 2584 1439 2293 
Q 1191 2003 1191 1497 
Q 1191 994 1439 701 
Q 1688 409 2113 409 
Q 2538 409 2786 701 
Q 3034 994 3034 1497 
Q 3034 2003 2786 2293 
Q 2538 2584 2113 2584 
z
M 3366 4563 
L 3366 3988 
Q 3128 4100 2886 4159 
Q 2644 4219 2406 4219 
Q 1781 4219 1451 3797 
Q 1122 3375 1075 2522 
Q 1259 2794 1537 2939 
Q 1816 3084 2150 3084 
Q 2853 3084 3261 2657 
Q 3669 2231 3669 1497 
Q 3669 778 3244 343 
Q 2819 -91 2113 -91 
Q 1303 -91 875 529 
Q 447 1150 447 2328 
Q 447 3434 972 4092 
Q 1497 4750 2381 4750 
Q 2619 4750 2861 4703 
Q 3103 4656 3366 4563 
z
" transform="scale(0.015625)"/>
       </defs>
       <use xlink:href="#DejaVuSans-30"/>
       <use xlink:href="#DejaVuSans-2e" x="63.623047"/>
       <use xlink:href="#DejaVuSans-36" x="95.410156"/>
      </g>
     </g>
    </g>
    <g id="xtick_5">
     <g id="line2d_5">
      <g>
       <use xlink:href="#m0e75932854" x="312.709091" y="192.24" style="stroke: #000000; stroke-width: 0.8"/>
      </g>
     </g>
     <g id="text_5">
      <!-- 0.8 -->
      <g transform="translate(303.167216 208.358125) scale(0.12 -0.12)">
       <defs>
        <path id="DejaVuSans-38" d="M 2034 2216 
Q 1584 2216 1326 1975 
Q 1069 1734 1069 1313 
Q 1069 891 1326 650 
Q 1584 409 2034 409 
Q 2484 409 2743 651 
Q 3003 894 3003 1313 
Q 3003 1734 2745 1975 
Q 2488 2216 2034 2216 
z
M 1403 2484 
Q 997 2584 770 2862 
Q 544 3141 544 3541 
Q 544 4100 942 4425 
Q 1341 4750 2034 4750 
Q 2731 4750 3128 4425 
Q 3525 4100 3525 3541 
Q 3525 3141 3298 2862 
Q 3072 2584 2669 2484 
Q 3125 2378 3379 2068 
Q 3634 1759 3634 1313 
Q 3634 634 3220 271 
Q 2806 -91 2034 -91 
Q 1263 -91 848 271 
Q 434 634 434 1313 
Q 434 1759 690 2068 
Q 947 2378 1403 2484 
z
M 1172 3481 
Q 1172 3119 1398 2916 
Q 1625 2713 2034 2713 
Q 2441 2713 2670 2916 
Q 2900 3119 2900 3481 
Q 2900 3844 2670 4047 
Q 2441 4250 2034 4250 
Q 1625 4250 1398 4047 
Q 1172 3844 1172 3481 
z
" transform="scale(0.015625)"/>
       </defs>
       <use xlink:href="#DejaVuSans-30"/>
       <use xlink:href="#DejaVuSans-2e" x="63.623047"/>
       <use xlink:href="#DejaVuSans-38" x="95.410156"/>
      </g>
     </g>
    </g>
    <g id="xtick_6">
     <g id="line2d_6">
      <g>
       <use xlink:href="#m0e75932854" x="373.581818" y="192.24" style="stroke: #000000; stroke-width: 0.8"/>
      </g>
     </g>
     <g id="text_6">
      <!-- 1.0 -->
      <g transform="translate(364.039943 208.358125) scale(0.12 -0.12)">
       <defs>
        <path id="DejaVuSans-31" d="M 794 531 
L 1825 531 
L 1825 4091 
L 703 3866 
L 703 4441 
L 1819 4666 
L 2450 4666 
L 2450 531 
L 3481 531 
L 3481 0 
L 794 0 
L 794 531 
z
" transform="scale(0.015625)"/>
       </defs>
       <use xlink:href="#DejaVuSans-31"/>
       <use xlink:href="#DejaVuSans-2e" x="63.623047"/>
       <use xlink:href="#DejaVuSans-30" x="95.410156"/>
      </g>
     </g>
    </g>
   </g>
   <g id="matplotlib.axis_2">
    <g id="ytick_1">
     <g id="line2d_7">
      <defs>
       <path id="mf39a016eb5" d="M 0 0 
L -3.5 0 
" style="stroke: #000000; stroke-width: 0.8"/>
      </defs>
      <g>
       <use xlink:href="#mf39a016eb5" x="54" y="187.40644" style="stroke: #000000; stroke-width: 0.8"/>
      </g>
     </g>
     <g id="text_7">
      <!-- 0 -->
      <g transform="translate(39.365 191.965503) scale(0.12 -0.12)">
       <use xlink:href="#DejaVuSans-30"/>
      </g>
     </g>
    </g>
    <g id="ytick_2">
     <g id="line2d_8">
      <g>
       <use xlink:href="#mf39a016eb5" x="54" y="158.045269" style="stroke: #000000; stroke-width: 0.8"/>
      </g>
     </g>
     <g id="text_8">
      <!-- 1 -->
      <g transform="translate(39.365 162.604332) scale(0.12 -0.12)">
       <use xlink:href="#DejaVuSans-31"/>
      </g>
     </g>
    </g>
    <g id="ytick_3">
     <g id="line2d_9">
      <g>
       <use xlink:href="#mf39a016eb5" x="54" y="128.684098" style="stroke: #000000; stroke-width: 0.8"/>
      </g>
     </g>
     <g id="text_9">
      <!-- 2 -->
      <g transform="translate(39.365 133.243161) scale(0.12 -0.12)">
       <use xlink:href="#DejaVuSans-32"/>
      </g>
     </g>
    </g>
    <g id="ytick_4">
     <g id="line2d_10">
      <g>
       <use xlink:href="#mf39a016eb5" x="54" y="99.322927" style="stroke: #000000; stroke-width: 0.8"/>
      </g>
     </g>
     <g id="text_10">
      <!-- 3 -->
      <g transform="translate(39.365 103.88199) scale(0.12 -0.12)">
       <defs>
        <path id="DejaVuSans-33" d="M 2597 2516 
Q 3050 2419 3304 2112 
Q 3559 1806 3559 1356 
Q 3559 666 3084 287 
Q 2609 -91 1734 -91 
Q 1441 -91 1130 -33 
Q 819 25 488 141 
L 488 750 
Q 750 597 1062 519 
Q 1375 441 1716 441 
Q 2309 441 2620 675 
Q 2931 909 2931 1356 
Q 2931 1769 2642 2001 
Q 2353 2234 1838 2234 
L 1294 2234 
L 1294 2753 
L 1863 2753 
Q 2328 2753 2575 2939 
Q 2822 3125 2822 3475 
Q 2822 3834 2567 4026 
Q 2313 4219 1838 4219 
Q 1578 4219 1281 4162 
Q 984 4106 628 3988 
L 628 4550 
Q 988 4650 1302 4700 
Q 1616 4750 1894 4750 
Q 2613 4750 3031 4423 
Q 3450 4097 3450 3541 
Q 3450 3153 3228 2886 
Q 3006 2619 2597 2516 
z
" transform="scale(0.015625)"/>
       </defs>
       <use xlink:href="#DejaVuSans-33"/>
      </g>
     </g>
    </g>
    <g id="ytick_5">
     <g id="line2d_11">
      <g>
       <use xlink:href="#mf39a016eb5" x="54" y="69.961756" style="stroke: #000000; stroke-width: 0.8"/>
      </g>
     </g>
     <g id="text_11">
      <!-- 4 -->
      <g transform="translate(39.365 74.520819) scale(0.12 -0.12)">
       <use xlink:href="#DejaVuSans-34"/>
      </g>
     </g>
    </g>
    <g id="ytick_6">
     <g id="line2d_12">
      <g>
       <use xlink:href="#mf39a016eb5" x="54" y="40.600585" style="stroke: #000000; stroke-width: 0.8"/>
      </g>
     </g>
     <g id="text_12">
      <!-- 5 -->
      <g transform="translate(39.365 45.159648) scale(0.12 -0.12)">
       <defs>
        <path id="DejaVuSans-35" d="M 691 4666 
L 3169 4666 
L 3169 4134 
L 1269 4134 
L 1269 2991 
Q 1406 3038 1543 3061 
Q 1681 3084 1819 3084 
Q 2600 3084 3056 2656 
Q 3513 2228 3513 1497 
Q 3513 744 3044 326 
Q 2575 -91 1722 -91 
Q 1428 -91 1123 -41 
Q 819 9 494 109 
L 494 744 
Q 775 591 1075 516 
Q 1375 441 1709 441 
Q 2250 441 2565 725 
Q 2881 1009 2881 1497 
Q 2881 1984 2565 2268 
Q 2250 2553 1709 2553 
Q 1456 2553 1204 2497 
Q 953 2441 691 2322 
L 691 4666 
z
" transform="scale(0.015625)"/>
       </defs>
       <use xlink:href="#DejaVuSans-35"/>
      </g>
     </g>
    </g>
   </g>
   <g id="line2d_13">
    <path d="M 69.218182 128.761322 
L 74.696727 128.780429 
L 81.392727 128.553621 
L 88.697455 128.069239 
L 99.045818 127.113565 
L 109.394182 126.205681 
L 115.481455 125.884895 
L 120.351273 125.836481 
L 124.612364 126.000504 
L 128.873455 126.402073 
L 132.525818 126.964914 
L 136.178182 127.751693 
L 139.830545 128.776124 
L 143.482909 130.04543 
L 147.135273 131.557774 
L 150.787636 133.302208 
L 155.048727 135.604226 
L 159.918545 138.531257 
L 165.397091 142.10109 
L 175.745455 149.191954 
L 183.658909 154.500862 
L 189.746182 158.324623 
L 195.224727 161.502411 
L 200.703273 164.400675 
L 205.573091 166.734358 
L 210.442909 168.843013 
L 215.921455 170.957874 
L 221.4 172.819113 
L 226.878545 174.449484 
L 232.965818 176.019467 
L 239.053091 177.366491 
L 245.749091 178.626665 
L 253.053818 179.777647 
L 260.967273 180.806272 
L 270.098182 181.764016 
L 280.446545 182.609906 
L 291.403636 183.280545 
L 304.186909 183.838277 
L 320.013818 184.301417 
L 341.319273 184.688497 
L 369.929455 184.97072 
L 373.581818 184.993796 
L 373.581818 184.993796 
" clip-path="url(#pfee909525d)" style="fill: none; stroke: #ff0000; stroke-linecap: square"/>
   </g>
   <g id="line2d_14">
    <path d="M 69.218182 175.726611 
L 79.566545 174.714062 
L 88.697455 173.605866 
L 97.219636 172.349242 
L 105.133091 170.95283 
L 112.437818 169.432651 
L 119.133818 167.814731 
L 125.829818 165.955638 
L 131.917091 164.035899 
L 138.004364 161.881066 
L 144.091636 159.478849 
L 150.178909 156.821479 
L 156.266182 153.906134 
L 162.353455 150.734801 
L 168.440727 147.312481 
L 174.528 143.644778 
L 180.615273 139.735605 
L 186.702545 135.585682 
L 193.398545 130.740205 
L 200.094545 125.603184 
L 207.399273 119.689038 
L 216.530182 111.959776 
L 226.878545 103.201324 
L 231.748364 99.366329 
L 235.400727 96.757959 
L 238.444364 94.837441 
L 240.879273 93.514429 
L 243.314182 92.419933 
L 245.749091 91.59291 
L 247.575273 91.171467 
L 249.401455 90.937491 
L 251.227636 90.907012 
L 253.053818 91.093953 
L 254.88 91.509446 
L 256.706182 92.16252 
L 258.532364 93.059714 
L 260.358545 94.203219 
L 262.184727 95.590227 
L 264.010909 97.213802 
L 266.445818 99.725925 
L 268.880727 102.593962 
L 271.924364 106.592504 
L 275.576727 111.817468 
L 287.142545 128.747657 
L 290.794909 133.542684 
L 293.838545 137.209166 
L 296.882182 140.562418 
L 299.925818 143.606889 
L 302.969455 146.357287 
L 306.013091 148.834734 
L 309.056727 151.062836 
L 312.709091 153.441986 
L 316.361455 155.538242 
L 320.013818 157.389157 
L 324.274909 159.282621 
L 328.536 160.932501 
L 333.405818 162.567574 
L 338.275636 163.978276 
L 343.754182 165.34103 
L 349.841455 166.622665 
L 356.537455 167.79922 
L 363.842182 168.85834 
L 372.364364 169.86234 
L 373.581818 169.987624 
L 373.581818 169.987624 
" clip-path="url(#pfee909525d)" style="fill: none; stroke: #000000; stroke-linecap: square"/>
   </g>
   <g id="line2d_15">
    <path d="M 69.218182 184.378737 
L 94.176 183.985553 
L 114.872727 183.44099 
L 131.917091 182.779081 
L 146.526545 182.00165 
L 159.309818 181.108226 
L 170.266909 180.12849 
L 179.397818 179.106095 
L 187.311273 178.013313 
L 194.007273 176.887264 
L 200.094545 175.651845 
L 205.573091 174.316237 
L 210.442909 172.901645 
L 214.704 171.443987 
L 218.965091 169.7322 
L 222.617455 168.018333 
L 226.269818 166.028848 
L 229.313455 164.120696 
L 232.357091 161.944835 
L 235.400727 159.458149 
L 237.835636 157.212212 
L 240.270545 154.708818 
L 242.705455 151.920003 
L 245.140364 148.817262 
L 247.575273 145.37476 
L 250.010182 141.571539 
L 252.445091 137.39651 
L 255.488727 131.662606 
L 258.532364 125.413967 
L 262.793455 116.078443 
L 267.663273 105.429426 
L 270.098182 100.575769 
L 271.924364 97.325603 
L 273.750545 94.51263 
L 275.576727 92.215449 
L 276.794182 91.002824 
L 278.011636 90.059218 
L 279.229091 89.393215 
L 280.446545 89.006514 
L 281.664 88.894531 
L 282.881455 89.050511 
L 284.098909 89.461334 
L 285.316364 90.11011 
L 286.533818 90.977266 
L 288.36 92.639398 
L 290.186182 94.666642 
L 292.621091 97.79933 
L 295.664727 102.162984 
L 307.230545 119.245418 
L 310.882909 124.030662 
L 313.926545 127.68608 
L 316.970182 131.035563 
L 320.013818 134.088794 
L 323.057455 136.862237 
L 326.101091 139.376156 
L 329.753455 142.080716 
L 333.405818 144.479218 
L 337.058182 146.606107 
L 340.710545 148.492307 
L 344.971636 150.4249 
L 349.232727 152.104277 
L 353.493818 153.562272 
L 358.363636 154.992367 
L 363.233455 156.204064 
L 368.712 157.342343 
L 373.581818 158.175875 
L 373.581818 158.175875 
" clip-path="url(#pfee909525d)" style="fill: none; stroke: #008000; stroke-linecap: square"/>
   </g>
   <g id="line2d_16">
    <path d="M 69.218182 120.005442 
L 75.914182 120.438793 
L 88.088727 120.93392 
L 97.219636 121.388635 
L 102.698182 121.879983 
L 106.959273 122.459379 
L 111.220364 123.270757 
L 114.872727 124.19556 
L 118.525091 125.373324 
L 121.568727 126.576765 
L 124.612364 128.005956 
L 127.656 129.682341 
L 130.699636 131.624381 
L 133.743273 133.847401 
L 136.786909 136.361383 
L 139.830545 139.170555 
L 142.874182 142.27142 
L 146.526545 146.360185 
L 150.178909 150.811251 
L 154.44 156.371283 
L 164.788364 170.110151 
L 166.614545 172.147272 
L 168.440727 173.825586 
L 169.658182 174.660414 
L 170.875636 175.204918 
L 172.093091 175.414357 
L 173.310545 175.268724 
L 174.528 174.778371 
L 175.745455 173.981172 
L 176.962909 172.928059 
L 178.789091 170.983502 
L 181.224 167.931306 
L 184.267636 163.697841 
L 189.746182 155.602323 
L 200.094545 140.281816 
L 205.573091 132.553468 
L 210.442909 126.034035 
L 214.704 120.675492 
L 218.356364 116.406593 
L 221.4 113.133018 
L 224.443636 110.177422 
L 226.878545 108.089661 
L 229.313455 106.296477 
L 231.139636 105.176899 
L 232.965818 104.279587 
L 234.792 103.634535 
L 236.618182 103.27454 
L 237.835636 103.210852 
L 239.053091 103.301841 
L 240.270545 103.560297 
L 241.488 103.999017 
L 242.705455 104.631769 
L 243.922909 105.473073 
L 245.140364 106.537566 
L 246.357818 107.839983 
L 247.575273 109.396488 
L 248.792727 111.221285 
L 250.010182 113.329221 
L 251.836364 117.052821 
L 253.662545 121.487773 
L 255.488727 126.668321 
L 257.314909 132.614532 
L 259.141091 139.329839 
L 260.967273 146.792597 
L 263.402182 157.81501 
L 266.445818 172.947557 
L 268.272 182.067395 
L 268.880727 184.196998 
L 269.489455 183.668537 
L 270.098182 181.09922 
L 272.533091 168.353617 
L 276.185455 149.523828 
L 278.620364 138.205319 
L 280.446545 130.638869 
L 282.272727 123.974877 
L 284.098909 118.268674 
L 285.925091 113.529708 
L 287.142545 110.895067 
L 288.36 108.663793 
L 289.577455 106.815259 
L 290.794909 105.324815 
L 292.012364 104.166715 
L 293.229818 103.312908 
L 294.447273 102.734653 
L 295.664727 102.404675 
L 296.882182 102.294526 
L 298.099636 102.37904 
L 299.317091 102.633191 
L 301.143273 103.28343 
L 302.969455 104.195934 
L 305.404364 105.717795 
L 308.448 107.951616 
L 312.709091 111.398979 
L 321.84 118.863604 
L 326.709818 122.519105 
L 330.970909 125.449662 
L 335.232 128.119346 
L 339.493091 130.533403 
L 343.754182 132.704446 
L 348.015273 134.648125 
L 352.885091 136.612556 
L 357.754909 138.327263 
L 362.624727 139.817626 
L 368.103273 141.255744 
L 373.581818 142.463146 
L 373.581818 142.463146 
" clip-path="url(#pfee909525d)" style="fill: none; stroke: #808080; stroke-width: 4; stroke-linecap: square"/>
   </g>
   <g id="line2d_17">
    <path d="M 70.435636 120.859676 
L 71.044364 119.261995 
L 71.653091 118.454341 
L 72.261818 118.291851 
L 72.870545 118.626904 
L 73.479273 119.137922 
L 74.088 119.807832 
L 74.696727 120.648359 
L 75.305455 121.288581 
L 75.914182 121.730709 
L 77.131636 122.210486 
L 77.740364 122.37658 
L 78.957818 122.330715 
L 80.175273 121.933794 
L 83.218909 120.910665 
L 84.436364 120.741329 
L 85.045091 120.514437 
L 87.48 120.419017 
L 88.088727 120.618321 
L 89.306182 120.608395 
L 92.958545 121.406752 
L 94.784727 121.715393 
L 97.828364 122.322013 
L 99.045818 122.179502 
L 99.654545 122.472162 
L 100.263273 122.603725 
L 101.480727 122.492484 
L 102.698182 122.819066 
L 103.915636 122.723338 
L 105.741818 123.05823 
L 106.350545 122.733362 
L 106.959273 122.810365 
L 107.568 123.498552 
L 108.176727 123.490705 
L 108.785455 122.998273 
L 109.394182 123.082192 
L 110.611636 123.72634 
L 111.829091 123.589283 
L 114.264 124.388221 
L 115.481455 124.422634 
L 116.090182 124.84449 
L 116.698909 125.055695 
L 117.307636 124.937257 
L 117.916364 125.303734 
L 119.133818 125.712003 
L 119.742545 126.308879 
L 120.351273 126.443368 
L 120.96 126.205954 
L 121.568727 126.641825 
L 122.177455 127.324034 
L 122.786182 127.585514 
L 124.003636 127.630204 
L 125.221091 129.074723 
L 125.829818 128.868678 
L 126.438545 129.087208 
L 127.656 130.279802 
L 128.873455 130.680247 
L 130.090909 132.065089 
L 130.699636 132.078624 
L 131.308364 132.370552 
L 131.917091 133.337279 
L 132.525818 133.743028 
L 133.134545 133.799142 
L 133.743273 134.462807 
L 134.960727 135.489908 
L 135.569455 136.16573 
L 136.178182 136.372262 
L 137.395636 137.820393 
L 138.004364 138.101036 
L 138.613091 138.64674 
L 139.221818 139.675185 
L 139.830545 140.089702 
L 140.439273 140.082085 
L 141.048 140.701376 
L 141.656727 141.871324 
L 142.265455 142.774892 
L 143.482909 143.348426 
L 144.091636 144.233012 
L 144.700364 145.370028 
L 145.309091 145.335709 
L 145.917818 146.011496 
L 146.526545 147.434272 
L 147.744 148.269573 
L 148.352727 149.094783 
L 148.961455 150.162538 
L 149.570182 150.617911 
L 150.178909 151.363161 
L 150.787636 152.376608 
L 151.396364 152.658932 
L 152.613818 154.963015 
L 153.222545 155.036192 
L 153.831273 155.684548 
L 155.048727 157.95834 
L 156.266182 159.542278 
L 156.874909 160.24693 
L 157.483636 160.571327 
L 158.092364 161.393907 
L 158.701091 163.045083 
L 159.309818 163.865383 
L 159.918545 164.119102 
L 161.136 165.881119 
L 161.744727 167.309607 
L 162.353455 167.941122 
L 162.962182 167.988153 
L 164.179636 170.226686 
L 164.788364 170.777786 
L 165.397091 171.784287 
L 166.005818 172.379663 
L 166.614545 172.519041 
L 167.223273 173.45226 
L 167.832 174.967462 
L 168.440727 175.343985 
L 169.049455 174.623139 
L 169.658182 175.304226 
L 170.266909 176.499735 
L 170.875636 176.433678 
L 172.093091 176.710243 
L 173.310545 176.591493 
L 173.919273 176.259793 
L 174.528 176.126329 
L 175.136727 175.285808 
L 175.745455 174.895691 
L 176.354182 174.718065 
L 176.962909 174.173992 
L 177.571636 173.897071 
L 178.789091 171.287565 
L 179.397818 170.626111 
L 180.615273 169.873705 
L 181.224 168.846517 
L 181.832727 167.556954 
L 183.050182 166.301128 
L 184.267636 163.442225 
L 184.876364 162.947551 
L 185.485091 163.446047 
L 186.093818 161.584245 
L 186.702545 159.115039 
L 187.311273 159.797726 
L 187.92 159.232022 
L 188.528727 157.631257 
L 189.137455 156.902216 
L 189.746182 155.089439 
L 190.354909 154.399999 
L 190.963636 154.44879 
L 191.572364 153.415536 
L 192.181091 152.111197 
L 192.789818 150.530783 
L 193.398545 149.968099 
L 194.007273 149.632042 
L 194.616 148.739223 
L 195.224727 147.260602 
L 195.833455 146.106363 
L 196.442182 145.667069 
L 197.050909 144.399321 
L 197.659636 143.905761 
L 198.268364 143.154386 
L 198.877091 141.82017 
L 200.094545 140.610212 
L 202.529455 136.315084 
L 203.138182 136.148019 
L 204.355636 134.398958 
L 204.964364 133.622928 
L 205.573091 131.884973 
L 206.181818 131.865635 
L 206.790545 131.558177 
L 207.399273 130.172733 
L 208.008 129.234343 
L 208.616727 127.935779 
L 209.225455 127.986692 
L 209.834182 127.673263 
L 210.442909 125.833618 
L 211.660364 124.964712 
L 212.269091 123.693838 
L 212.877818 122.77374 
L 213.486545 122.305885 
L 214.095273 122.219796 
L 214.704 121.376091 
L 215.921455 119.049362 
L 216.530182 118.169326 
L 217.138909 118.40746 
L 217.747636 117.8922 
L 218.356364 116.641417 
L 218.965091 116.2818 
L 219.573818 115.633486 
L 220.182545 114.471767 
L 222.008727 112.640908 
L 222.617455 112.950501 
L 223.226182 112.372931 
L 223.834909 110.219865 
L 224.443636 110.390986 
L 225.052364 110.716266 
L 225.661091 109.369691 
L 226.269818 108.814026 
L 226.878545 108.691633 
L 227.487273 108.19596 
L 228.704727 106.786145 
L 229.313455 106.134029 
L 229.922182 106.692712 
L 230.530909 106.432058 
L 231.139636 105.378087 
L 231.748364 105.495068 
L 232.357091 104.770976 
L 232.965818 104.952317 
L 233.574545 104.836799 
L 234.183273 103.455419 
L 234.792 103.917205 
L 235.400727 104.035845 
L 236.009455 103.187527 
L 236.618182 103.679035 
L 237.226909 103.714548 
L 237.835636 103.189851 
L 238.444364 103.654037 
L 239.053091 103.826537 
L 239.661818 103.822435 
L 240.270545 103.962776 
L 242.096727 103.963217 
L 242.705455 104.951778 
L 243.314182 105.568213 
L 243.922909 105.511917 
L 244.531636 106.11137 
L 245.140364 106.552742 
L 245.749091 107.267454 
L 246.357818 108.405253 
L 246.966545 108.202953 
L 247.575273 109.133356 
L 248.184 110.655686 
L 248.792727 111.049212 
L 249.401455 112.573446 
L 250.010182 112.930529 
L 250.618909 114.052263 
L 251.227636 116.590623 
L 251.836364 116.955658 
L 252.445091 118.229731 
L 253.662545 121.566932 
L 254.271273 123.677227 
L 254.88 124.26515 
L 255.488727 126.433673 
L 256.097455 129.558374 
L 256.706182 131.02613 
L 257.314909 132.156134 
L 257.923636 134.629371 
L 258.532364 137.635582 
L 259.749818 142.072396 
L 262.184727 152.657455 
L 263.402182 158.649799 
L 264.619636 164.28628 
L 265.228364 168.191782 
L 265.837091 171.30995 
L 266.445818 172.977121 
L 267.663273 180.018303 
L 268.272 181.57926 
L 268.880727 182.655559 
L 269.489455 181.729281 
L 270.098182 179.935426 
L 270.706909 176.715805 
L 271.315636 172.674111 
L 273.750545 160.482453 
L 274.359273 157.193595 
L 274.968 155.124759 
L 275.576727 152.457416 
L 276.185455 148.38396 
L 276.794182 145.24024 
L 281.664 125.838021 
L 283.490182 119.847076 
L 284.707636 116.561782 
L 285.316364 114.125247 
L 285.925091 112.543968 
L 286.533818 111.800052 
L 287.142545 110.119754 
L 287.751273 108.921297 
L 288.36 108.136934 
L 288.968727 107.130536 
L 290.186182 104.551532 
L 290.794909 103.993976 
L 292.012364 103.370359 
L 293.229818 101.262192 
L 293.838545 101.210412 
L 294.447273 101.812839 
L 295.056 101.379608 
L 295.664727 100.082608 
L 296.273455 100.278069 
L 296.882182 101.077855 
L 297.490909 100.716292 
L 298.099636 100.694738 
L 298.708364 101.361288 
L 299.317091 101.076007 
L 299.925818 100.628845 
L 301.143273 102.050511 
L 302.360727 101.990652 
L 303.578182 103.28266 
L 304.186909 103.541291 
L 305.404364 104.631069 
L 307.839273 105.906073 
L 309.056727 107.585832 
L 310.274182 108.214643 
L 310.882909 108.593665 
L 311.491636 109.217065 
L 312.709091 110.903992 
L 313.317818 111.193207 
L 313.926545 111.190435 
L 316.361455 113.80794 
L 316.970182 114.046341 
L 318.796364 115.845019 
L 320.013818 116.619576 
L 320.622545 117.377584 
L 321.231273 117.941398 
L 321.84 118.265677 
L 322.448727 118.737515 
L 323.057455 119.414957 
L 324.274909 120.150179 
L 324.883636 120.835903 
L 326.709818 122.305066 
L 327.927273 122.837785 
L 329.144727 124.161 
L 329.753455 124.32251 
L 332.188364 125.996619 
L 332.797091 126.24923 
L 334.014545 127.170589 
L 335.840727 127.981505 
L 337.058182 128.710083 
L 337.666909 128.88636 
L 338.275636 129.29843 
L 339.493091 129.805199 
L 340.101818 130.235515 
L 341.319273 130.593045 
L 341.928 130.711049 
L 342.536727 130.974632 
L 343.145455 131.402397 
L 343.754182 131.641021 
L 344.362909 131.750393 
L 345.580364 132.239521 
L 346.189091 132.370611 
L 347.406545 132.916228 
L 348.624 133.37472 
L 354.102545 135.56968 
L 355.928727 136.572987 
L 357.754909 137.609108 
L 358.363636 138.052909 
L 358.972364 138.218661 
L 359.581091 138.516676 
L 360.189818 139.122138 
L 361.407273 139.733431 
L 365.059636 141.642217 
L 366.277091 142.051168 
L 366.885818 142.179573 
L 368.712 141.959965 
L 369.929455 141.398738 
L 371.146909 140.153649 
L 371.755636 139.240498 
L 372.364364 138.02355 
L 372.364364 138.02355 
" clip-path="url(#pfee909525d)" style="fill: none; stroke-dasharray: 5.55,2.4; stroke-dashoffset: 0; stroke: #0000ff; stroke-width: 1.5"/>
   </g>
   <g id="line2d_18">
    <path d="M 70.435636 185.746194 
L 71.044364 185.969826 
L 72.261818 185.385033 
L 73.479273 185.872162 
L 74.088 186.352668 
L 74.696727 187.038611 
L 75.914182 186.108732 
L 77.131636 185.655222 
L 77.740364 185.533392 
L 78.957818 185.582475 
L 83.827636 187.311595 
L 84.436364 187.039789 
L 86.262545 187.112104 
L 86.871273 186.901997 
L 87.48 186.910209 
L 88.088727 187.081447 
L 89.306182 186.871389 
L 90.523636 187.081376 
L 91.741091 187.173282 
L 92.349818 187.022287 
L 92.958545 186.683746 
L 94.176 187.061346 
L 94.784727 186.867362 
L 95.393455 186.384808 
L 96.002182 186.719576 
L 96.610909 186.73802 
L 97.219636 186.540971 
L 98.437091 186.555742 
L 99.045818 186.620335 
L 100.263273 186.414937 
L 100.872 186.452973 
L 101.480727 186.613854 
L 103.306909 186.498332 
L 103.915636 186.656991 
L 104.524364 186.653968 
L 105.133091 186.517653 
L 105.741818 186.619639 
L 106.350545 187.036663 
L 106.959273 186.783327 
L 107.568 186.358886 
L 108.176727 186.579916 
L 108.785455 187.180708 
L 109.394182 186.780054 
L 111.220364 186.87123 
L 111.829091 186.586615 
L 112.437818 187.030868 
L 113.046545 186.962977 
L 113.655273 186.701746 
L 114.264 187.030464 
L 114.872727 187.1168 
L 115.481455 186.633294 
L 116.090182 186.598048 
L 116.698909 186.76937 
L 117.307636 187.063426 
L 117.916364 187.033024 
L 118.525091 186.342553 
L 119.133818 186.469802 
L 119.742545 186.920391 
L 120.351273 186.688339 
L 120.96 186.326844 
L 121.568727 186.624331 
L 123.394909 186.468218 
L 124.003636 186.366193 
L 124.612364 186.476016 
L 125.829818 186.415448 
L 126.438545 186.483269 
L 127.047273 186.808255 
L 127.656 186.326787 
L 128.264727 186.242866 
L 128.873455 186.603725 
L 130.090909 186.224282 
L 130.699636 186.454491 
L 131.308364 186.165801 
L 131.917091 186.110766 
L 132.525818 186.38998 
L 133.134545 186.818423 
L 133.743273 186.577014 
L 134.352 185.944182 
L 136.178182 186.337502 
L 136.786909 186.612839 
L 137.395636 186.240722 
L 138.004364 186.057092 
L 138.613091 186.407946 
L 139.221818 186.272501 
L 139.830545 186.270581 
L 140.439273 186.467669 
L 141.048 186.51339 
L 141.656727 186.061206 
L 142.265455 186.042928 
L 142.874182 186.538111 
L 143.482909 186.663266 
L 144.700364 186.059522 
L 145.309091 186.77694 
L 145.917818 186.771344 
L 146.526545 186.08894 
L 147.744 186.616378 
L 148.352727 186.612029 
L 148.961455 186.210116 
L 150.178909 186.781203 
L 150.787636 186.377379 
L 151.396364 186.511585 
L 152.005091 186.432256 
L 152.613818 186.154101 
L 153.222545 186.957048 
L 153.831273 186.923977 
L 154.44 186.429775 
L 155.048727 186.30324 
L 156.266182 186.561694 
L 156.874909 186.222397 
L 157.483636 186.386849 
L 158.092364 186.98972 
L 158.701091 186.1773 
L 159.309818 186.002364 
L 159.918545 186.954584 
L 160.527273 186.632402 
L 161.136 186.097957 
L 161.744727 186.115264 
L 162.353455 186.402177 
L 162.962182 186.935901 
L 163.570909 186.17078 
L 164.179636 185.732241 
L 164.788364 186.449792 
L 165.397091 186.364848 
L 166.005818 186.459772 
L 166.614545 186.409431 
L 167.832 185.673587 
L 168.440727 185.886716 
L 169.049455 186.741002 
L 169.658182 185.899774 
L 170.266909 185.839154 
L 170.875636 186.116494 
L 171.484364 186.139611 
L 172.093091 186.025428 
L 172.701818 186.102625 
L 173.310545 185.934761 
L 173.919273 186.211269 
L 175.136727 186.008722 
L 175.745455 185.988114 
L 176.354182 186.139225 
L 176.962909 186.061945 
L 177.571636 185.459066 
L 178.789091 186.589956 
L 179.397818 186.388954 
L 180.006545 185.925736 
L 181.224 186.095999 
L 181.832727 185.902975 
L 182.441455 186.359578 
L 183.050182 186.280196 
L 183.658909 185.346065 
L 184.267636 185.908218 
L 184.876364 187.021013 
L 185.485091 185.520781 
L 186.093818 186.480625 
L 186.702545 186.042137 
L 187.311273 185.354534 
L 187.92 185.827712 
L 188.528727 186.708641 
L 189.137455 186.327175 
L 189.746182 186.239337 
L 190.354909 186.730773 
L 190.963636 186.283729 
L 191.572364 185.568781 
L 192.181091 185.804826 
L 193.398545 187.094028 
L 194.007273 186.15607 
L 194.616 185.87059 
L 195.224727 187.141144 
L 195.833455 186.899455 
L 196.442182 185.973018 
L 197.050909 185.905692 
L 197.659636 186.55739 
L 198.268364 186.887269 
L 198.877091 186.257121 
L 199.485818 186.015566 
L 200.094545 186.591551 
L 200.703273 186.377147 
L 201.920727 186.968408 
L 202.529455 186.280965 
L 203.138182 186.188456 
L 203.746909 186.554827 
L 204.355636 186.573307 
L 204.964364 186.864993 
L 205.573091 186.467014 
L 206.181818 185.360166 
L 206.790545 185.79791 
L 207.399273 187.285003 
L 208.616727 185.958303 
L 209.225455 186.372602 
L 210.442909 185.852712 
L 211.660364 186.196696 
L 212.269091 185.917967 
L 212.877818 186.480617 
L 213.486545 186.79784 
L 214.095273 185.93429 
L 214.704 185.628857 
L 215.312727 186.372533 
L 215.921455 186.141685 
L 216.530182 185.435897 
L 217.138909 186.178112 
L 217.747636 186.199691 
L 218.965091 185.620208 
L 219.573818 185.603752 
L 220.182545 185.996516 
L 221.4 186.256591 
L 222.008727 185.982069 
L 222.617455 185.026036 
L 223.834909 186.237216 
L 224.443636 185.487304 
L 225.052364 185.420181 
L 225.661091 186.368422 
L 226.269818 185.919156 
L 226.878545 185.800376 
L 227.487273 186.156514 
L 228.096 184.862179 
L 228.704727 185.522998 
L 229.313455 187.070081 
L 230.530909 185.509342 
L 231.139636 185.311568 
L 231.748364 185.65402 
L 232.357091 186.542297 
L 232.965818 186.308184 
L 233.574545 185.364272 
L 234.183273 185.703658 
L 234.792 186.539445 
L 236.009455 186.395079 
L 236.618182 185.748082 
L 237.226909 186.162877 
L 237.835636 186.811446 
L 238.444364 186.12348 
L 239.661818 186.567752 
L 240.270545 185.763646 
L 240.879273 186.221998 
L 241.488 186.826403 
L 242.096727 186.50771 
L 242.705455 186.486602 
L 243.314182 186.320184 
L 243.922909 186.615484 
L 244.531636 186.627283 
L 245.140364 186.039677 
L 245.749091 186.872351 
L 246.357818 186.817841 
L 246.966545 185.991354 
L 247.575273 186.390946 
L 248.184 186.544594 
L 248.792727 186.399037 
L 249.401455 186.628475 
L 250.010182 186.28794 
L 250.618909 186.324223 
L 251.227636 186.163421 
L 251.836364 186.547459 
L 252.445091 186.071509 
L 253.053818 185.81203 
L 253.662545 186.754718 
L 254.271273 186.436047 
L 254.88 185.989539 
L 255.488727 186.13228 
L 256.097455 185.474693 
L 257.314909 186.229815 
L 257.923636 186.111511 
L 259.141091 185.585134 
L 260.967273 185.702176 
L 262.184727 185.551697 
L 262.793455 185.634033 
L 263.402182 185.872223 
L 264.010909 186.230981 
L 264.619636 185.156219 
L 265.228364 184.52358 
L 265.837091 185.051357 
L 266.445818 185.881616 
L 267.054545 186.171616 
L 267.663273 185.053482 
L 268.272 184.992509 
L 268.880727 185.350691 
L 269.489455 185.389363 
L 270.098182 186.220724 
L 270.706909 185.864553 
L 271.315636 184.817892 
L 272.533091 186.134717 
L 274.968 185.711419 
L 275.576727 186.528857 
L 276.794182 185.927943 
L 277.402909 186.005565 
L 278.011636 186.357196 
L 278.620364 185.938225 
L 279.229091 186.002458 
L 279.837818 187.036189 
L 280.446545 186.833755 
L 281.055273 186.189998 
L 281.664 185.837087 
L 282.272727 186.452859 
L 283.490182 185.915247 
L 284.098909 186.812635 
L 284.707636 186.03714 
L 285.316364 185.683099 
L 285.925091 186.420696 
L 286.533818 186.405177 
L 287.142545 185.682323 
L 287.751273 186.292078 
L 288.36 186.123689 
L 288.968727 186.273022 
L 289.577455 186.30595 
L 290.186182 185.793889 
L 290.794909 185.683702 
L 291.403636 186.001632 
L 292.012364 186.517666 
L 292.621091 186.034845 
L 293.229818 185.343793 
L 293.838545 185.531381 
L 294.447273 186.248816 
L 295.056 186.184594 
L 295.664727 185.071266 
L 296.273455 185.346747 
L 296.882182 186.130432 
L 297.490909 185.662142 
L 298.099636 185.72024 
L 298.708364 186.277208 
L 299.925818 185.211625 
L 300.534545 185.653663 
L 301.143273 185.822308 
L 301.752 185.551539 
L 302.360727 185.528901 
L 302.969455 185.846748 
L 304.186909 185.949263 
L 304.795636 186.169532 
L 306.013091 185.688958 
L 306.621818 186.000423 
L 307.230545 185.79447 
L 307.839273 185.369012 
L 309.056727 186.158424 
L 309.665455 185.791393 
L 310.274182 185.283836 
L 311.491636 185.90185 
L 312.100364 185.659204 
L 313.317818 186.127007 
L 313.926545 185.775719 
L 314.535273 185.748011 
L 315.144 185.601964 
L 315.752727 186.022204 
L 316.361455 186.226013 
L 316.970182 185.959543 
L 317.578909 186.326951 
L 318.187636 186.457623 
L 320.013818 186.320902 
L 321.231273 186.838938 
L 322.448727 186.700437 
L 323.057455 186.983925 
L 324.274909 186.816385 
L 324.883636 187.009981 
L 327.318545 186.840298 
L 327.927273 186.739919 
L 328.536 186.870158 
L 329.144727 186.849334 
L 329.753455 186.53465 
L 330.362182 186.559363 
L 330.970909 187.004484 
L 331.579636 186.830961 
L 332.188364 186.477891 
L 333.405818 186.74273 
L 334.623273 186.766384 
L 335.840727 186.616107 
L 336.449455 186.865035 
L 337.058182 186.849189 
L 337.666909 186.647717 
L 338.275636 186.77631 
L 339.493091 186.677066 
L 340.101818 186.783879 
L 341.319273 186.475731 
L 341.928 186.187579 
L 342.536727 186.155853 
L 343.145455 186.332319 
L 343.754182 186.196168 
L 344.362909 185.844226 
L 345.580364 185.825532 
L 346.189091 185.459733 
L 347.406545 185.574572 
L 348.015273 185.231182 
L 349.232727 185.283699 
L 349.841455 185.083049 
L 354.102545 185.156916 
L 354.711273 185.487377 
L 355.928727 185.535886 
L 358.363636 186.47882 
L 358.972364 186.505544 
L 359.581091 186.830609 
L 360.189818 187.318787 
L 361.407273 187.021076 
L 362.016 186.730063 
L 362.624727 186.297709 
L 363.842182 185.796808 
L 366.277091 185.096414 
L 366.885818 185.071134 
L 368.103273 185.545564 
L 368.712 185.83669 
L 369.929455 186.819288 
L 370.538182 186.396693 
L 371.146909 185.320326 
L 371.755636 183.790526 
L 372.364364 181.899467 
L 372.364364 181.899467 
" clip-path="url(#pfee909525d)" style="fill: none; stroke: #ffa500; stroke-width: 2; stroke-linecap: square"/>
   </g>
   <g id="line2d_19">
    <path d="M 54 187.40644 
L 388.8 187.40644 
" clip-path="url(#pfee909525d)" style="fill: none; stroke-dasharray: 1.85,0.8; stroke-dashoffset: 0; stroke: #000000; stroke-width: 0.5"/>
   </g>
   <g id="patch_3">
    <path d="M 54 192.24 
L 54 25.92 
" style="fill: none; stroke: #000000; stroke-width: 0.8; stroke-linejoin: miter; stroke-linecap: square"/>
   </g>
   <g id="patch_4">
    <path d="M 54 192.24 
L 388.8 192.24 
" style="fill: none; stroke: #000000; stroke-width: 0.8; stroke-linejoin: miter; stroke-linecap: square"/>
   </g>
   <g id="legend_1">
    <g id="patch_5">
     <path d="M 60.604688 75.352656 
L 382.15 75.352656 
Q 384.05 75.352656 384.05 73.452656 
L 384.05 32.57 
Q 384.05 30.67 382.15 30.67 
L 60.604688 30.67 
Q 58.704688 30.67 58.704688 32.57 
L 58.704688 73.452656 
Q 58.704688 75.352656 60.604688 75.352656 
z
" style="fill: #ffffff; opacity: 0.8; stroke: #cccccc; stroke-linejoin: miter"/>
    </g>
    <g id="line2d_20">
     <path d="M 62.504688 38.363516 
L 72.004688 38.363516 
L 81.504688 38.363516 
" style="fill: none; stroke: #ff0000; stroke-linecap: square"/>
    </g>
    <g id="text_13">
     <!-- Gravity by Object 1 -->
     <g transform="translate(89.104688 41.688516) scale(0.095 -0.095)">
      <defs>
       <path id="DejaVuSans-47" d="M 3809 666 
L 3809 1919 
L 2778 1919 
L 2778 2438 
L 4434 2438 
L 4434 434 
Q 4069 175 3628 42 
Q 3188 -91 2688 -91 
Q 1594 -91 976 548 
Q 359 1188 359 2328 
Q 359 3472 976 4111 
Q 1594 4750 2688 4750 
Q 3144 4750 3555 4637 
Q 3966 4525 4313 4306 
L 4313 3634 
Q 3963 3931 3569 4081 
Q 3175 4231 2741 4231 
Q 1884 4231 1454 3753 
Q 1025 3275 1025 2328 
Q 1025 1384 1454 906 
Q 1884 428 2741 428 
Q 3075 428 3337 486 
Q 3600 544 3809 666 
z
" transform="scale(0.015625)"/>
       <path id="DejaVuSans-72" d="M 2631 2963 
Q 2534 3019 2420 3045 
Q 2306 3072 2169 3072 
Q 1681 3072 1420 2755 
Q 1159 2438 1159 1844 
L 1159 0 
L 581 0 
L 581 3500 
L 1159 3500 
L 1159 2956 
Q 1341 3275 1631 3429 
Q 1922 3584 2338 3584 
Q 2397 3584 2469 3576 
Q 2541 3569 2628 3553 
L 2631 2963 
z
" transform="scale(0.015625)"/>
       <path id="DejaVuSans-61" d="M 2194 1759 
Q 1497 1759 1228 1600 
Q 959 1441 959 1056 
Q 959 750 1161 570 
Q 1363 391 1709 391 
Q 2188 391 2477 730 
Q 2766 1069 2766 1631 
L 2766 1759 
L 2194 1759 
z
M 3341 1997 
L 3341 0 
L 2766 0 
L 2766 531 
Q 2569 213 2275 61 
Q 1981 -91 1556 -91 
Q 1019 -91 701 211 
Q 384 513 384 1019 
Q 384 1609 779 1909 
Q 1175 2209 1959 2209 
L 2766 2209 
L 2766 2266 
Q 2766 2663 2505 2880 
Q 2244 3097 1772 3097 
Q 1472 3097 1187 3025 
Q 903 2953 641 2809 
L 641 3341 
Q 956 3463 1253 3523 
Q 1550 3584 1831 3584 
Q 2591 3584 2966 3190 
Q 3341 2797 3341 1997 
z
" transform="scale(0.015625)"/>
       <path id="DejaVuSans-76" d="M 191 3500 
L 800 3500 
L 1894 563 
L 2988 3500 
L 3597 3500 
L 2284 0 
L 1503 0 
L 191 3500 
z
" transform="scale(0.015625)"/>
       <path id="DejaVuSans-69" d="M 603 3500 
L 1178 3500 
L 1178 0 
L 603 0 
L 603 3500 
z
M 603 4863 
L 1178 4863 
L 1178 4134 
L 603 4134 
L 603 4863 
z
" transform="scale(0.015625)"/>
       <path id="DejaVuSans-74" d="M 1172 4494 
L 1172 3500 
L 2356 3500 
L 2356 3053 
L 1172 3053 
L 1172 1153 
Q 1172 725 1289 603 
Q 1406 481 1766 481 
L 2356 481 
L 2356 0 
L 1766 0 
Q 1100 0 847 248 
Q 594 497 594 1153 
L 594 3053 
L 172 3053 
L 172 3500 
L 594 3500 
L 594 4494 
L 1172 4494 
z
" transform="scale(0.015625)"/>
       <path id="DejaVuSans-79" d="M 2059 -325 
Q 1816 -950 1584 -1140 
Q 1353 -1331 966 -1331 
L 506 -1331 
L 506 -850 
L 844 -850 
Q 1081 -850 1212 -737 
Q 1344 -625 1503 -206 
L 1606 56 
L 191 3500 
L 800 3500 
L 1894 763 
L 2988 3500 
L 3597 3500 
L 2059 -325 
z
" transform="scale(0.015625)"/>
       <path id="DejaVuSans-20" transform="scale(0.015625)"/>
       <path id="DejaVuSans-62" d="M 3116 1747 
Q 3116 2381 2855 2742 
Q 2594 3103 2138 3103 
Q 1681 3103 1420 2742 
Q 1159 2381 1159 1747 
Q 1159 1113 1420 752 
Q 1681 391 2138 391 
Q 2594 391 2855 752 
Q 3116 1113 3116 1747 
z
M 1159 2969 
Q 1341 3281 1617 3432 
Q 1894 3584 2278 3584 
Q 2916 3584 3314 3078 
Q 3713 2572 3713 1747 
Q 3713 922 3314 415 
Q 2916 -91 2278 -91 
Q 1894 -91 1617 61 
Q 1341 213 1159 525 
L 1159 0 
L 581 0 
L 581 4863 
L 1159 4863 
L 1159 2969 
z
" transform="scale(0.015625)"/>
       <path id="DejaVuSans-4f" d="M 2522 4238 
Q 1834 4238 1429 3725 
Q 1025 3213 1025 2328 
Q 1025 1447 1429 934 
Q 1834 422 2522 422 
Q 3209 422 3611 934 
Q 4013 1447 4013 2328 
Q 4013 3213 3611 3725 
Q 3209 4238 2522 4238 
z
M 2522 4750 
Q 3503 4750 4090 4092 
Q 4678 3434 4678 2328 
Q 4678 1225 4090 567 
Q 3503 -91 2522 -91 
Q 1538 -91 948 565 
Q 359 1222 359 2328 
Q 359 3434 948 4092 
Q 1538 4750 2522 4750 
z
" transform="scale(0.015625)"/>
       <path id="DejaVuSans-6a" d="M 603 3500 
L 1178 3500 
L 1178 -63 
Q 1178 -731 923 -1031 
Q 669 -1331 103 -1331 
L -116 -1331 
L -116 -844 
L 38 -844 
Q 366 -844 484 -692 
Q 603 -541 603 -63 
L 603 3500 
z
M 603 4863 
L 1178 4863 
L 1178 4134 
L 603 4134 
L 603 4863 
z
" transform="scale(0.015625)"/>
       <path id="DejaVuSans-65" d="M 3597 1894 
L 3597 1613 
L 953 1613 
Q 991 1019 1311 708 
Q 1631 397 2203 397 
Q 2534 397 2845 478 
Q 3156 559 3463 722 
L 3463 178 
Q 3153 47 2828 -22 
Q 2503 -91 2169 -91 
Q 1331 -91 842 396 
Q 353 884 353 1716 
Q 353 2575 817 3079 
Q 1281 3584 2069 3584 
Q 2775 3584 3186 3129 
Q 3597 2675 3597 1894 
z
M 3022 2063 
Q 3016 2534 2758 2815 
Q 2500 3097 2075 3097 
Q 1594 3097 1305 2825 
Q 1016 2553 972 2059 
L 3022 2063 
z
" transform="scale(0.015625)"/>
       <path id="DejaVuSans-63" d="M 3122 3366 
L 3122 2828 
Q 2878 2963 2633 3030 
Q 2388 3097 2138 3097 
Q 1578 3097 1268 2742 
Q 959 2388 959 1747 
Q 959 1106 1268 751 
Q 1578 397 2138 397 
Q 2388 397 2633 464 
Q 2878 531 3122 666 
L 3122 134 
Q 2881 22 2623 -34 
Q 2366 -91 2075 -91 
Q 1284 -91 818 406 
Q 353 903 353 1747 
Q 353 2603 823 3093 
Q 1294 3584 2113 3584 
Q 2378 3584 2631 3529 
Q 2884 3475 3122 3366 
z
" transform="scale(0.015625)"/>
      </defs>
      <use xlink:href="#DejaVuSans-47"/>
      <use xlink:href="#DejaVuSans-72" x="77.490234"/>
      <use xlink:href="#DejaVuSans-61" x="118.603516"/>
      <use xlink:href="#DejaVuSans-76" x="179.882812"/>
      <use xlink:href="#DejaVuSans-69" x="239.0625"/>
      <use xlink:href="#DejaVuSans-74" x="266.845703"/>
      <use xlink:href="#DejaVuSans-79" x="306.054688"/>
      <use xlink:href="#DejaVuSans-20" x="365.234375"/>
      <use xlink:href="#DejaVuSans-62" x="397.021484"/>
      <use xlink:href="#DejaVuSans-79" x="460.498047"/>
      <use xlink:href="#DejaVuSans-20" x="519.677734"/>
      <use xlink:href="#DejaVuSans-4f" x="551.464844"/>
      <use xlink:href="#DejaVuSans-62" x="630.175781"/>
      <use xlink:href="#DejaVuSans-6a" x="693.652344"/>
      <use xlink:href="#DejaVuSans-65" x="721.435547"/>
      <use xlink:href="#DejaVuSans-63" x="782.958984"/>
      <use xlink:href="#DejaVuSans-74" x="837.939453"/>
      <use xlink:href="#DejaVuSans-20" x="877.148438"/>
      <use xlink:href="#DejaVuSans-31" x="908.935547"/>
     </g>
    </g>
    <g id="line2d_21">
     <path d="M 62.504688 52.307734 
L 72.004688 52.307734 
L 81.504688 52.307734 
" style="fill: none; stroke: #000000; stroke-linecap: square"/>
    </g>
    <g id="text_14">
     <!-- Gravity by Object 2 -->
     <g transform="translate(89.104688 55.632734) scale(0.095 -0.095)">
      <use xlink:href="#DejaVuSans-47"/>
      <use xlink:href="#DejaVuSans-72" x="77.490234"/>
      <use xlink:href="#DejaVuSans-61" x="118.603516"/>
      <use xlink:href="#DejaVuSans-76" x="179.882812"/>
      <use xlink:href="#DejaVuSans-69" x="239.0625"/>
      <use xlink:href="#DejaVuSans-74" x="266.845703"/>
      <use xlink:href="#DejaVuSans-79" x="306.054688"/>
      <use xlink:href="#DejaVuSans-20" x="365.234375"/>
      <use xlink:href="#DejaVuSans-62" x="397.021484"/>
      <use xlink:href="#DejaVuSans-79" x="460.498047"/>
      <use xlink:href="#DejaVuSans-20" x="519.677734"/>
      <use xlink:href="#DejaVuSans-4f" x="551.464844"/>
      <use xlink:href="#DejaVuSans-62" x="630.175781"/>
      <use xlink:href="#DejaVuSans-6a" x="693.652344"/>
      <use xlink:href="#DejaVuSans-65" x="721.435547"/>
      <use xlink:href="#DejaVuSans-63" x="782.958984"/>
      <use xlink:href="#DejaVuSans-74" x="837.939453"/>
      <use xlink:href="#DejaVuSans-20" x="877.148438"/>
      <use xlink:href="#DejaVuSans-32" x="908.935547"/>
     </g>
    </g>
    <g id="line2d_22">
     <path d="M 62.504688 66.251953 
L 72.004688 66.251953 
L 81.504688 66.251953 
" style="fill: none; stroke: #008000; stroke-linecap: square"/>
    </g>
    <g id="text_15">
     <!-- Gravity by Object 3 -->
     <g transform="translate(89.104688 69.576953) scale(0.095 -0.095)">
      <use xlink:href="#DejaVuSans-47"/>
      <use xlink:href="#DejaVuSans-72" x="77.490234"/>
      <use xlink:href="#DejaVuSans-61" x="118.603516"/>
      <use xlink:href="#DejaVuSans-76" x="179.882812"/>
      <use xlink:href="#DejaVuSans-69" x="239.0625"/>
      <use xlink:href="#DejaVuSans-74" x="266.845703"/>
      <use xlink:href="#DejaVuSans-79" x="306.054688"/>
      <use xlink:href="#DejaVuSans-20" x="365.234375"/>
      <use xlink:href="#DejaVuSans-62" x="397.021484"/>
      <use xlink:href="#DejaVuSans-79" x="460.498047"/>
      <use xlink:href="#DejaVuSans-20" x="519.677734"/>
      <use xlink:href="#DejaVuSans-4f" x="551.464844"/>
      <use xlink:href="#DejaVuSans-62" x="630.175781"/>
      <use xlink:href="#DejaVuSans-6a" x="693.652344"/>
      <use xlink:href="#DejaVuSans-65" x="721.435547"/>
      <use xlink:href="#DejaVuSans-63" x="782.958984"/>
      <use xlink:href="#DejaVuSans-74" x="837.939453"/>
      <use xlink:href="#DejaVuSans-20" x="877.148438"/>
      <use xlink:href="#DejaVuSans-33" x="908.935547"/>
     </g>
    </g>
    <g id="line2d_23">
     <path d="M 200.499609 38.363516 
L 209.999609 38.363516 
L 219.499609 38.363516 
" style="fill: none; stroke: #808080; stroke-width: 4; stroke-linecap: square"/>
    </g>
    <g id="text_16">
     <!-- Total gravity -->
     <g transform="translate(227.099609 41.688516) scale(0.095 -0.095)">
      <defs>
       <path id="DejaVuSans-54" d="M -19 4666 
L 3928 4666 
L 3928 4134 
L 2272 4134 
L 2272 0 
L 1638 0 
L 1638 4134 
L -19 4134 
L -19 4666 
z
" transform="scale(0.015625)"/>
       <path id="DejaVuSans-6f" d="M 1959 3097 
Q 1497 3097 1228 2736 
Q 959 2375 959 1747 
Q 959 1119 1226 758 
Q 1494 397 1959 397 
Q 2419 397 2687 759 
Q 2956 1122 2956 1747 
Q 2956 2369 2687 2733 
Q 2419 3097 1959 3097 
z
M 1959 3584 
Q 2709 3584 3137 3096 
Q 3566 2609 3566 1747 
Q 3566 888 3137 398 
Q 2709 -91 1959 -91 
Q 1206 -91 779 398 
Q 353 888 353 1747 
Q 353 2609 779 3096 
Q 1206 3584 1959 3584 
z
" transform="scale(0.015625)"/>
       <path id="DejaVuSans-6c" d="M 603 4863 
L 1178 4863 
L 1178 0 
L 603 0 
L 603 4863 
z
" transform="scale(0.015625)"/>
       <path id="DejaVuSans-67" d="M 2906 1791 
Q 2906 2416 2648 2759 
Q 2391 3103 1925 3103 
Q 1463 3103 1205 2759 
Q 947 2416 947 1791 
Q 947 1169 1205 825 
Q 1463 481 1925 481 
Q 2391 481 2648 825 
Q 2906 1169 2906 1791 
z
M 3481 434 
Q 3481 -459 3084 -895 
Q 2688 -1331 1869 -1331 
Q 1566 -1331 1297 -1286 
Q 1028 -1241 775 -1147 
L 775 -588 
Q 1028 -725 1275 -790 
Q 1522 -856 1778 -856 
Q 2344 -856 2625 -561 
Q 2906 -266 2906 331 
L 2906 616 
Q 2728 306 2450 153 
Q 2172 0 1784 0 
Q 1141 0 747 490 
Q 353 981 353 1791 
Q 353 2603 747 3093 
Q 1141 3584 1784 3584 
Q 2172 3584 2450 3431 
Q 2728 3278 2906 2969 
L 2906 3500 
L 3481 3500 
L 3481 434 
z
" transform="scale(0.015625)"/>
      </defs>
      <use xlink:href="#DejaVuSans-54"/>
      <use xlink:href="#DejaVuSans-6f" x="44.083984"/>
      <use xlink:href="#DejaVuSans-74" x="105.265625"/>
      <use xlink:href="#DejaVuSans-61" x="144.474609"/>
      <use xlink:href="#DejaVuSans-6c" x="205.753906"/>
      <use xlink:href="#DejaVuSans-20" x="233.537109"/>
      <use xlink:href="#DejaVuSans-67" x="265.324219"/>
      <use xlink:href="#DejaVuSans-72" x="328.800781"/>
      <use xlink:href="#DejaVuSans-61" x="369.914062"/>
      <use xlink:href="#DejaVuSans-76" x="431.193359"/>
      <use xlink:href="#DejaVuSans-69" x="490.373047"/>
      <use xlink:href="#DejaVuSans-74" x="518.15625"/>
      <use xlink:href="#DejaVuSans-79" x="557.365234"/>
     </g>
    </g>
    <g id="line2d_24">
     <path d="M 200.499609 52.307734 
L 209.999609 52.307734 
L 219.499609 52.307734 
" style="fill: none; stroke-dasharray: 5.55,2.4; stroke-dashoffset: 0; stroke: #0000ff; stroke-width: 1.5"/>
    </g>
    <g id="text_17">
     <!-- Required force for the trajectory -->
     <g transform="translate(227.099609 55.632734) scale(0.095 -0.095)">
      <defs>
       <path id="DejaVuSans-52" d="M 2841 2188 
Q 3044 2119 3236 1894 
Q 3428 1669 3622 1275 
L 4263 0 
L 3584 0 
L 2988 1197 
Q 2756 1666 2539 1819 
Q 2322 1972 1947 1972 
L 1259 1972 
L 1259 0 
L 628 0 
L 628 4666 
L 2053 4666 
Q 2853 4666 3247 4331 
Q 3641 3997 3641 3322 
Q 3641 2881 3436 2590 
Q 3231 2300 2841 2188 
z
M 1259 4147 
L 1259 2491 
L 2053 2491 
Q 2509 2491 2742 2702 
Q 2975 2913 2975 3322 
Q 2975 3731 2742 3939 
Q 2509 4147 2053 4147 
L 1259 4147 
z
" transform="scale(0.015625)"/>
       <path id="DejaVuSans-71" d="M 947 1747 
Q 947 1113 1208 752 
Q 1469 391 1925 391 
Q 2381 391 2643 752 
Q 2906 1113 2906 1747 
Q 2906 2381 2643 2742 
Q 2381 3103 1925 3103 
Q 1469 3103 1208 2742 
Q 947 2381 947 1747 
z
M 2906 525 
Q 2725 213 2448 61 
Q 2172 -91 1784 -91 
Q 1150 -91 751 415 
Q 353 922 353 1747 
Q 353 2572 751 3078 
Q 1150 3584 1784 3584 
Q 2172 3584 2448 3432 
Q 2725 3281 2906 2969 
L 2906 3500 
L 3481 3500 
L 3481 -1331 
L 2906 -1331 
L 2906 525 
z
" transform="scale(0.015625)"/>
       <path id="DejaVuSans-75" d="M 544 1381 
L 544 3500 
L 1119 3500 
L 1119 1403 
Q 1119 906 1312 657 
Q 1506 409 1894 409 
Q 2359 409 2629 706 
Q 2900 1003 2900 1516 
L 2900 3500 
L 3475 3500 
L 3475 0 
L 2900 0 
L 2900 538 
Q 2691 219 2414 64 
Q 2138 -91 1772 -91 
Q 1169 -91 856 284 
Q 544 659 544 1381 
z
M 1991 3584 
L 1991 3584 
z
" transform="scale(0.015625)"/>
       <path id="DejaVuSans-64" d="M 2906 2969 
L 2906 4863 
L 3481 4863 
L 3481 0 
L 2906 0 
L 2906 525 
Q 2725 213 2448 61 
Q 2172 -91 1784 -91 
Q 1150 -91 751 415 
Q 353 922 353 1747 
Q 353 2572 751 3078 
Q 1150 3584 1784 3584 
Q 2172 3584 2448 3432 
Q 2725 3281 2906 2969 
z
M 947 1747 
Q 947 1113 1208 752 
Q 1469 391 1925 391 
Q 2381 391 2643 752 
Q 2906 1113 2906 1747 
Q 2906 2381 2643 2742 
Q 2381 3103 1925 3103 
Q 1469 3103 1208 2742 
Q 947 2381 947 1747 
z
" transform="scale(0.015625)"/>
       <path id="DejaVuSans-66" d="M 2375 4863 
L 2375 4384 
L 1825 4384 
Q 1516 4384 1395 4259 
Q 1275 4134 1275 3809 
L 1275 3500 
L 2222 3500 
L 2222 3053 
L 1275 3053 
L 1275 0 
L 697 0 
L 697 3053 
L 147 3053 
L 147 3500 
L 697 3500 
L 697 3744 
Q 697 4328 969 4595 
Q 1241 4863 1831 4863 
L 2375 4863 
z
" transform="scale(0.015625)"/>
       <path id="DejaVuSans-68" d="M 3513 2113 
L 3513 0 
L 2938 0 
L 2938 2094 
Q 2938 2591 2744 2837 
Q 2550 3084 2163 3084 
Q 1697 3084 1428 2787 
Q 1159 2491 1159 1978 
L 1159 0 
L 581 0 
L 581 4863 
L 1159 4863 
L 1159 2956 
Q 1366 3272 1645 3428 
Q 1925 3584 2291 3584 
Q 2894 3584 3203 3211 
Q 3513 2838 3513 2113 
z
" transform="scale(0.015625)"/>
      </defs>
      <use xlink:href="#DejaVuSans-52"/>
      <use xlink:href="#DejaVuSans-65" x="64.982422"/>
      <use xlink:href="#DejaVuSans-71" x="126.505859"/>
      <use xlink:href="#DejaVuSans-75" x="189.982422"/>
      <use xlink:href="#DejaVuSans-69" x="253.361328"/>
      <use xlink:href="#DejaVuSans-72" x="281.144531"/>
      <use xlink:href="#DejaVuSans-65" x="320.007812"/>
      <use xlink:href="#DejaVuSans-64" x="381.53125"/>
      <use xlink:href="#DejaVuSans-20" x="445.007812"/>
      <use xlink:href="#DejaVuSans-66" x="476.794922"/>
      <use xlink:href="#DejaVuSans-6f" x="512"/>
      <use xlink:href="#DejaVuSans-72" x="573.181641"/>
      <use xlink:href="#DejaVuSans-63" x="612.044922"/>
      <use xlink:href="#DejaVuSans-65" x="667.025391"/>
      <use xlink:href="#DejaVuSans-20" x="728.548828"/>
      <use xlink:href="#DejaVuSans-66" x="760.335938"/>
      <use xlink:href="#DejaVuSans-6f" x="795.541016"/>
      <use xlink:href="#DejaVuSans-72" x="856.722656"/>
      <use xlink:href="#DejaVuSans-20" x="897.835938"/>
      <use xlink:href="#DejaVuSans-74" x="929.623047"/>
      <use xlink:href="#DejaVuSans-68" x="968.832031"/>
      <use xlink:href="#DejaVuSans-65" x="1032.210938"/>
      <use xlink:href="#DejaVuSans-20" x="1093.734375"/>
      <use xlink:href="#DejaVuSans-74" x="1125.521484"/>
      <use xlink:href="#DejaVuSans-72" x="1164.730469"/>
      <use xlink:href="#DejaVuSans-61" x="1205.84375"/>
      <use xlink:href="#DejaVuSans-6a" x="1267.123047"/>
      <use xlink:href="#DejaVuSans-65" x="1294.90625"/>
      <use xlink:href="#DejaVuSans-63" x="1356.429688"/>
      <use xlink:href="#DejaVuSans-74" x="1411.410156"/>
      <use xlink:href="#DejaVuSans-6f" x="1450.619141"/>
      <use xlink:href="#DejaVuSans-72" x="1511.800781"/>
      <use xlink:href="#DejaVuSans-79" x="1552.914062"/>
     </g>
    </g>
    <g id="line2d_25">
     <path d="M 200.499609 66.251953 
L 209.999609 66.251953 
L 219.499609 66.251953 
" style="fill: none; stroke: #ffa500; stroke-width: 2; stroke-linecap: square"/>
    </g>
    <g id="text_18">
     <!-- Thrust -->
     <g transform="translate(227.099609 69.576953) scale(0.095 -0.095)">
      <defs>
       <path id="DejaVuSans-73" d="M 2834 3397 
L 2834 2853 
Q 2591 2978 2328 3040 
Q 2066 3103 1784 3103 
Q 1356 3103 1142 2972 
Q 928 2841 928 2578 
Q 928 2378 1081 2264 
Q 1234 2150 1697 2047 
L 1894 2003 
Q 2506 1872 2764 1633 
Q 3022 1394 3022 966 
Q 3022 478 2636 193 
Q 2250 -91 1575 -91 
Q 1294 -91 989 -36 
Q 684 19 347 128 
L 347 722 
Q 666 556 975 473 
Q 1284 391 1588 391 
Q 1994 391 2212 530 
Q 2431 669 2431 922 
Q 2431 1156 2273 1281 
Q 2116 1406 1581 1522 
L 1381 1569 
Q 847 1681 609 1914 
Q 372 2147 372 2553 
Q 372 3047 722 3315 
Q 1072 3584 1716 3584 
Q 2034 3584 2315 3537 
Q 2597 3491 2834 3397 
z
" transform="scale(0.015625)"/>
      </defs>
      <use xlink:href="#DejaVuSans-54"/>
      <use xlink:href="#DejaVuSans-68" x="61.083984"/>
      <use xlink:href="#DejaVuSans-72" x="124.462891"/>
      <use xlink:href="#DejaVuSans-75" x="165.576172"/>
      <use xlink:href="#DejaVuSans-73" x="228.955078"/>
      <use xlink:href="#DejaVuSans-74" x="281.054688"/>
     </g>
    </g>
   </g>
  </g>
 </g>
 <defs>
  <clipPath id="pfee909525d">
   <rect x="54" y="25.92" width="334.8" height="166.32"/>
  </clipPath>
 </defs>
</svg>
