<?xml version="1.0" encoding="utf-8" standalone="no"?>
<!DOCTYPE svg PUBLIC "-//W3C//DTD SVG 1.1//EN"
  "http://www.w3.org/Graphics/SVG/1.1/DTD/svg11.dtd">
<svg xmlns:xlink="http://www.w3.org/1999/xlink" width="288pt" height="216pt" viewBox="0 0 288 216" xmlns="http://www.w3.org/2000/svg" version="1.1">
 <metadata>
  <rdf:RDF xmlns:dc="http://purl.org/dc/elements/1.1/" xmlns:cc="http://creativecommons.org/ns#" xmlns:rdf="http://www.w3.org/1999/02/22-rdf-syntax-ns#">
   <cc:Work>
    <dc:type rdf:resource="http://purl.org/dc/dcmitype/StillImage"/>
    <dc:date>2023-07-28T11:52:40.106094</dc:date>
    <dc:format>image/svg+xml</dc:format>
    <dc:creator>
     <cc:Agent>
      <dc:title>Matplotlib v3.7.1, https://matplotlib.org/</dc:title>
     </cc:Agent>
    </dc:creator>
   </cc:Work>
  </rdf:RDF>
 </metadata>
 <defs>
  <style type="text/css">*{stroke-linejoin: round; stroke-linecap: butt}</style>
 </defs>
 <g id="figure_1">
  <g id="patch_1">
   <path d="M 0 216 
L 288 216 
L 288 0 
L 0 0 
z
" style="fill: #ffffff"/>
  </g>
  <g id="axes_1">
   <g id="patch_2">
    <path d="M 64.44 192.24 
L 230.76 192.24 
L 230.76 25.92 
L 64.44 25.92 
z
" style="fill: #ffffff"/>
   </g>
   <g id="line2d_1">
    <path d="M 78.342777 176.248448 
L 78.547373 173.994796 
L 79.015672 171.44222 
L 79.730931 168.887125 
L 80.69705 166.343711 
L 81.912067 163.828018 
L 83.370256 161.354832 
L 85.066042 158.938199 
L 86.99362 156.592356 
L 89.14497 154.331128 
L 91.508934 152.166659 
L 94.071018 150.108211 
L 97.129514 147.951578 
L 100.385775 145.932776 
L 104.163776 143.862605 
L 108.477884 141.760182 
L 114.085849 139.296972 
L 131.643189 131.805345 
L 136.372484 129.42694 
L 140.290059 127.217281 
L 143.780185 125.018297 
L 147.218167 122.594833 
L 150.214421 120.235319 
L 153.138341 117.670188 
L 155.973931 114.890819 
L 158.705567 111.892831 
L 161.319182 108.67618 
L 163.803898 105.247362 
L 166.154796 101.619825 
L 168.644289 97.329313 
L 171.245387 92.358094 
L 175.201869 84.186521 
L 178.928087 76.666157 
L 181.502795 71.940986 
L 184.146116 67.55774 
L 186.826298 63.565435 
L 189.50363 59.973827 
L 192.401008 56.467041 
L 195.463767 53.131258 
L 198.400381 50.258854 
L 201.427666 47.618532 
L 204.285348 45.422382 
L 206.959058 43.631613 
L 209.619017 42.118561 
L 211.893244 41.06736 
L 213.838162 40.379941 
L 213.838162 40.379941 
" clip-path="url(#p6f55c991b4)" style="fill: none; stroke: #0000ff; stroke-width: 3; stroke-linecap: square"/>
   </g>
   <g id="Quiver_1">
    <path d="M 83.030307 161.360222 
L 93.947077 163.679022 
L 93.479191 161.879334 
L 101.095364 166.047521 
L 92.442493 166.760048 
L 93.601511 165.305926 
L 82.684741 162.987127 
L 83.030307 161.360222 
" clip-path="url(#p6f55c991b4)" style="fill: #808080"/>
    <path d="M 95.099479 148.956326 
L 102.292376 153.354633 
L 102.450559 151.501859 
L 108.243805 157.968557 
L 99.847591 155.758697 
L 101.42472 154.773579 
L 94.231823 150.375272 
L 95.099479 148.956326 
" clip-path="url(#p6f55c991b4)" style="fill: #808080"/>
    <path d="M 112.154308 139.71535 
L 112.705052 140.051001 
L 112.825611 138.613863 
L 117.326095 143.622607 
L 110.811703 141.918325 
L 112.03375 141.152489 
L 111.483006 140.816838 
L 112.154308 139.71535 
" clip-path="url(#p6f55c991b4)" style="fill: #808080"/>
    <path d="M 130.417112 131.971842 
L 130.466766 129.932032 
L 128.783821 130.722912 
L 131.480251 122.470085 
L 133.771944 130.844333 
L 132.129473 129.972506 
L 132.07982 132.012316 
L 130.417112 131.971842 
" clip-path="url(#p6f55c991b4)" style="fill: #808080"/>
    <path d="M 149.795965 120.191151 
L 145.476294 107.345869 
L 144.164913 108.664229 
L 143.878908 99.986782 
L 148.894259 107.073823 
L 147.052742 106.815734 
L 151.372413 119.661015 
L 149.795965 120.191151 
" clip-path="url(#p6f55c991b4)" style="fill: #808080"/>
    <path d="M 166.334226 100.707815 
L 158.923501 90.713665 
L 158.082836 92.372301 
L 155.133603 84.206402 
L 162.090797 89.400373 
L 160.259489 89.723022 
L 167.670213 99.717173 
L 166.334226 100.707815 
" clip-path="url(#p6f55c991b4)" style="fill: #808080"/>
    <path d="M 180.488247 74.976808 
L 183.520931 85.00988 
L 184.872375 83.732621 
L 184.890434 92.414761 
L 180.096198 85.176309 
L 181.928872 85.491109 
L 178.896188 75.458038 
L 180.488247 74.976808 
" clip-path="url(#p6f55c991b4)" style="fill: #808080"/>
    <path d="M 193.735192 56.038491 
L 191.005944 69.814015 
L 192.79905 69.321507 
L 188.735642 76.994094 
L 187.904586 68.351801 
L 189.374456 69.49078 
L 192.103704 55.715255 
L 193.735192 56.038491 
" clip-path="url(#p6f55c991b4)" style="fill: #808080"/>
    <path d="M 205.466066 45.465575 
L 202.116423 52.83251 
L 203.974671 52.763903 
L 198.261541 59.301489 
L 199.432547 50.698663 
L 200.602381 52.144097 
L 203.952024 44.777161 
L 205.466066 45.465575 
" clip-path="url(#p6f55c991b4)" style="fill: #808080"/>
   </g>
   <g id="Quiver_2">
    <path d="M 83.024447 161.691163 
L 83.506959 161.858086 
L 83.358294 160.726141 
L 87.682636 163.842905 
L 82.356755 163.621208 
L 83.173112 162.823109 
L 82.690601 162.656186 
L 83.024447 161.691163 
" clip-path="url(#p6f55c991b4)" style="fill: #ffa500"/>
    <path d="M 94.525485 149.010984 
L 95.1803 148.870818 
L 94.245153 147.701355 
L 101.213798 148.264137 
L 95.08615 151.630243 
L 95.460632 150.180447 
L 94.805817 150.320614 
L 94.525485 149.010984 
" clip-path="url(#p6f55c991b4)" style="fill: #ffa500"/>
    <path d="M 111.598412 139.88696 
L 111.977546 139.666715 
L 111.157922 139.128693 
L 115.609995 138.063644 
L 112.479392 141.403495 
L 112.418036 140.424983 
L 112.038902 140.645228 
L 111.598412 139.88696 
" clip-path="url(#p6f55c991b4)" style="fill: #ffa500"/>
    <path d="M 130.87368 131.478271 
L 131.387488 131.103486 
L 130.124109 130.450656 
L 136.386542 128.244222 
L 132.372823 133.533502 
L 132.137059 132.131101 
L 131.623252 132.505887 
L 130.87368 131.478271 
" clip-path="url(#p6f55c991b4)" style="fill: #ffa500"/>
    <path d="M 150.240918 119.372533 
L 150.794468 119.029262 
L 149.554376 118.265433 
L 156.119688 116.493374 
L 151.614002 121.586732 
L 151.48101 120.136362 
L 150.92746 120.479633 
L 150.240918 119.372533 
" clip-path="url(#p6f55c991b4)" style="fill: #ffa500"/>
    <path d="M 166.755924 99.792852 
L 167.175566 99.546556 
L 166.263333 98.953568 
L 171.198641 97.749538 
L 167.741107 101.47142 
L 167.668157 100.385841 
L 167.248515 100.632136 
L 166.755924 99.792852 
" clip-path="url(#p6f55c991b4)" style="fill: #ffa500"/>
    <path d="M 179.451242 74.733985 
L 179.93468 74.493009 
L 178.96929 73.767109 
L 184.526598 72.807663 
L 180.415146 76.667737 
L 180.416632 75.459885 
L 179.933194 75.700861 
L 179.451242 74.733985 
" clip-path="url(#p6f55c991b4)" style="fill: #ffa500"/>
    <path d="M 192.816355 55.051688 
L 193.991209 54.904909 
L 192.959837 53.357632 
L 201.520967 54.802256 
L 193.578397 58.308743 
L 194.197395 56.555279 
L 193.022541 56.702058 
L 192.816355 55.051688 
" clip-path="url(#p6f55c991b4)" style="fill: #ffa500"/>
    <path d="M 204.279775 44.690163 
L 204.71098 44.260893 
L 203.421235 43.827753 
L 209.021096 40.828668 
L 205.996855 46.414983 
L 205.56952 45.123303 
L 205.138315 45.552573 
L 204.279775 44.690163 
" clip-path="url(#p6f55c991b4)" style="fill: #ffa500"/>
   </g>
   <g id="PathCollection_1">
    <defs>
     <path id="m4f50b0465a" d="M 0 5 
C 1.326016 5 2.597899 4.473168 3.535534 3.535534 
C 4.473168 2.597899 5 1.326016 5 0 
C 5 -1.326016 4.473168 -2.597899 3.535534 -3.535534 
C 2.597899 -4.473168 1.326016 -5 0 -5 
C -1.326016 -5 -2.597899 -4.473168 -3.535534 -3.535534 
C -4.473168 -2.597899 -5 -1.326016 -5 0 
C -5 1.326016 -4.473168 2.597899 -3.535534 3.535534 
C -2.597899 4.473168 -1.326016 5 0 5 
z
" style="stroke: #000000"/>
    </defs>
    <g clip-path="url(#p6f55c991b4)">
     <use xlink:href="#m4f50b0465a" x="112.95" y="178.38" style="stroke: #000000"/>
    </g>
   </g>
   <g id="PathCollection_2">
    <defs>
     <path id="m4e3c7530fd" d="M 0 7.071068 
C 1.875269 7.071068 3.673985 6.326016 5 5 
C 6.326016 3.673985 7.071068 1.875269 7.071068 0 
C 7.071068 -1.875269 6.326016 -3.673985 5 -5 
C 3.673985 -6.326016 1.875269 -7.071068 0 -7.071068 
C -1.875269 -7.071068 -3.673985 -6.326016 -5 -5 
C -6.326016 -3.673985 -7.071068 -1.875269 -7.071068 0 
C -7.071068 1.875269 -6.326016 3.673985 -5 5 
C -3.673985 6.326016 -1.875269 7.071068 0 7.071068 
z
" style="stroke: #000000"/>
    </defs>
    <g clip-path="url(#p6f55c991b4)">
     <use xlink:href="#m4e3c7530fd" x="133.74" y="81.36" style="stroke: #000000"/>
    </g>
   </g>
   <g id="PathCollection_3">
    <g clip-path="url(#p6f55c991b4)">
     <use xlink:href="#m4f50b0465a" x="203.04" y="88.29" style="stroke: #000000"/>
    </g>
   </g>
   <g id="matplotlib.axis_1">
    <g id="xtick_1">
     <g id="line2d_2">
      <defs>
       <path id="md5383edb48" d="M 0 0 
L 0 3.5 
" style="stroke: #000000; stroke-width: 0.8"/>
      </defs>
      <g>
       <use xlink:href="#md5383edb48" x="78.3" y="192.24" style="stroke: #000000; stroke-width: 0.8"/>
      </g>
     </g>
     <g id="text_1">
      <!-- −1 -->
      <g transform="translate(69.454687 208.358125) scale(0.12 -0.12)">
       <defs>
        <path id="DejaVuSans-2212" d="M 678 2272 
L 4684 2272 
L 4684 1741 
L 678 1741 
L 678 2272 
z
" transform="scale(0.015625)"/>
        <path id="DejaVuSans-31" d="M 794 531 
L 1825 531 
L 1825 4091 
L 703 3866 
L 703 4441 
L 1819 4666 
L 2450 4666 
L 2450 531 
L 3481 531 
L 3481 0 
L 794 0 
L 794 531 
z
" transform="scale(0.015625)"/>
       </defs>
       <use xlink:href="#DejaVuSans-2212"/>
       <use xlink:href="#DejaVuSans-31" x="83.789062"/>
      </g>
     </g>
    </g>
    <g id="xtick_2">
     <g id="line2d_3">
      <g>
       <use xlink:href="#md5383edb48" x="147.6" y="192.24" style="stroke: #000000; stroke-width: 0.8"/>
      </g>
     </g>
     <g id="text_2">
      <!-- 0 -->
      <g transform="translate(143.7825 208.358125) scale(0.12 -0.12)">
       <defs>
        <path id="DejaVuSans-30" d="M 2034 4250 
Q 1547 4250 1301 3770 
Q 1056 3291 1056 2328 
Q 1056 1369 1301 889 
Q 1547 409 2034 409 
Q 2525 409 2770 889 
Q 3016 1369 3016 2328 
Q 3016 3291 2770 3770 
Q 2525 4250 2034 4250 
z
M 2034 4750 
Q 2819 4750 3233 4129 
Q 3647 3509 3647 2328 
Q 3647 1150 3233 529 
Q 2819 -91 2034 -91 
Q 1250 -91 836 529 
Q 422 1150 422 2328 
Q 422 3509 836 4129 
Q 1250 4750 2034 4750 
z
" transform="scale(0.015625)"/>
       </defs>
       <use xlink:href="#DejaVuSans-30"/>
      </g>
     </g>
    </g>
    <g id="xtick_3">
     <g id="line2d_4">
      <g>
       <use xlink:href="#md5383edb48" x="216.9" y="192.24" style="stroke: #000000; stroke-width: 0.8"/>
      </g>
     </g>
     <g id="text_3">
      <!-- 1 -->
      <g transform="translate(213.0825 208.358125) scale(0.12 -0.12)">
       <use xlink:href="#DejaVuSans-31"/>
      </g>
     </g>
    </g>
   </g>
   <g id="matplotlib.axis_2">
    <g id="ytick_1">
     <g id="line2d_5">
      <defs>
       <path id="mc5b7ddedb2" d="M 0 0 
L -3.5 0 
" style="stroke: #000000; stroke-width: 0.8"/>
      </defs>
      <g>
       <use xlink:href="#mc5b7ddedb2" x="64.44" y="178.38" style="stroke: #000000; stroke-width: 0.8"/>
      </g>
     </g>
     <g id="text_4">
      <!-- −1.0 -->
      <g transform="translate(28.300625 182.939062) scale(0.12 -0.12)">
       <defs>
        <path id="DejaVuSans-2e" d="M 684 794 
L 1344 794 
L 1344 0 
L 684 0 
L 684 794 
z
" transform="scale(0.015625)"/>
       </defs>
       <use xlink:href="#DejaVuSans-2212"/>
       <use xlink:href="#DejaVuSans-31" x="83.789062"/>
       <use xlink:href="#DejaVuSans-2e" x="147.412109"/>
       <use xlink:href="#DejaVuSans-30" x="179.199219"/>
      </g>
     </g>
    </g>
    <g id="ytick_2">
     <g id="line2d_6">
      <g>
       <use xlink:href="#mc5b7ddedb2" x="64.44" y="143.73" style="stroke: #000000; stroke-width: 0.8"/>
      </g>
     </g>
     <g id="text_5">
      <!-- −0.5 -->
      <g transform="translate(28.300625 148.289062) scale(0.12 -0.12)">
       <defs>
        <path id="DejaVuSans-35" d="M 691 4666 
L 3169 4666 
L 3169 4134 
L 1269 4134 
L 1269 2991 
Q 1406 3038 1543 3061 
Q 1681 3084 1819 3084 
Q 2600 3084 3056 2656 
Q 3513 2228 3513 1497 
Q 3513 744 3044 326 
Q 2575 -91 1722 -91 
Q 1428 -91 1123 -41 
Q 819 9 494 109 
L 494 744 
Q 775 591 1075 516 
Q 1375 441 1709 441 
Q 2250 441 2565 725 
Q 2881 1009 2881 1497 
Q 2881 1984 2565 2268 
Q 2250 2553 1709 2553 
Q 1456 2553 1204 2497 
Q 953 2441 691 2322 
L 691 4666 
z
" transform="scale(0.015625)"/>
       </defs>
       <use xlink:href="#DejaVuSans-2212"/>
       <use xlink:href="#DejaVuSans-30" x="83.789062"/>
       <use xlink:href="#DejaVuSans-2e" x="147.412109"/>
       <use xlink:href="#DejaVuSans-35" x="179.199219"/>
      </g>
     </g>
    </g>
    <g id="ytick_3">
     <g id="line2d_7">
      <g>
       <use xlink:href="#mc5b7ddedb2" x="64.44" y="109.08" style="stroke: #000000; stroke-width: 0.8"/>
      </g>
     </g>
     <g id="text_6">
      <!-- 0.0 -->
      <g transform="translate(38.35625 113.639062) scale(0.12 -0.12)">
       <use xlink:href="#DejaVuSans-30"/>
       <use xlink:href="#DejaVuSans-2e" x="63.623047"/>
       <use xlink:href="#DejaVuSans-30" x="95.410156"/>
      </g>
     </g>
    </g>
    <g id="ytick_4">
     <g id="line2d_8">
      <g>
       <use xlink:href="#mc5b7ddedb2" x="64.44" y="74.43" style="stroke: #000000; stroke-width: 0.8"/>
      </g>
     </g>
     <g id="text_7">
      <!-- 0.5 -->
      <g transform="translate(38.35625 78.989062) scale(0.12 -0.12)">
       <use xlink:href="#DejaVuSans-30"/>
       <use xlink:href="#DejaVuSans-2e" x="63.623047"/>
       <use xlink:href="#DejaVuSans-35" x="95.410156"/>
      </g>
     </g>
    </g>
    <g id="ytick_5">
     <g id="line2d_9">
      <g>
       <use xlink:href="#mc5b7ddedb2" x="64.44" y="39.78" style="stroke: #000000; stroke-width: 0.8"/>
      </g>
     </g>
     <g id="text_8">
      <!-- 1.0 -->
      <g transform="translate(38.35625 44.339062) scale(0.12 -0.12)">
       <use xlink:href="#DejaVuSans-31"/>
       <use xlink:href="#DejaVuSans-2e" x="63.623047"/>
       <use xlink:href="#DejaVuSans-30" x="95.410156"/>
      </g>
     </g>
    </g>
   </g>
   <g id="patch_3">
    <path d="M 64.44 192.24 
L 64.44 25.92 
" style="fill: none; stroke: #000000; stroke-width: 0.8; stroke-linejoin: miter; stroke-linecap: square"/>
   </g>
   <g id="patch_4">
    <path d="M 64.44 192.24 
L 230.76 192.24 
" style="fill: none; stroke: #000000; stroke-width: 0.8; stroke-linejoin: miter; stroke-linecap: square"/>
   </g>
   <g id="legend_1">
    <g id="patch_5">
     <path d="M 139.142812 187.24 
L 223.76 187.24 
Q 225.76 187.24 225.76 185.24 
L 225.76 142.205625 
Q 225.76 140.205625 223.76 140.205625 
L 139.142812 140.205625 
Q 137.142812 140.205625 137.142812 142.205625 
L 137.142812 185.24 
Q 137.142812 187.24 139.142812 187.24 
z
" style="fill: #ffffff; opacity: 0.8; stroke: #cccccc; stroke-linejoin: miter"/>
    </g>
    <g id="line2d_10">
     <path d="M 141.142812 148.304062 
L 151.142812 148.304062 
L 161.142812 148.304062 
" style="fill: none; stroke: #0000ff; stroke-width: 3; stroke-linecap: square"/>
    </g>
    <g id="text_9">
     <!-- Trajectory -->
     <g transform="translate(169.142812 151.804062) scale(0.1 -0.1)">
      <defs>
       <path id="DejaVuSans-54" d="M -19 4666 
L 3928 4666 
L 3928 4134 
L 2272 4134 
L 2272 0 
L 1638 0 
L 1638 4134 
L -19 4134 
L -19 4666 
z
" transform="scale(0.015625)"/>
       <path id="DejaVuSans-72" d="M 2631 2963 
Q 2534 3019 2420 3045 
Q 2306 3072 2169 3072 
Q 1681 3072 1420 2755 
Q 1159 2438 1159 1844 
L 1159 0 
L 581 0 
L 581 3500 
L 1159 3500 
L 1159 2956 
Q 1341 3275 1631 3429 
Q 1922 3584 2338 3584 
Q 2397 3584 2469 3576 
Q 2541 3569 2628 3553 
L 2631 2963 
z
" transform="scale(0.015625)"/>
       <path id="DejaVuSans-61" d="M 2194 1759 
Q 1497 1759 1228 1600 
Q 959 1441 959 1056 
Q 959 750 1161 570 
Q 1363 391 1709 391 
Q 2188 391 2477 730 
Q 2766 1069 2766 1631 
L 2766 1759 
L 2194 1759 
z
M 3341 1997 
L 3341 0 
L 2766 0 
L 2766 531 
Q 2569 213 2275 61 
Q 1981 -91 1556 -91 
Q 1019 -91 701 211 
Q 384 513 384 1019 
Q 384 1609 779 1909 
Q 1175 2209 1959 2209 
L 2766 2209 
L 2766 2266 
Q 2766 2663 2505 2880 
Q 2244 3097 1772 3097 
Q 1472 3097 1187 3025 
Q 903 2953 641 2809 
L 641 3341 
Q 956 3463 1253 3523 
Q 1550 3584 1831 3584 
Q 2591 3584 2966 3190 
Q 3341 2797 3341 1997 
z
" transform="scale(0.015625)"/>
       <path id="DejaVuSans-6a" d="M 603 3500 
L 1178 3500 
L 1178 -63 
Q 1178 -731 923 -1031 
Q 669 -1331 103 -1331 
L -116 -1331 
L -116 -844 
L 38 -844 
Q 366 -844 484 -692 
Q 603 -541 603 -63 
L 603 3500 
z
M 603 4863 
L 1178 4863 
L 1178 4134 
L 603 4134 
L 603 4863 
z
" transform="scale(0.015625)"/>
       <path id="DejaVuSans-65" d="M 3597 1894 
L 3597 1613 
L 953 1613 
Q 991 1019 1311 708 
Q 1631 397 2203 397 
Q 2534 397 2845 478 
Q 3156 559 3463 722 
L 3463 178 
Q 3153 47 2828 -22 
Q 2503 -91 2169 -91 
Q 1331 -91 842 396 
Q 353 884 353 1716 
Q 353 2575 817 3079 
Q 1281 3584 2069 3584 
Q 2775 3584 3186 3129 
Q 3597 2675 3597 1894 
z
M 3022 2063 
Q 3016 2534 2758 2815 
Q 2500 3097 2075 3097 
Q 1594 3097 1305 2825 
Q 1016 2553 972 2059 
L 3022 2063 
z
" transform="scale(0.015625)"/>
       <path id="DejaVuSans-63" d="M 3122 3366 
L 3122 2828 
Q 2878 2963 2633 3030 
Q 2388 3097 2138 3097 
Q 1578 3097 1268 2742 
Q 959 2388 959 1747 
Q 959 1106 1268 751 
Q 1578 397 2138 397 
Q 2388 397 2633 464 
Q 2878 531 3122 666 
L 3122 134 
Q 2881 22 2623 -34 
Q 2366 -91 2075 -91 
Q 1284 -91 818 406 
Q 353 903 353 1747 
Q 353 2603 823 3093 
Q 1294 3584 2113 3584 
Q 2378 3584 2631 3529 
Q 2884 3475 3122 3366 
z
" transform="scale(0.015625)"/>
       <path id="DejaVuSans-74" d="M 1172 4494 
L 1172 3500 
L 2356 3500 
L 2356 3053 
L 1172 3053 
L 1172 1153 
Q 1172 725 1289 603 
Q 1406 481 1766 481 
L 2356 481 
L 2356 0 
L 1766 0 
Q 1100 0 847 248 
Q 594 497 594 1153 
L 594 3053 
L 172 3053 
L 172 3500 
L 594 3500 
L 594 4494 
L 1172 4494 
z
" transform="scale(0.015625)"/>
       <path id="DejaVuSans-6f" d="M 1959 3097 
Q 1497 3097 1228 2736 
Q 959 2375 959 1747 
Q 959 1119 1226 758 
Q 1494 397 1959 397 
Q 2419 397 2687 759 
Q 2956 1122 2956 1747 
Q 2956 2369 2687 2733 
Q 2419 3097 1959 3097 
z
M 1959 3584 
Q 2709 3584 3137 3096 
Q 3566 2609 3566 1747 
Q 3566 888 3137 398 
Q 2709 -91 1959 -91 
Q 1206 -91 779 398 
Q 353 888 353 1747 
Q 353 2609 779 3096 
Q 1206 3584 1959 3584 
z
" transform="scale(0.015625)"/>
       <path id="DejaVuSans-79" d="M 2059 -325 
Q 1816 -950 1584 -1140 
Q 1353 -1331 966 -1331 
L 506 -1331 
L 506 -850 
L 844 -850 
Q 1081 -850 1212 -737 
Q 1344 -625 1503 -206 
L 1606 56 
L 191 3500 
L 800 3500 
L 1894 763 
L 2988 3500 
L 3597 3500 
L 2059 -325 
z
" transform="scale(0.015625)"/>
      </defs>
      <use xlink:href="#DejaVuSans-54"/>
      <use xlink:href="#DejaVuSans-72" x="46.333984"/>
      <use xlink:href="#DejaVuSans-61" x="87.447266"/>
      <use xlink:href="#DejaVuSans-6a" x="148.726562"/>
      <use xlink:href="#DejaVuSans-65" x="176.509766"/>
      <use xlink:href="#DejaVuSans-63" x="238.033203"/>
      <use xlink:href="#DejaVuSans-74" x="293.013672"/>
      <use xlink:href="#DejaVuSans-6f" x="332.222656"/>
      <use xlink:href="#DejaVuSans-72" x="393.404297"/>
      <use xlink:href="#DejaVuSans-79" x="434.517578"/>
     </g>
    </g>
    <g id="patch_6">
     <path d="M 141.142812 166.482188 
L 161.142812 166.482188 
L 161.142812 159.482188 
L 141.142812 159.482188 
z
" style="fill: #808080"/>
    </g>
    <g id="text_10">
     <!-- Gravity/20 -->
     <g transform="translate(169.142812 166.482188) scale(0.1 -0.1)">
      <defs>
       <path id="DejaVuSans-47" d="M 3809 666 
L 3809 1919 
L 2778 1919 
L 2778 2438 
L 4434 2438 
L 4434 434 
Q 4069 175 3628 42 
Q 3188 -91 2688 -91 
Q 1594 -91 976 548 
Q 359 1188 359 2328 
Q 359 3472 976 4111 
Q 1594 4750 2688 4750 
Q 3144 4750 3555 4637 
Q 3966 4525 4313 4306 
L 4313 3634 
Q 3963 3931 3569 4081 
Q 3175 4231 2741 4231 
Q 1884 4231 1454 3753 
Q 1025 3275 1025 2328 
Q 1025 1384 1454 906 
Q 1884 428 2741 428 
Q 3075 428 3337 486 
Q 3600 544 3809 666 
z
" transform="scale(0.015625)"/>
       <path id="DejaVuSans-76" d="M 191 3500 
L 800 3500 
L 1894 563 
L 2988 3500 
L 3597 3500 
L 2284 0 
L 1503 0 
L 191 3500 
z
" transform="scale(0.015625)"/>
       <path id="DejaVuSans-69" d="M 603 3500 
L 1178 3500 
L 1178 0 
L 603 0 
L 603 3500 
z
M 603 4863 
L 1178 4863 
L 1178 4134 
L 603 4134 
L 603 4863 
z
" transform="scale(0.015625)"/>
       <path id="DejaVuSans-2f" d="M 1625 4666 
L 2156 4666 
L 531 -594 
L 0 -594 
L 1625 4666 
z
" transform="scale(0.015625)"/>
       <path id="DejaVuSans-32" d="M 1228 531 
L 3431 531 
L 3431 0 
L 469 0 
L 469 531 
Q 828 903 1448 1529 
Q 2069 2156 2228 2338 
Q 2531 2678 2651 2914 
Q 2772 3150 2772 3378 
Q 2772 3750 2511 3984 
Q 2250 4219 1831 4219 
Q 1534 4219 1204 4116 
Q 875 4013 500 3803 
L 500 4441 
Q 881 4594 1212 4672 
Q 1544 4750 1819 4750 
Q 2544 4750 2975 4387 
Q 3406 4025 3406 3419 
Q 3406 3131 3298 2873 
Q 3191 2616 2906 2266 
Q 2828 2175 2409 1742 
Q 1991 1309 1228 531 
z
" transform="scale(0.015625)"/>
      </defs>
      <use xlink:href="#DejaVuSans-47"/>
      <use xlink:href="#DejaVuSans-72" x="77.490234"/>
      <use xlink:href="#DejaVuSans-61" x="118.603516"/>
      <use xlink:href="#DejaVuSans-76" x="179.882812"/>
      <use xlink:href="#DejaVuSans-69" x="239.0625"/>
      <use xlink:href="#DejaVuSans-74" x="266.845703"/>
      <use xlink:href="#DejaVuSans-79" x="306.054688"/>
      <use xlink:href="#DejaVuSans-2f" x="365.234375"/>
      <use xlink:href="#DejaVuSans-32" x="398.925781"/>
      <use xlink:href="#DejaVuSans-30" x="462.548828"/>
     </g>
    </g>
    <g id="patch_7">
     <path d="M 141.142812 181.160313 
L 161.142812 181.160313 
L 161.142812 174.160313 
L 141.142812 174.160313 
z
" style="fill: #ffa500"/>
    </g>
    <g id="text_11">
     <!-- Thurst -->
     <g transform="translate(169.142812 181.160313) scale(0.1 -0.1)">
      <defs>
       <path id="DejaVuSans-68" d="M 3513 2113 
L 3513 0 
L 2938 0 
L 2938 2094 
Q 2938 2591 2744 2837 
Q 2550 3084 2163 3084 
Q 1697 3084 1428 2787 
Q 1159 2491 1159 1978 
L 1159 0 
L 581 0 
L 581 4863 
L 1159 4863 
L 1159 2956 
Q 1366 3272 1645 3428 
Q 1925 3584 2291 3584 
Q 2894 3584 3203 3211 
Q 3513 2838 3513 2113 
z
" transform="scale(0.015625)"/>
       <path id="DejaVuSans-75" d="M 544 1381 
L 544 3500 
L 1119 3500 
L 1119 1403 
Q 1119 906 1312 657 
Q 1506 409 1894 409 
Q 2359 409 2629 706 
Q 2900 1003 2900 1516 
L 2900 3500 
L 3475 3500 
L 3475 0 
L 2900 0 
L 2900 538 
Q 2691 219 2414 64 
Q 2138 -91 1772 -91 
Q 1169 -91 856 284 
Q 544 659 544 1381 
z
M 1991 3584 
L 1991 3584 
z
" transform="scale(0.015625)"/>
       <path id="DejaVuSans-73" d="M 2834 3397 
L 2834 2853 
Q 2591 2978 2328 3040 
Q 2066 3103 1784 3103 
Q 1356 3103 1142 2972 
Q 928 2841 928 2578 
Q 928 2378 1081 2264 
Q 1234 2150 1697 2047 
L 1894 2003 
Q 2506 1872 2764 1633 
Q 3022 1394 3022 966 
Q 3022 478 2636 193 
Q 2250 -91 1575 -91 
Q 1294 -91 989 -36 
Q 684 19 347 128 
L 347 722 
Q 666 556 975 473 
Q 1284 391 1588 391 
Q 1994 391 2212 530 
Q 2431 669 2431 922 
Q 2431 1156 2273 1281 
Q 2116 1406 1581 1522 
L 1381 1569 
Q 847 1681 609 1914 
Q 372 2147 372 2553 
Q 372 3047 722 3315 
Q 1072 3584 1716 3584 
Q 2034 3584 2315 3537 
Q 2597 3491 2834 3397 
z
" transform="scale(0.015625)"/>
      </defs>
      <use xlink:href="#DejaVuSans-54"/>
      <use xlink:href="#DejaVuSans-68" x="61.083984"/>
      <use xlink:href="#DejaVuSans-75" x="124.462891"/>
      <use xlink:href="#DejaVuSans-72" x="187.841797"/>
      <use xlink:href="#DejaVuSans-73" x="228.955078"/>
      <use xlink:href="#DejaVuSans-74" x="281.054688"/>
     </g>
    </g>
   </g>
  </g>
 </g>
 <defs>
  <clipPath id="p6f55c991b4">
   <rect x="64.44" y="25.92" width="166.32" height="166.32"/>
  </clipPath>
 </defs>
</svg>
